G04 DipTrace 3.0.0.2*
G04 BottomSilk.gbr*
%MOIN*%
G04 #@! TF.FileFunction,Legend,Bot*
G04 #@! TF.Part,Single*
%ADD10C,0.009843*%
%ADD80C,0.00772*%
%ADD81C,0.009264*%
%ADD82C,0.006176*%
%FSLAX26Y26*%
G04*
G70*
G90*
G75*
G01*
G04 BotSilk*
%LPD*%
X1579627Y504701D2*
D10*
X1729627D1*
X1754627Y479701D1*
Y429701D1*
X1729627Y404701D2*
X1754627Y429701D1*
X1579627Y404701D2*
X1729627D1*
X1554627Y429701D2*
X1579627Y404701D1*
X1554627Y479701D2*
Y429701D1*
Y479701D2*
X1579627Y504701D1*
X1268228Y1368453D2*
Y1428453D1*
X1428528Y1368453D2*
X1268228D1*
X1428528D2*
Y1428453D1*
X1268228D1*
X1517101Y475242D2*
D80*
Y436996D1*
X1519478Y429811D1*
X1521910Y427434D1*
X1526663Y425002D1*
X1531471D1*
X1536225Y427434D1*
X1538601Y429811D1*
X1541033Y436996D1*
Y441749D1*
X1489724Y475187D2*
X1496854Y472810D1*
X1499286Y468057D1*
Y463249D1*
X1496854Y458495D1*
X1492101Y456064D1*
X1482539Y453687D1*
X1475354Y451310D1*
X1470601Y446502D1*
X1468224Y441749D1*
Y434564D1*
X1470601Y429811D1*
X1472977Y427379D1*
X1480162Y425002D1*
X1489724D1*
X1496854Y427379D1*
X1499286Y429811D1*
X1501662Y434564D1*
Y441749D1*
X1499286Y446502D1*
X1494477Y451310D1*
X1487347Y453687D1*
X1477786Y456064D1*
X1472977Y458495D1*
X1470601Y463249D1*
Y468057D1*
X1472977Y472810D1*
X1480162Y475187D1*
X1489724D1*
X1202682Y480811D2*
Y459311D1*
X1200251Y452126D1*
X1197874Y449694D1*
X1193121Y447318D1*
X1188312D1*
X1183559Y449694D1*
X1181127Y452126D1*
X1178751Y459311D1*
Y480811D1*
X1228991D1*
X1202682Y464064D2*
X1228991Y447318D1*
X1188368Y431878D2*
X1185936Y427070D1*
X1178806Y419885D1*
X1228991D1*
X1351994Y825817D2*
X1330494D1*
X1323309Y828249D1*
X1320877Y830625D1*
X1318500Y835379D1*
Y840187D1*
X1320877Y844940D1*
X1323309Y847372D1*
X1330494Y849749D1*
X1351994D1*
Y799509D1*
X1335247Y825817D2*
X1318500Y799509D1*
X1298253Y849693D2*
X1272000D1*
X1286315Y830570D1*
X1279130D1*
X1274376Y828194D1*
X1272000Y825817D1*
X1269568Y818632D1*
Y813879D1*
X1272000Y806694D1*
X1276753Y801885D1*
X1283938Y799509D1*
X1291123D1*
X1298253Y801885D1*
X1300629Y804317D1*
X1303061Y809070D1*
X1345840Y1477744D2*
X1324340D1*
X1317155Y1480176D1*
X1314724Y1482553D1*
X1312347Y1487306D1*
Y1492114D1*
X1314724Y1496867D1*
X1317155Y1499299D1*
X1324340Y1501676D1*
X1345840D1*
Y1451436D1*
X1329094Y1477744D2*
X1312347Y1451436D1*
X1268223Y1501621D2*
X1292099D1*
X1294476Y1480121D1*
X1292099Y1482497D1*
X1284914Y1484929D1*
X1277784D1*
X1270599Y1482497D1*
X1265791Y1477744D1*
X1263414Y1470559D1*
Y1465806D1*
X1265791Y1458621D1*
X1270599Y1453812D1*
X1277784Y1451436D1*
X1284914D1*
X1292099Y1453812D1*
X1294476Y1456244D1*
X1296908Y1460997D1*
X1588374Y913224D2*
X1566874D1*
X1559689Y915656D1*
X1557257Y918032D1*
X1554880Y922785D1*
Y927594D1*
X1557257Y932347D1*
X1559689Y934779D1*
X1566874Y937155D1*
X1588374D1*
Y886915D1*
X1571627Y913224D2*
X1554880Y886915D1*
X1510756Y929970D2*
X1513133Y934724D1*
X1520318Y937100D1*
X1525071D1*
X1532256Y934724D1*
X1537064Y927539D1*
X1539441Y915600D1*
Y903662D1*
X1537064Y894101D1*
X1532256Y889292D1*
X1525071Y886915D1*
X1522694D1*
X1515565Y889292D1*
X1510756Y894101D1*
X1508380Y901286D1*
Y903662D1*
X1510756Y910847D1*
X1515565Y915600D1*
X1522694Y917977D1*
X1525071D1*
X1532256Y915600D1*
X1537064Y910847D1*
X1539441Y903662D1*
X819558Y1234729D2*
Y1213229D1*
X817126Y1206044D1*
X814749Y1203612D1*
X809996Y1201235D1*
X805188D1*
X800435Y1203612D1*
X798003Y1206044D1*
X795626Y1213229D1*
Y1234729D1*
X845866D1*
X819558Y1217982D2*
X845866Y1201235D1*
X805243Y1185796D2*
X802811Y1180988D1*
X795681Y1173803D1*
X845866Y1173802D1*
X807620Y1155931D2*
X805243D1*
X800435Y1153555D1*
X798058Y1151178D1*
X795681Y1146370D1*
Y1136808D1*
X798058Y1132055D1*
X800434Y1129678D1*
X805243Y1127247D1*
X809996D1*
X814805Y1129678D1*
X821934Y1134432D1*
X845866Y1158363D1*
Y1124870D1*
X1069556Y1234729D2*
Y1213229D1*
X1067125Y1206044D1*
X1064748Y1203612D1*
X1059995Y1201235D1*
X1055186D1*
X1050433Y1203612D1*
X1048001Y1206044D1*
X1045625Y1213229D1*
Y1234729D1*
X1095865D1*
X1069556Y1217982D2*
X1095865Y1201235D1*
X1055242Y1185796D2*
X1052810Y1180988D1*
X1045680Y1173803D1*
X1095865Y1173802D1*
X1045680Y1153555D2*
Y1127302D1*
X1064803Y1141617D1*
Y1134432D1*
X1067180Y1129678D1*
X1069556Y1127302D1*
X1076741Y1124870D1*
X1081495D1*
X1088680Y1127302D1*
X1093488Y1132055D1*
X1095865Y1139240D1*
Y1146425D1*
X1093488Y1153555D1*
X1091056Y1155931D1*
X1086303Y1158363D1*
X918868Y527717D2*
X897368D1*
X890183Y530149D1*
X887752Y532526D1*
X885375Y537279D1*
Y542087D1*
X887752Y546840D1*
X890183Y549272D1*
X897368Y551649D1*
X918868D1*
Y501409D1*
X902122Y527717D2*
X885375Y501409D1*
X869936Y542032D2*
X865127Y544464D1*
X857942Y551594D1*
Y501409D1*
X818571D2*
Y551594D1*
X842503Y518156D1*
X806633D1*
X2341402Y516916D2*
D81*
X2401690Y493902D1*
X2341402Y470954D1*
X2361498Y479576D2*
Y508294D1*
X2401690Y535443D2*
X2341402D1*
Y561310D1*
X2344320Y569932D1*
X2347172Y572784D1*
X2352876Y575635D1*
X2361498D1*
X2367268Y572784D1*
X2370120Y569932D1*
X2372972Y561310D1*
X2375890Y569932D1*
X2378742Y572784D1*
X2384446Y575635D1*
X2390216D1*
X2395920Y572784D1*
X2398838Y569932D1*
X2401690Y561310D1*
Y535443D1*
X2372972D2*
Y561310D1*
X2401690Y594163D2*
X2341402D1*
Y628584D1*
X2393068Y687303D2*
X2398838Y681600D1*
X2401690Y672978D1*
Y661504D1*
X2398838Y652882D1*
X2393068Y647111D1*
X2387364D1*
X2381594Y650030D1*
X2378742Y652882D1*
X2375890Y658585D1*
X2370120Y675830D1*
X2367268Y681600D1*
X2364350Y684452D1*
X2358646Y687303D1*
X2350024D1*
X2344320Y681600D1*
X2341402Y672978D1*
Y661504D1*
X2344320Y652882D1*
X2350024Y647111D1*
X2401690Y764152D2*
X2341402D1*
Y790018D1*
X2344320Y798640D1*
X2347172Y801492D1*
X2352876Y804344D1*
X2361498D1*
X2367268Y801492D1*
X2370120Y798640D1*
X2372972Y790018D1*
X2375890Y798640D1*
X2378742Y801492D1*
X2384446Y804344D1*
X2390216D1*
X2395920Y801492D1*
X2398838Y798640D1*
X2401690Y790018D1*
Y764152D1*
X2372972D2*
Y790018D1*
X2381594Y822871D2*
X2341402D1*
X2364350D2*
X2372972Y825789D1*
X2378742Y831493D1*
X2381594Y837263D1*
Y845885D1*
Y898834D2*
X2341402D1*
X2372972D2*
X2378742Y893130D1*
X2381594Y887360D1*
Y878804D1*
X2378742Y873034D1*
X2372972Y867330D1*
X2364350Y864412D1*
X2358646D1*
X2350024Y867330D1*
X2344320Y873034D1*
X2341402Y878804D1*
Y887360D1*
X2344320Y893130D1*
X2350024Y898834D1*
X2401690Y917361D2*
X2398838Y920213D1*
X2401690Y923131D1*
X2404608Y920213D1*
X2401690Y917361D1*
X2381594Y920213D2*
X2341402D1*
X2381594Y941658D2*
X2341402D1*
X2370120D2*
X2378742Y950280D1*
X2381594Y956051D1*
Y964606D1*
X2378742Y970376D1*
X2370120Y973228D1*
X2341402D1*
Y1095972D2*
X2401690D1*
X2341402Y1073024D1*
X2401690Y1050077D1*
X2341402D1*
X2381594Y1128825D2*
X2378742Y1123122D1*
X2372972Y1117351D1*
X2364350Y1114499D1*
X2358646D1*
X2350024Y1117351D1*
X2344320Y1123122D1*
X2341402Y1128825D1*
Y1137447D1*
X2344320Y1143218D1*
X2350024Y1148921D1*
X2358646Y1151840D1*
X2364350D1*
X2372972Y1148921D1*
X2378742Y1143218D1*
X2381594Y1137447D1*
Y1128825D1*
X2401690Y1204789D2*
X2341402D1*
X2372972D2*
X2378742Y1199085D1*
X2381594Y1193315D1*
Y1184693D1*
X2378742Y1178989D1*
X2372972Y1173219D1*
X2364350Y1170367D1*
X2358646D1*
X2350024Y1173219D1*
X2344320Y1178989D1*
X2341402Y1184693D1*
Y1193315D1*
X2344320Y1199085D1*
X2350024Y1204789D1*
X2381594Y1223316D2*
X2352876D1*
X2344320Y1226168D1*
X2341402Y1231938D1*
Y1240560D1*
X2344320Y1246264D1*
X2352876Y1254886D1*
X2381594D2*
X2341402D1*
X2401690Y1273413D2*
X2341402D1*
X2364350Y1291940D2*
Y1326362D1*
X2370120D1*
X2375890Y1323510D1*
X2378742Y1320658D1*
X2381594Y1314888D1*
Y1306266D1*
X2378742Y1300562D1*
X2372972Y1294792D1*
X2364350Y1291940D1*
X2358646D1*
X2350024Y1294792D1*
X2344320Y1300562D1*
X2341402Y1306266D1*
Y1314888D1*
X2344320Y1320658D1*
X2350024Y1326362D1*
X2295972Y474299D2*
D82*
X2255780D1*
Y487696D1*
X2257726Y493444D1*
X2261528Y497291D1*
X2265375Y499192D1*
X2271079Y501094D1*
X2280674D1*
X2286422Y499192D1*
X2290224Y497291D1*
X2294071Y493444D1*
X2295972Y487696D1*
Y474299D1*
X2271079Y513445D2*
Y536393D1*
X2274926D1*
X2278773Y534492D1*
X2280674Y532590D1*
X2282575Y528744D1*
Y522996D1*
X2280674Y519193D1*
X2276827Y515346D1*
X2271079Y513445D1*
X2267276D1*
X2261528Y515346D1*
X2257726Y519193D1*
X2255780Y522996D1*
Y528744D1*
X2257726Y532590D1*
X2261528Y536393D1*
X2276827Y569791D2*
X2280674Y567890D1*
X2282575Y562142D1*
Y556394D1*
X2280674Y550646D1*
X2276827Y548744D1*
X2273024Y550646D1*
X2271079Y554492D1*
X2269178Y564043D1*
X2267276Y567890D1*
X2263430Y569791D1*
X2261528D1*
X2257726Y567890D1*
X2255780Y562142D1*
Y556394D1*
X2257726Y550646D1*
X2261528Y548744D1*
X2295972Y582142D2*
X2294071Y584044D1*
X2295972Y585989D1*
X2297918Y584044D1*
X2295972Y582142D1*
X2282575Y584044D2*
X2255780D1*
X2280674Y621289D2*
X2250032D1*
X2244329Y619387D1*
X2242383Y617486D1*
X2240482Y613639D1*
Y607891D1*
X2242383Y604089D1*
X2274926Y621289D2*
X2278728Y617486D1*
X2280674Y613639D1*
Y607891D1*
X2278728Y604089D1*
X2274926Y600242D1*
X2269178Y598341D1*
X2265331D1*
X2259627Y600242D1*
X2255780Y604089D1*
X2253879Y607891D1*
Y613639D1*
X2255780Y617486D1*
X2259627Y621289D1*
X2282575Y633640D2*
X2255780D1*
X2274926D2*
X2280674Y639388D1*
X2282575Y643235D1*
Y648939D1*
X2280674Y652785D1*
X2274926Y654687D1*
X2255780D1*
X2271079Y667038D2*
Y689986D1*
X2274926D1*
X2278773Y688085D1*
X2280674Y686183D1*
X2282575Y682337D1*
Y676589D1*
X2280674Y672786D1*
X2276827Y668939D1*
X2271079Y667038D1*
X2267276D1*
X2261528Y668939D1*
X2257726Y672786D1*
X2255780Y676589D1*
Y682337D1*
X2257726Y686183D1*
X2261528Y689986D1*
X2295972Y725285D2*
X2255780D1*
X2276827D2*
X2280674Y721483D1*
X2282575Y717636D1*
Y711888D1*
X2280674Y708085D1*
X2276827Y704239D1*
X2271079Y702337D1*
X2267276D1*
X2261528Y704239D1*
X2257726Y708085D1*
X2255780Y711888D1*
Y717636D1*
X2257726Y721483D1*
X2261528Y725285D1*
X2295972Y776517D2*
X2255780D1*
X2276827D2*
X2280674Y780364D1*
X2282575Y784167D1*
Y789915D1*
X2280674Y793717D1*
X2276827Y797564D1*
X2271079Y799465D1*
X2267276D1*
X2261528Y797564D1*
X2257726Y793717D1*
X2255780Y789915D1*
Y784167D1*
X2257726Y780364D1*
X2261528Y776517D1*
X2282575Y813762D2*
X2255780Y825214D1*
X2248131Y821411D1*
X2244284Y817565D1*
X2242383Y813762D1*
Y811817D1*
X2282575Y836710D2*
X2255780Y825214D1*
X2282575Y851007D2*
X2280630Y849061D1*
X2278728Y851007D1*
X2280630Y852908D1*
X2282575Y851007D1*
X2259627D2*
X2257682Y849061D1*
X2255780Y851007D1*
X2257682Y852908D1*
X2259627Y851007D1*
X2168280Y502739D2*
X2208472D1*
X2168280Y487441D1*
X2208472Y472142D1*
X2168280D1*
X2195075Y538039D2*
X2168280D1*
X2189327D2*
X2193174Y534236D1*
X2195075Y530389D1*
Y524686D1*
X2193174Y520839D1*
X2189327Y517036D1*
X2183579Y515091D1*
X2179776D1*
X2174028Y517036D1*
X2170226Y520839D1*
X2168280Y524686D1*
Y530389D1*
X2170226Y534236D1*
X2174028Y538039D1*
X2195075Y550390D2*
X2168280D1*
X2183579D2*
X2189327Y552336D1*
X2193174Y556138D1*
X2195075Y559985D1*
Y565733D1*
X2208472Y578084D2*
X2168280D1*
X2195075Y597230D2*
X2175930Y578084D1*
X2183579Y585734D2*
X2168280Y599131D1*
X2170182Y615329D2*
X2168280Y613384D1*
X2170182Y611482D1*
X2172127Y613384D1*
X2170182Y615329D1*
X2166379D1*
X2162532Y613384D1*
X2160631Y611482D1*
X2208472Y666561D2*
X2168280D1*
Y679959D1*
X2170226Y685707D1*
X2174028Y689553D1*
X2177875Y691455D1*
X2183579Y693356D1*
X2193174D1*
X2198922Y691455D1*
X2202724Y689553D1*
X2206571Y685707D1*
X2208472Y679959D1*
Y666561D1*
X2183579Y705707D2*
Y728655D1*
X2187426D1*
X2191273Y726754D1*
X2193174Y724853D1*
X2195075Y721006D1*
Y715258D1*
X2193174Y711455D1*
X2189327Y707609D1*
X2183579Y705707D1*
X2179776D1*
X2174028Y707609D1*
X2170226Y711455D1*
X2168280Y715258D1*
Y721006D1*
X2170226Y724853D1*
X2174028Y728655D1*
X2195075Y741007D2*
X2168280D1*
X2183579D2*
X2189327Y742952D1*
X2193174Y746755D1*
X2195075Y750601D1*
Y756350D1*
X2183579Y768701D2*
Y791649D1*
X2187426D1*
X2191273Y789748D1*
X2193174Y787846D1*
X2195075Y784000D1*
Y778251D1*
X2193174Y774449D1*
X2189327Y770602D1*
X2183579Y768701D1*
X2179776D1*
X2174028Y770602D1*
X2170226Y774449D1*
X2168280Y778251D1*
Y784000D1*
X2170226Y787846D1*
X2174028Y791649D1*
X2208472Y804000D2*
X2168280D1*
X2195075Y823146D2*
X2175930Y804000D1*
X2183579Y811650D2*
X2168280Y825047D1*
X2170182Y841245D2*
X2168280Y839300D1*
X2170182Y837398D1*
X2172127Y839300D1*
X2170182Y841245D1*
X2166379D1*
X2162532Y839300D1*
X2160631Y837398D1*
X2208472Y892477D2*
X2168280D1*
X2208472Y919272D2*
X2168280D1*
X2189327Y892477D2*
Y919272D1*
X2183579Y931623D2*
Y954571D1*
X2187426D1*
X2191272Y952670D1*
X2193174Y950769D1*
X2195075Y946922D1*
Y941174D1*
X2193174Y937371D1*
X2189327Y933525D1*
X2183579Y931623D1*
X2179776D1*
X2174028Y933525D1*
X2170226Y937371D1*
X2168280Y941174D1*
Y946922D1*
X2170226Y950769D1*
X2174028Y954571D1*
X2195075Y966923D2*
X2168280D1*
X2187426D2*
X2193174Y972671D1*
X2195075Y976517D1*
Y982221D1*
X2193174Y986068D1*
X2187426Y987969D1*
X2168280D1*
X2195075Y1000321D2*
X2168280D1*
X2183579D2*
X2189327Y1002266D1*
X2193174Y1006069D1*
X2195075Y1009915D1*
Y1015663D1*
Y1029960D2*
X2168280Y1041412D1*
X2160631Y1037610D1*
X2156784Y1033763D1*
X2154883Y1029960D1*
Y1028015D1*
X2195075Y1052908D2*
X2168280Y1041412D1*
M02*
