M48
INCH
T01C0.022
T02C0.0354
T03C0.038
T04C0.0394
T05C0.04
T06C0.0433
T07C0.044
T08C0.1575
%
T01
X+011984Y+013985
X+014984Y+013985
T02
X+004627Y+005128
X+004627Y+006128
X+004627Y+007128
X+004627Y+008128
X+004627Y+009128
X+004627Y+010128
X+004627Y+011128
X+004627Y+012128
X+004627Y+013128
X+004627Y+014128
T03
X+017003Y+014690
X+016003Y+014690
X+014940Y+014690
X+013940Y+014690
X+019315Y+014315
X+020690Y+014315
X+022065Y+014315
X+023440Y+014315
X+017046Y+004547
X+016046Y+004547
X+013065Y+004940
X+013065Y+005940
X+010940Y+005940
X+010940Y+004940
T04
X+009412Y+014128
X+010753Y+014128
X+007656Y+014128
X+006315Y+014128
T05
X+006984Y+005172
X+006984Y+006172
X+006984Y+007172
X+006984Y+008172
X+006984Y+009172
X+006984Y+010172
X+006984Y+011172
X+006984Y+012172
T06
X+019982Y+013110
X+018982Y+013110
X+017982Y+013110
X+016982Y+013110
X+015982Y+013110
X+014982Y+013110
X+013982Y+013110
X+012982Y+013110
X+011982Y+013110
X+010982Y+013110
X+009982Y+013110
X+008982Y+013110
X+008982Y+007110
X+009982Y+007110
X+010982Y+007110
X+011982Y+007110
X+012982Y+007110
X+013982Y+007110
X+014982Y+007110
X+015982Y+007110
X+016982Y+007110
X+017982Y+007110
X+018982Y+007110
X+019982Y+007110
X+016532Y+008260
X+015532Y+008260
T07
X+013984Y+005422
X+014984Y+006110
X+016984Y+005422
X+017984Y+006110
T08
X+015815Y+011065
X+010815Y+009065
X+022815Y+009565
T00
M30
