G04 DipTrace 3.0.0.2*
G04 Top.gbr*
%MOIN*%
G04 #@! TF.FileFunction,Copper,L1,Top*
G04 #@! TF.Part,Single*
G04 #@! TA.AperFunction,Conductor*
%ADD14C,0.03*%
%ADD15C,0.02*%
G04 #@! TA.AperFunction,ComponentPad*
%ADD16C,0.05*%
G04 #@! TA.AperFunction,CopperBalancing*
%ADD17C,0.025*%
%ADD19R,0.177559X0.06811*%
%ADD20R,0.05315X0.14252*%
G04 #@! TA.AperFunction,ComponentPad*
%ADD21C,0.08*%
%ADD22R,0.06X0.06*%
%ADD23C,0.06*%
%ADD25C,0.075*%
%ADD26C,0.075*%
%ADD27C,0.05*%
%ADD28C,0.059055*%
%ADD29R,0.059055X0.059055*%
%ADD31R,0.07874X0.07874*%
%ADD32C,0.07874*%
%ADD33R,0.066929X0.066929*%
%ADD34C,0.066929*%
%ADD35C,0.066929*%
%FSLAX26Y26*%
G04*
G70*
G90*
G75*
G01*
G04 Top*
%LPD*%
X1998181Y710953D2*
D14*
Y729430D1*
X2031500Y762749D1*
X2162751D1*
X2205419Y720081D1*
Y644983D1*
X1298181Y710953D2*
Y602319D1*
X1306500Y594000D1*
X698379Y617226D2*
D15*
X717226D1*
X794000Y694000D1*
Y931500D1*
X969000Y1106500D1*
X1293728D1*
X1498181Y1310953D1*
X698379Y617226D2*
X693904Y612751D1*
X462749D1*
X1898181Y710953D2*
D14*
Y702319D1*
X1969000Y631500D1*
X2073825D1*
X2087308Y644983D1*
X1798375Y610950D2*
Y611147D1*
X1898181Y710953D1*
X1698375Y542201D2*
D15*
X1504701D1*
X1394000Y431500D1*
X1306500D1*
X1094000D1*
X784105D1*
X698379Y517226D1*
X1698375Y542201D2*
D14*
X1704627Y535949D1*
Y454701D1*
X1094000Y494000D2*
D15*
Y431500D1*
X1306500Y494000D2*
Y431500D1*
X698379Y917226D2*
X693904Y912751D1*
X462749D1*
X698379Y817226D2*
X693904Y812751D1*
X462749D1*
X698379Y717226D2*
X693904Y712751D1*
X462749D1*
X1075251Y1412751D2*
D14*
Y1388022D1*
X998181Y1310953D1*
X1198181Y710953D2*
Y698181D1*
X1094000Y594000D1*
X1600251Y1468999D2*
D16*
Y1313022D1*
X1598181Y1310953D1*
X698379Y1017226D2*
D15*
Y1010879D1*
X831500Y1144000D1*
X1231228D1*
X1398181Y1310953D1*
X698379Y1017226D2*
X693904Y1012751D1*
X462749D1*
X698379Y1117226D2*
Y1110879D1*
X769000Y1181500D1*
X1168728D1*
X1298181Y1310953D1*
X698379Y1117226D2*
X693904Y1112751D1*
X462749D1*
X698379Y1217226D2*
X1004454D1*
X1098181Y1310953D1*
X698379Y1217226D2*
X693904Y1212751D1*
X462749D1*
X765593Y1412751D2*
D14*
X796383D1*
X898181Y1310953D1*
X1198378Y1398453D2*
D16*
Y1311150D1*
X1198181Y1310953D1*
X1471500Y1462882D2*
D17*
X1516525D1*
X1471500Y1438012D2*
X1516525D1*
X1471500Y1413144D2*
X1516525D1*
X1471500Y1388276D2*
X1516525D1*
X1506500Y1487751D2*
X1469000D1*
Y1381501D1*
X1519000Y1381499D1*
Y1487751D1*
X1506500D1*
D19*
X1944001Y518999D3*
D20*
X2087308Y644983D3*
D19*
X2348529Y518999D3*
D20*
X2205419Y644983D3*
D21*
X698379Y517226D3*
Y617226D3*
Y717226D3*
Y817226D3*
Y917226D3*
Y1017226D3*
Y1117226D3*
Y1217226D3*
D22*
X1700251Y1468999D3*
D23*
X1600251D3*
D22*
X1394000Y1469001D3*
D23*
X1494000D3*
D22*
X1306500Y594000D3*
D23*
Y494000D3*
D22*
X1094000Y594000D3*
D23*
Y494000D3*
D22*
X1604627Y454701D3*
D23*
X1704627D3*
D25*
X1398375Y542201D3*
D26*
X1698375D3*
D16*
X1198378Y1398453D3*
D27*
X1498378D3*
D25*
X1498375Y610950D3*
D26*
X1798375D3*
D28*
X462749Y512751D3*
Y612751D3*
Y712751D3*
Y812751D3*
Y912751D3*
Y1012751D3*
Y1112751D3*
Y1212751D3*
Y1312751D3*
D29*
Y1412751D3*
D31*
X941156D3*
D32*
X1075251D3*
D31*
X631499D3*
D32*
X765593D3*
D23*
X2344000Y1431500D3*
X2206500D3*
X2069000D3*
X1931500D3*
D33*
X1998181Y1310953D3*
D34*
X1898181D3*
X1798181D3*
X1698181D3*
X1598181D3*
X1498181D3*
X1398181D3*
X1298181D3*
X1198181D3*
X1098181D3*
X998181D3*
X898181D3*
D35*
X1998181Y710953D3*
D34*
X1898181D3*
X1798181D3*
X1698181D3*
X1598181D3*
X1498181D3*
X1398181D3*
X1298181D3*
X1198181D3*
X1098181D3*
X998181D3*
X898181D3*
X1653181Y825953D3*
X1553181D3*
M02*
