G04 DipTrace 3.0.0.2*
G04 TopDimension.gbr*
%MOIN*%
G04 #@! TF.FileFunction,Drawing,Top*
G04 #@! TF.Part,Single*
%ADD13C,0.001378*%
%ADD82C,0.006176*%
%FSLAX26Y26*%
G04*
G70*
G90*
G75*
G01*
G04 TopDimension*
%LPD*%
X394000Y394000D2*
D13*
X5564D1*
X394000Y1544000D2*
X5564D1*
X25249Y969000D2*
Y433370D1*
G36*
Y394000D2*
X17375Y433370D1*
X33123D1*
X25249Y394000D1*
G37*
Y969000D2*
D13*
Y1504630D1*
G36*
Y1544000D2*
X33123Y1504630D1*
X17375D1*
X25249Y1544000D1*
G37*
X394000Y394000D2*
D13*
Y18066D1*
X2464000Y394000D2*
Y18066D1*
X1429000Y37751D2*
X433370D1*
G36*
X394000D2*
X433370Y45625D1*
Y29877D1*
X394000Y37751D1*
G37*
X1429000D2*
D13*
X2424630D1*
G36*
X2464000D2*
X2424630Y29877D1*
Y45625D1*
X2464000Y37751D1*
G37*
X1581500Y1106500D2*
D13*
Y1638685D1*
X2281500Y956500D2*
Y1638685D1*
X1931500Y1619000D2*
X1620870D1*
G36*
X1581500D2*
X1620870Y1626874D1*
Y1611126D1*
X1581500Y1619000D1*
G37*
X1931500D2*
D13*
X2242130D1*
G36*
X2281500D2*
X2242130Y1611126D1*
Y1626874D1*
X2281500Y1619000D1*
G37*
X1581500Y1106500D2*
D13*
X2613685D1*
X2281500Y956500D2*
X2613685D1*
X2594000Y1106500D2*
Y956500D1*
Y1165555D2*
Y1145870D1*
G36*
Y1106500D2*
X2586126Y1145870D1*
X2601874D1*
X2594000Y1106500D1*
G37*
Y897445D2*
D13*
Y917130D1*
G36*
Y956500D2*
X2601874Y917130D1*
X2586126D1*
X2594000Y956500D1*
G37*
X1081500Y906500D2*
D13*
X2901185D1*
X1581500Y1106500D2*
X2901185D1*
X2881500D2*
Y906500D1*
Y1165555D2*
Y1145870D1*
G36*
Y1106500D2*
X2873626Y1145870D1*
X2889374D1*
X2881500Y1106500D1*
G37*
Y847445D2*
D13*
Y867130D1*
G36*
Y906500D2*
X2889374Y867130D1*
X2873626D1*
X2881500Y906500D1*
G37*
X1581500Y1106500D2*
D13*
Y1638685D1*
X1081500Y906500D2*
Y1638685D1*
X1331500Y1619000D2*
X1542130D1*
G36*
X1581500D2*
X1542130Y1611126D1*
Y1626874D1*
X1581500Y1619000D1*
G37*
X1331500D2*
D13*
X1120870D1*
G36*
X1081500D2*
X1120870Y1626874D1*
Y1611126D1*
X1081500Y1619000D1*
G37*
X-19460Y917171D2*
D82*
X-21405Y921018D1*
X-27109Y926766D1*
X13039D1*
X-19460Y939117D2*
X-21405Y942964D1*
X-27109Y948712D1*
X13039D1*
X-27109Y984012D2*
Y964910D1*
X-9909Y963009D1*
X-11811Y964910D1*
X-13756Y970658D1*
Y976362D1*
X-11811Y982110D1*
X-8008Y985957D1*
X-2260Y987858D1*
X1543D1*
X7291Y985957D1*
X11137Y982110D1*
X13039Y976362D1*
Y970658D1*
X11137Y964910D1*
X9192Y963009D1*
X5389Y961064D1*
X-27109Y1011706D2*
X-25208Y1005958D1*
X-19460Y1002111D1*
X-9909Y1000210D1*
X-4161D1*
X5389Y1002111D1*
X11137Y1005958D1*
X13039Y1011706D1*
Y1015508D1*
X11137Y1021256D1*
X5389Y1025059D1*
X-4161Y1027004D1*
X-9909D1*
X-19460Y1025059D1*
X-25208Y1021256D1*
X-27109Y1015508D1*
Y1011706D1*
X-19460Y1025059D2*
X5389Y1002111D1*
X1361917Y80559D2*
Y82460D1*
X1363818Y86307D1*
X1365719Y88208D1*
X1369566Y90109D1*
X1377216D1*
X1381018Y88208D1*
X1382919Y86307D1*
X1384865Y82460D1*
Y78657D1*
X1382919Y74811D1*
X1379117Y69107D1*
X1359971Y49961D1*
X1386766D1*
X1410614Y90109D2*
X1404866Y88208D1*
X1401019Y82460D1*
X1399117Y72909D1*
Y67161D1*
X1401019Y57611D1*
X1404866Y51863D1*
X1410614Y49961D1*
X1414416D1*
X1420164Y51863D1*
X1423967Y57611D1*
X1425912Y67161D1*
Y72909D1*
X1423967Y82460D1*
X1420164Y88208D1*
X1414416Y90109D1*
X1410614D1*
X1423967Y82460D2*
X1401019Y57611D1*
X1445913Y49961D2*
X1465058Y90109D1*
X1438264D1*
X1488906D2*
X1483158Y88208D1*
X1479311Y82460D1*
X1477410Y72909D1*
Y67161D1*
X1479311Y57611D1*
X1483158Y51863D1*
X1488906Y49961D1*
X1492708D1*
X1498456Y51863D1*
X1502259Y57611D1*
X1504204Y67161D1*
Y72909D1*
X1502259Y82460D1*
X1498456Y88208D1*
X1492708Y90109D1*
X1488906D1*
X1502259Y82460D2*
X1479311Y57611D1*
X1889694Y1631211D2*
X1908839Y1671359D1*
X1882044D1*
X1932687D2*
X1926939Y1669457D1*
X1923092Y1663709D1*
X1921191Y1654159D1*
Y1648411D1*
X1923092Y1638860D1*
X1926939Y1633112D1*
X1932687Y1631211D1*
X1936489D1*
X1942237Y1633112D1*
X1946040Y1638860D1*
X1947985Y1648411D1*
Y1654159D1*
X1946040Y1663709D1*
X1942237Y1669457D1*
X1936489Y1671359D1*
X1932687D1*
X1946040Y1663709D2*
X1923092Y1638860D1*
X1971833Y1671359D2*
X1966085Y1669457D1*
X1962238Y1663709D1*
X1960337Y1654159D1*
Y1648411D1*
X1962238Y1638860D1*
X1966085Y1633112D1*
X1971833Y1631211D1*
X1975635D1*
X1981383Y1633112D1*
X1985186Y1638860D1*
X1987131Y1648411D1*
Y1654159D1*
X1985186Y1663709D1*
X1981383Y1669457D1*
X1975635Y1671359D1*
X1971833D1*
X1985186Y1663709D2*
X1962238Y1638860D1*
X2638709Y1072356D2*
X2640655Y1068509D1*
X2646359Y1062761D1*
X2606211D1*
X2646359Y1027462D2*
Y1046563D1*
X2629159Y1048464D1*
X2631060Y1046563D1*
X2633005Y1040815D1*
Y1035111D1*
X2631060Y1029363D1*
X2627257Y1025516D1*
X2621509Y1023615D1*
X2617707D1*
X2611959Y1025516D1*
X2608112Y1029363D1*
X2606211Y1035111D1*
Y1040815D1*
X2608112Y1046563D1*
X2610058Y1048464D1*
X2613860Y1050409D1*
X2646359Y999767D2*
X2644457Y1005515D1*
X2638709Y1009362D1*
X2629159Y1011263D1*
X2623411D1*
X2613860Y1009362D1*
X2608112Y1005515D1*
X2606211Y999767D1*
Y995965D1*
X2608112Y990217D1*
X2613860Y986414D1*
X2623411Y984469D1*
X2629159D1*
X2638709Y986414D1*
X2644457Y990217D1*
X2646359Y995965D1*
Y999767D1*
X2638709Y986414D2*
X2613860Y1009362D1*
X2924308Y1054010D2*
X2926209D1*
X2930056Y1052109D1*
X2931957Y1050208D1*
X2933859Y1046361D1*
Y1038711D1*
X2931957Y1034909D1*
X2930056Y1033008D1*
X2926209Y1031062D1*
X2922407D1*
X2918560Y1033008D1*
X2912856Y1036810D1*
X2893711Y1055956D1*
Y1029161D1*
X2933859Y1005313D2*
X2931957Y1011061D1*
X2926209Y1014908D1*
X2916659Y1016809D1*
X2910911D1*
X2901360Y1014908D1*
X2895612Y1011061D1*
X2893711Y1005313D1*
Y1001511D1*
X2895612Y995763D1*
X2901360Y991960D1*
X2910911Y990015D1*
X2916659D1*
X2926209Y991960D1*
X2931957Y995763D1*
X2933859Y1001511D1*
Y1005313D1*
X2926209Y991960D2*
X2901360Y1014908D1*
X2933859Y966167D2*
X2931957Y971915D1*
X2926209Y975762D1*
X2916659Y977663D1*
X2910911D1*
X2901360Y975762D1*
X2895612Y971915D1*
X2893711Y966167D1*
Y962365D1*
X2895612Y956617D1*
X2901360Y952814D1*
X2910911Y950869D1*
X2916659D1*
X2926209Y952814D1*
X2931957Y956617D1*
X2933859Y962365D1*
Y966167D1*
X2926209Y952814D2*
X2901360Y975762D1*
X1304992Y1671359D2*
X1285891D1*
X1283990Y1654159D1*
X1285891Y1656060D1*
X1291639Y1658005D1*
X1297343D1*
X1303091Y1656060D1*
X1306938Y1652257D1*
X1308839Y1646509D1*
Y1642707D1*
X1306938Y1636959D1*
X1303091Y1633112D1*
X1297343Y1631211D1*
X1291639D1*
X1285891Y1633112D1*
X1283990Y1635058D1*
X1282044Y1638860D1*
X1332687Y1671359D2*
X1326939Y1669457D1*
X1323092Y1663709D1*
X1321191Y1654159D1*
Y1648411D1*
X1323092Y1638860D1*
X1326939Y1633112D1*
X1332687Y1631211D1*
X1336489D1*
X1342237Y1633112D1*
X1346040Y1638860D1*
X1347985Y1648411D1*
Y1654159D1*
X1346040Y1663709D1*
X1342237Y1669457D1*
X1336489Y1671359D1*
X1332687D1*
X1346040Y1663709D2*
X1323092Y1638860D1*
X1371833Y1671359D2*
X1366085Y1669457D1*
X1362238Y1663709D1*
X1360337Y1654159D1*
Y1648411D1*
X1362238Y1638860D1*
X1366085Y1633112D1*
X1371833Y1631211D1*
X1375635D1*
X1381383Y1633112D1*
X1385186Y1638860D1*
X1387131Y1648411D1*
Y1654159D1*
X1385186Y1663709D1*
X1381383Y1669457D1*
X1375635Y1671359D1*
X1371833D1*
X1385186Y1663709D2*
X1362238Y1638860D1*
M02*
