G04 DipTrace 3.0.0.2*
G04 TopMask.gbr*
%MOIN*%
G04 #@! TF.FileFunction,Soldermask,Top*
G04 #@! TF.Part,Single*
%ADD36C,0.15748*%
%ADD46C,0.074929*%
%ADD48C,0.074929*%
%ADD50R,0.074929X0.074929*%
%ADD52C,0.08674*%
%ADD54R,0.08674X0.08674*%
%ADD56R,0.067055X0.067055*%
%ADD58C,0.067055*%
%ADD60C,0.058*%
%ADD62C,0.058*%
%ADD64C,0.083*%
%ADD66C,0.083*%
%ADD70C,0.068*%
%ADD72R,0.068X0.068*%
%ADD74C,0.088*%
%ADD76R,0.06115X0.15052*%
%ADD78R,0.185559X0.07611*%
%FSLAX26Y26*%
G04*
G70*
G90*
G75*
G01*
G04 TopMask*
%LPD*%
D36*
X1581500Y1106500D3*
X2281500Y956500D3*
X1081500Y906500D3*
D78*
X1944001Y518999D3*
D76*
X2087308Y644983D3*
D78*
X2348529Y518999D3*
D76*
X2205419Y644983D3*
D74*
X698379Y517226D3*
Y617226D3*
Y717226D3*
Y817226D3*
Y917226D3*
Y1017226D3*
Y1117226D3*
Y1217226D3*
D72*
X1700251Y1468999D3*
D70*
X1600251D3*
D72*
X1394000Y1469001D3*
D70*
X1494000D3*
D72*
X1306500Y594000D3*
D70*
Y494000D3*
D72*
X1094000Y594000D3*
D70*
Y494000D3*
D72*
X1604627Y454701D3*
D70*
X1704627D3*
D66*
X1398375Y542201D3*
D64*
X1698375D3*
D62*
X1198378Y1398453D3*
D60*
X1498378D3*
D66*
X1498375Y610950D3*
D64*
X1798375D3*
D58*
X462749Y512751D3*
Y612751D3*
Y712751D3*
Y812751D3*
Y912751D3*
Y1012751D3*
Y1112751D3*
Y1212751D3*
Y1312751D3*
D56*
Y1412751D3*
D54*
X941156D3*
D52*
X1075251D3*
D54*
X631499D3*
D52*
X765593D3*
D70*
X2344000Y1431500D3*
X2206500D3*
X2069000D3*
X1931500D3*
D50*
X1998181Y1310953D3*
D48*
X1898181D3*
X1798181D3*
X1698181D3*
X1598181D3*
X1498181D3*
X1398181D3*
X1298181D3*
X1198181D3*
X1098181D3*
X998181D3*
X898181D3*
D46*
X1998181Y710953D3*
D48*
X1898181D3*
X1798181D3*
X1698181D3*
X1598181D3*
X1498181D3*
X1398181D3*
X1298181D3*
X1198181D3*
X1098181D3*
X998181D3*
X898181D3*
X1653181Y825953D3*
X1553181D3*
M02*
