G04 DipTrace 3.0.0.2*
G04 Bottom.gbr*
%MOIN*%
G04 #@! TF.FileFunction,Copper,L2,Bot*
G04 #@! TF.Part,Single*
G04 #@! TA.AperFunction,CopperBalancing*
%ADD15C,0.025*%
%ADD18R,0.07874X0.19685*%
G04 #@! TA.AperFunction,ComponentPad*
%ADD19C,0.059055*%
%ADD22R,0.082677X0.055118*%
%ADD24R,0.12X0.127*%
G04 #@! TA.AperFunction,ComponentPad*
%ADD27C,0.051181*%
%ADD29C,0.11811*%
%ADD30C,0.07874*%
%ADD31R,0.059055X0.059055*%
%ADD32C,0.059055*%
%ADD33C,0.15748*%
%FSLAX26Y26*%
G04*
G70*
G90*
G75*
G01*
G04 Bottom*
%LPD*%
X1903507Y3494131D2*
D15*
X2041525D1*
X1868937Y3469262D2*
X2041525D1*
X1834415Y3444394D2*
X1960958D1*
X1799894Y3419525D2*
X1935177D1*
X1765323Y3394656D2*
X1909445D1*
X1730802Y3369787D2*
X1883663D1*
X1696231Y3344919D2*
X1857930D1*
X1661710Y3320050D2*
X1832150D1*
X1627189Y3295181D2*
X1806417D1*
X1592618Y3270312D2*
X1780635D1*
X1558097Y3245444D2*
X1754903D1*
X1523575Y3220575D2*
X1729122D1*
X1489005Y3195706D2*
X1703390D1*
X1454483Y3170837D2*
X1677609D1*
X1419913Y3145969D2*
X1651875D1*
X1385391Y3121100D2*
X1626094D1*
X1350870Y3096231D2*
X1600362D1*
X1316299Y3071362D2*
X1574581D1*
X1281778Y3046493D2*
X1548849D1*
X1247257Y3021625D2*
X1523067D1*
X1212686Y2996756D2*
X1497335D1*
X1178165Y2971887D2*
X1471554D1*
X1143594Y2947018D2*
X1445822D1*
X1109073Y2922150D2*
X1420041D1*
X1074551Y2897281D2*
X1394307D1*
X1039982Y2872412D2*
X1368526D1*
X1005459Y2847543D2*
X1342794D1*
X646500Y2822675D2*
X1317013D1*
X646500Y2797806D2*
X1291281D1*
X646500Y2772937D2*
X1265499D1*
X646500Y2748068D2*
X1239766D1*
X646500Y2723199D2*
X1227218D1*
X646500Y2698331D2*
X1216525D1*
X646500Y2673462D2*
X1216525D1*
X646500Y2648593D2*
X1216525D1*
X646500Y2623724D2*
X1216525D1*
X646500Y2598856D2*
X1216525D1*
X646500Y2573987D2*
X1216525D1*
X646500Y2549118D2*
X1216525D1*
X646500Y2524249D2*
X1216525D1*
X646500Y2499381D2*
X1216525D1*
X646500Y2474512D2*
X1216525D1*
X646500Y2449643D2*
X1003194D1*
X1155265D2*
X1216525D1*
X646500Y2424774D2*
X975899D1*
X1182559D2*
X1216525D1*
X646500Y2399906D2*
X959738D1*
X1198722D2*
X1216525D1*
X646500Y2375037D2*
X950362D1*
X646500Y2350168D2*
X946261D1*
X646500Y2325299D2*
X946993D1*
X646500Y2300430D2*
X952609D1*
X646500Y2275562D2*
X963887D1*
X1194621D2*
X1216525D1*
X646500Y2250693D2*
X982735D1*
X1175773D2*
X1216525D1*
X646500Y2225824D2*
X1015890D1*
X1142570D2*
X1216525D1*
X646500Y2200955D2*
X1216525D1*
X646500Y2176087D2*
X1216525D1*
X646500Y2151218D2*
X1216525D1*
X646500Y2126349D2*
X1216525D1*
X646500Y2101480D2*
X1216525D1*
X646500Y2076612D2*
X1216525D1*
X646500Y2051743D2*
X1216525D1*
X646500Y2026874D2*
X1216525D1*
X646500Y2002005D2*
X1216525D1*
X646500Y1977136D2*
X1216525D1*
X646500Y1952268D2*
X1216525D1*
X646500Y1927399D2*
X1216525D1*
X646500Y1902530D2*
X1216525D1*
X646500Y1877661D2*
X1216525D1*
X646500Y1852793D2*
X1216525D1*
X646500Y1827924D2*
X1216525D1*
X646500Y1803055D2*
X1216525D1*
X646500Y1778186D2*
X1216525D1*
X646500Y1753318D2*
X1216525D1*
X646500Y1728449D2*
X1216525D1*
X646500Y1703580D2*
X1029415D1*
X1129043D2*
X1216525D1*
X646500Y1678711D2*
X989083D1*
X1169375D2*
X1216525D1*
X646500Y1653843D2*
X967697D1*
X1190762D2*
X1216525D1*
X646500Y1628974D2*
X954854D1*
X1203654D2*
X1216525D1*
X646500Y1604105D2*
X947921D1*
X646500Y1579236D2*
X946017D1*
X646500Y1554367D2*
X948898D1*
X646500Y1529499D2*
X956857D1*
X1201602D2*
X1216525D1*
X646500Y1504630D2*
X971114D1*
X1187345D2*
X1216525D1*
X646500Y1479761D2*
X994845D1*
X1163614D2*
X1216525D1*
X646500Y1454892D2*
X1044894D1*
X1113566D2*
X1216525D1*
X646500Y1430024D2*
X1216525D1*
X646500Y1405155D2*
X1216525D1*
X2044000Y3508906D2*
X2034196Y3505707D1*
X2024106Y3504110D1*
X2013894D1*
X2003804Y3505707D1*
X1994091Y3508864D1*
X1984991Y3513501D1*
X1977339Y3519022D1*
X1935552Y3519000D1*
X999627Y2845339D1*
X995903Y2844146D1*
X969000Y2844000D1*
X644000D1*
Y1381500D1*
X1219000D1*
X1219154Y2695955D1*
X1220362Y2699675D1*
X1222661Y2702839D1*
X1229539Y2709014D1*
X1229622Y2722100D1*
X1230592Y2728220D1*
X1232507Y2734115D1*
X1235320Y2739639D1*
X1238965Y2744654D1*
X1268541Y2773463D1*
X1968878Y3449482D1*
X1973955Y3453037D1*
X1979526Y3455753D1*
X1985454Y3457564D1*
X1991592Y3458427D1*
X2044012Y3458500D1*
X2044000Y3508892D1*
X1209575Y2331282D2*
X1208367Y2321087D1*
X1206365Y2311018D1*
X1203579Y2301138D1*
X1200025Y2291507D1*
X1195728Y2282184D1*
X1190711Y2273227D1*
X1185008Y2264692D1*
X1178652Y2256630D1*
X1171685Y2249091D1*
X1164146Y2242123D1*
X1156084Y2235768D1*
X1147549Y2230064D1*
X1138592Y2225047D1*
X1129269Y2220751D1*
X1119638Y2217197D1*
X1109757Y2214411D1*
X1099689Y2212408D1*
X1089493Y2211201D1*
X1079236Y2210798D1*
X1068979Y2211201D1*
X1058783Y2212408D1*
X1048715Y2214411D1*
X1038835Y2217197D1*
X1029203Y2220751D1*
X1019881Y2225047D1*
X1010924Y2230064D1*
X1002388Y2235768D1*
X994327Y2242123D1*
X986787Y2249091D1*
X979820Y2256630D1*
X973465Y2264692D1*
X967761Y2273227D1*
X962744Y2282184D1*
X958448Y2291507D1*
X954894Y2301138D1*
X952108Y2311018D1*
X950105Y2321087D1*
X948898Y2331282D1*
X948495Y2341539D1*
X948898Y2351797D1*
X950105Y2361992D1*
X952108Y2372060D1*
X954894Y2381941D1*
X958448Y2391572D1*
X962744Y2400895D1*
X967761Y2409852D1*
X973465Y2418387D1*
X979820Y2426449D1*
X986787Y2433988D1*
X994327Y2440955D1*
X1002388Y2447311D1*
X1010924Y2453014D1*
X1019881Y2458031D1*
X1029203Y2462328D1*
X1038835Y2465882D1*
X1048715Y2468668D1*
X1058783Y2470671D1*
X1068979Y2471878D1*
X1079236Y2472281D1*
X1089493Y2471878D1*
X1099689Y2470671D1*
X1109757Y2468668D1*
X1119638Y2465882D1*
X1129269Y2462328D1*
X1138592Y2458031D1*
X1147549Y2453014D1*
X1156084Y2447311D1*
X1164146Y2440955D1*
X1171685Y2433988D1*
X1178652Y2426449D1*
X1185008Y2418387D1*
X1190711Y2409852D1*
X1195728Y2400895D1*
X1200025Y2391572D1*
X1203579Y2381941D1*
X1206365Y2372060D1*
X1208367Y2361992D1*
X1209575Y2351797D1*
X1209978Y2341539D1*
X1209575Y2331282D1*
Y1571440D2*
X1208367Y1561244D1*
X1206365Y1551176D1*
X1203579Y1541295D1*
X1200025Y1531664D1*
X1195728Y1522341D1*
X1190711Y1513385D1*
X1185008Y1504849D1*
X1178652Y1496787D1*
X1171685Y1489248D1*
X1164146Y1482281D1*
X1156084Y1475925D1*
X1147549Y1470222D1*
X1138592Y1465205D1*
X1129269Y1460908D1*
X1119638Y1457354D1*
X1109757Y1454568D1*
X1099689Y1452566D1*
X1089493Y1451358D1*
X1079236Y1450955D1*
X1068979Y1451358D1*
X1058783Y1452566D1*
X1048715Y1454568D1*
X1038835Y1457354D1*
X1029203Y1460908D1*
X1019881Y1465205D1*
X1010924Y1470222D1*
X1002388Y1475925D1*
X994327Y1482281D1*
X986787Y1489248D1*
X979820Y1496787D1*
X973465Y1504849D1*
X967761Y1513385D1*
X962744Y1522341D1*
X958448Y1531664D1*
X954894Y1541295D1*
X952108Y1551176D1*
X950105Y1561244D1*
X948898Y1571440D1*
X948495Y1581697D1*
X948898Y1591954D1*
X950105Y1602150D1*
X952108Y1612218D1*
X954894Y1622098D1*
X958448Y1631730D1*
X962744Y1641052D1*
X967761Y1650009D1*
X973465Y1658545D1*
X979820Y1666606D1*
X986787Y1674146D1*
X994327Y1681113D1*
X1002388Y1687469D1*
X1010924Y1693172D1*
X1019881Y1698189D1*
X1029203Y1702486D1*
X1038835Y1706039D1*
X1048715Y1708825D1*
X1058783Y1710828D1*
X1068979Y1712035D1*
X1079236Y1712438D1*
X1089493Y1712035D1*
X1099689Y1710828D1*
X1109757Y1708825D1*
X1119638Y1706039D1*
X1129269Y1702486D1*
X1138592Y1698189D1*
X1147549Y1693172D1*
X1156084Y1687469D1*
X1164146Y1681113D1*
X1171685Y1674146D1*
X1178652Y1666606D1*
X1185008Y1658545D1*
X1190711Y1650009D1*
X1195728Y1641052D1*
X1200025Y1631730D1*
X1203579Y1622098D1*
X1206365Y1612218D1*
X1208367Y1602150D1*
X1209575Y1591954D1*
X1209978Y1581697D1*
X1209575Y1571440D1*
X659000Y4056631D2*
X1358077D1*
X659000Y4031762D2*
X1403194D1*
X659000Y4006894D2*
X1448262D1*
X659000Y3982025D2*
X1026730D1*
X1131730D2*
X1493379D1*
X659000Y3957156D2*
X987911D1*
X1170547D2*
X1538449D1*
X659000Y3932287D2*
X967013D1*
X1191495D2*
X1583566D1*
X659000Y3907419D2*
X954415D1*
X1204043D2*
X1628634D1*
X659000Y3882550D2*
X947726D1*
X1210734D2*
X1673751D1*
X659000Y3857681D2*
X946066D1*
X1212442D2*
X1718819D1*
X659000Y3832812D2*
X949142D1*
X1209366D2*
X1763937D1*
X659000Y3807944D2*
X957345D1*
X1201114D2*
X1809005D1*
X659000Y3783075D2*
X971945D1*
X1186563D2*
X1854122D1*
X659000Y3758206D2*
X996211D1*
X1162247D2*
X1899239D1*
X659000Y3733337D2*
X1049581D1*
X1108927D2*
X1944307D1*
X659000Y3708469D2*
X1989425D1*
X659000Y3683600D2*
X2034493D1*
X659000Y3658731D2*
X2079610D1*
X659000Y3633862D2*
X2124678D1*
X659000Y3608993D2*
X2154073D1*
X659000Y3584125D2*
X2153194D1*
X659000Y3559256D2*
X1899971D1*
X2087101D2*
X2152121D1*
X659000Y3534387D2*
X1865450D1*
X2098379D2*
X2142647D1*
X659000Y3509518D2*
X1830879D1*
X2098478D2*
X2139522D1*
X659000Y3484650D2*
X1796358D1*
X2098478D2*
X2139522D1*
X659000Y3459781D2*
X1761789D1*
X2098478D2*
X2139522D1*
X659000Y3434912D2*
X1727266D1*
X2098478D2*
X2139522D1*
X659000Y3410043D2*
X1692745D1*
X2092130D2*
X2145870D1*
X659000Y3385175D2*
X1658175D1*
X2085978D2*
X2229025D1*
X659000Y3360306D2*
X1623654D1*
X2086026D2*
X2229025D1*
X659000Y3335437D2*
X1589131D1*
X2085978D2*
X2229025D1*
X659000Y3310568D2*
X1554562D1*
X659000Y3285699D2*
X1520041D1*
X659000Y3260831D2*
X1485470D1*
X659000Y3235962D2*
X1450949D1*
X659000Y3211093D2*
X1005635D1*
X1152823D2*
X1416427D1*
X659000Y3186224D2*
X977266D1*
X1181193D2*
X1381857D1*
X659000Y3161356D2*
X960567D1*
X1197891D2*
X1347335D1*
X659000Y3136487D2*
X950802D1*
X1207657D2*
X1312814D1*
X659000Y3111618D2*
X946407D1*
X1212101D2*
X1278243D1*
X659000Y3086749D2*
X946798D1*
X1211661D2*
X1243722D1*
X659000Y3061881D2*
X952121D1*
X659000Y3037012D2*
X962959D1*
X659000Y3012143D2*
X981173D1*
X659000Y2987274D2*
X1012911D1*
X659000Y2962406D2*
X1071017D1*
X659000Y2937537D2*
X1036495D1*
X659000Y2912668D2*
X1001925D1*
X2083890Y3363894D2*
X2083500Y3356500D1*
Y3331451D1*
X2231500Y3331500D1*
Y3392000D1*
X2178400Y3392122D1*
X2172280Y3393092D1*
X2166385Y3395007D1*
X2160861Y3397820D1*
X2155846Y3401463D1*
X2151463Y3405846D1*
X2147820Y3410861D1*
X2145007Y3416385D1*
X2143092Y3422280D1*
X2142122Y3428400D1*
X2142000Y3506500D1*
X2142122Y3522100D1*
X2143092Y3528220D1*
X2145007Y3534115D1*
X2147820Y3539639D1*
X2151463Y3544654D1*
X2156142Y3549269D1*
X2154711Y3558818D1*
X2153909Y3569000D1*
X2154711Y3579182D1*
X2156570Y3587251D1*
X2156563Y3617685D1*
X1330843Y4073028D1*
X1322304Y4073118D1*
X1316184Y4074088D1*
X1310289Y4076003D1*
X1304765Y4078816D1*
X1301891Y4080772D1*
X1281650Y4081262D1*
X656500Y4081500D1*
Y2896000D1*
X981256D1*
X1085081Y2970752D1*
X1068979Y2971043D1*
X1058783Y2972251D1*
X1048715Y2974253D1*
X1038835Y2977039D1*
X1029203Y2980593D1*
X1019881Y2984890D1*
X1010924Y2989907D1*
X1002388Y2995610D1*
X994327Y3001966D1*
X986787Y3008933D1*
X979820Y3016472D1*
X973465Y3024534D1*
X967761Y3033070D1*
X962744Y3042026D1*
X958448Y3051349D1*
X954894Y3060980D1*
X952108Y3070861D1*
X950105Y3080929D1*
X948898Y3091125D1*
X948495Y3101382D1*
X948898Y3111639D1*
X950105Y3121835D1*
X952108Y3131903D1*
X954894Y3141783D1*
X958448Y3151415D1*
X962744Y3160738D1*
X967761Y3169694D1*
X973465Y3178230D1*
X979820Y3186291D1*
X986787Y3193831D1*
X994327Y3200798D1*
X1002388Y3207154D1*
X1010924Y3212857D1*
X1019881Y3217874D1*
X1029203Y3222171D1*
X1038835Y3225724D1*
X1048715Y3228510D1*
X1058783Y3230513D1*
X1068979Y3231720D1*
X1079236Y3232123D1*
X1089493Y3231720D1*
X1099689Y3230513D1*
X1109757Y3228510D1*
X1119638Y3225724D1*
X1129269Y3222171D1*
X1138592Y3217874D1*
X1147549Y3212857D1*
X1156084Y3207154D1*
X1164146Y3200798D1*
X1171685Y3193831D1*
X1178652Y3186291D1*
X1185008Y3178230D1*
X1190711Y3169694D1*
X1195728Y3160738D1*
X1200025Y3151415D1*
X1203579Y3141783D1*
X1206365Y3131903D1*
X1208367Y3121835D1*
X1209575Y3111639D1*
X1209978Y3101382D1*
X1209575Y3091125D1*
X1208367Y3080929D1*
X1206365Y3070861D1*
X1203579Y3060980D1*
X1201094Y3054247D1*
X1911007Y3565268D1*
X1916541Y3568058D1*
X1922444Y3569948D1*
X1928570Y3570891D1*
X2019000Y3571000D1*
X2059600Y3570878D1*
X2065720Y3569908D1*
X2071615Y3567993D1*
X2077139Y3565180D1*
X2082154Y3561535D1*
X2086535Y3557154D1*
X2090180Y3552139D1*
X2092993Y3546615D1*
X2094908Y3540720D1*
X2095878Y3534600D1*
X2096000Y3456500D1*
X2095878Y3428400D1*
X2094908Y3422280D1*
X2092993Y3416385D1*
X2090180Y3410861D1*
X2086535Y3405846D1*
X2084785Y3403946D1*
X2083500Y3394000D1*
Y3377740D1*
X2084091Y3369000D1*
X2083890Y3363894D1*
X1209575Y3850967D2*
X1208367Y3840772D1*
X1206365Y3830703D1*
X1203579Y3820823D1*
X1200025Y3811192D1*
X1195728Y3801869D1*
X1190711Y3792912D1*
X1185008Y3784377D1*
X1178652Y3776315D1*
X1171685Y3768776D1*
X1164146Y3761808D1*
X1156084Y3755453D1*
X1147549Y3749749D1*
X1138592Y3744732D1*
X1129269Y3740436D1*
X1119638Y3736882D1*
X1109757Y3734096D1*
X1099689Y3732093D1*
X1089493Y3730886D1*
X1079236Y3730483D1*
X1068979Y3730886D1*
X1058783Y3732093D1*
X1048715Y3734096D1*
X1038835Y3736882D1*
X1029203Y3740436D1*
X1019881Y3744732D1*
X1010924Y3749749D1*
X1002388Y3755453D1*
X994327Y3761808D1*
X986787Y3768776D1*
X979820Y3776315D1*
X973465Y3784377D1*
X967761Y3792912D1*
X962744Y3801869D1*
X958448Y3811192D1*
X954894Y3820823D1*
X952108Y3830703D1*
X950105Y3840772D1*
X948898Y3850967D1*
X948495Y3861224D1*
X948898Y3871482D1*
X950105Y3881677D1*
X952108Y3891745D1*
X954894Y3901626D1*
X958448Y3911257D1*
X962744Y3920580D1*
X967761Y3929537D1*
X973465Y3938072D1*
X979820Y3946134D1*
X986787Y3953673D1*
X994327Y3960640D1*
X1002388Y3966996D1*
X1010924Y3972699D1*
X1019881Y3977717D1*
X1029203Y3982013D1*
X1038835Y3985567D1*
X1048715Y3988353D1*
X1058783Y3990356D1*
X1068979Y3991563D1*
X1079236Y3991966D1*
X1089493Y3991563D1*
X1099689Y3990356D1*
X1109757Y3988353D1*
X1119638Y3985567D1*
X1129269Y3982013D1*
X1138592Y3977717D1*
X1147549Y3972699D1*
X1156084Y3966996D1*
X1164146Y3960640D1*
X1171685Y3953673D1*
X1178652Y3946134D1*
X1185008Y3938072D1*
X1190711Y3929537D1*
X1195728Y3920580D1*
X1200025Y3911257D1*
X1203579Y3901626D1*
X1206365Y3891745D1*
X1208367Y3881677D1*
X1209575Y3871482D1*
X1209978Y3861224D1*
X1209575Y3850967D1*
X2104533Y2531631D2*
X2629025D1*
X1984000Y2506762D2*
X2011690D1*
X2076310D2*
X2629025D1*
X1984000Y2481894D2*
X2629025D1*
X1984000Y2457025D2*
X2629025D1*
X1984000Y2432156D2*
X2013693D1*
X2074307D2*
X2629025D1*
X2103898Y2407287D2*
X2629025D1*
X2111828Y2556522D2*
X2109634Y2547675D1*
X2105490Y2537669D1*
X2099832Y2528436D1*
X2092799Y2520201D1*
X2084564Y2513168D1*
X2075331Y2507510D1*
X2065325Y2503366D1*
X2054795Y2500837D1*
X2044000Y2499988D1*
X2033205Y2500837D1*
X2022675Y2503366D1*
X2012669Y2507510D1*
X2003436Y2513168D1*
X1995201Y2520201D1*
X1988168Y2528436D1*
X1987428Y2529545D1*
X1981451Y2529516D1*
X1981500Y2406500D1*
X1986041D1*
X1991524Y2413820D1*
X1999180Y2421476D1*
X2007941Y2427843D1*
X2017591Y2432759D1*
X2027890Y2436105D1*
X2038585Y2437799D1*
X2049415D1*
X2060110Y2436105D1*
X2070409Y2432759D1*
X2080059Y2427843D1*
X2088820Y2421476D1*
X2096476Y2413820D1*
X2101890Y2406484D1*
X2631500Y2406500D1*
Y2556500D1*
X2111823D1*
X1458803Y5499381D2*
X3778022D1*
X1443423Y5474512D2*
X3296675D1*
X3750063D2*
X3778022D1*
X1427993Y5449643D2*
X1564839D1*
X1584970D2*
X3257369D1*
X3754654D2*
X3778022D1*
X1412613Y5424774D2*
X1515815D1*
X1633950D2*
X3218062D1*
X3754654D2*
X3778022D1*
X1409975Y5399906D2*
X1500971D1*
X1648843D2*
X3178755D1*
X3754654D2*
X3778022D1*
X1409975Y5375037D2*
X1496430D1*
X1653383D2*
X3139449D1*
X3754654D2*
X3778022D1*
X1409975Y5350168D2*
X1500239D1*
X1649575D2*
X3100142D1*
X3754654D2*
X3778022D1*
X1409975Y5325299D2*
X1514058D1*
X1635757D2*
X3060835D1*
X3754654D2*
X3778022D1*
X1409975Y5300430D2*
X1553413D1*
X1596402D2*
X3021529D1*
X3754654D2*
X3778022D1*
X1409975Y5275562D2*
X2982222D1*
X3750259D2*
X3778022D1*
X1409975Y5250693D2*
X2942915D1*
X3530386D2*
X3778022D1*
X1409975Y5225824D2*
X2594234D1*
X2681558D2*
X2903609D1*
X3530678D2*
X3778022D1*
X1409975Y5200955D2*
X2548189D1*
X2727602D2*
X2864302D1*
X3325991D2*
X3377681D1*
X3522622D2*
X3778022D1*
X1409975Y5176087D2*
X2524555D1*
X2751235D2*
X2824995D1*
X3286538D2*
X3397993D1*
X3502310D2*
X3778022D1*
X1409975Y5151218D2*
X2510005D1*
X2765786D2*
X2785689D1*
X3247037D2*
X3778022D1*
X1409975Y5126349D2*
X2501509D1*
X3207583D2*
X3778022D1*
X1409975Y5101480D2*
X2497945D1*
X3168130D2*
X3778022D1*
X1409975Y5076612D2*
X2498921D1*
X3128627D2*
X3778022D1*
X1409975Y5051743D2*
X2504585D1*
X3089175D2*
X3778022D1*
X1409975Y5026874D2*
X2515522D1*
X3049673D2*
X3778022D1*
X1409975Y5002005D2*
X2533491D1*
X3010219D2*
X3778022D1*
X1409975Y4977136D2*
X2510493D1*
X2970718D2*
X3778022D1*
X1409975Y4952268D2*
X2471186D1*
X2931265D2*
X3778022D1*
X1409975Y4927399D2*
X2431879D1*
X2891811D2*
X3778022D1*
X1409975Y4902530D2*
X2392573D1*
X2852310D2*
X3778022D1*
X1409975Y4877661D2*
X2353266D1*
X2812857D2*
X3778022D1*
X1409975Y4852793D2*
X2313959D1*
X2773354D2*
X3778022D1*
X1409975Y4827924D2*
X2274654D1*
X2733902D2*
X3778022D1*
X1409975Y4803055D2*
X2235346D1*
X2694399D2*
X3778022D1*
X1409975Y4778186D2*
X2196041D1*
X2654946D2*
X3778022D1*
X1409975Y4753318D2*
X2156734D1*
X2615493D2*
X3778022D1*
X1409975Y4728449D2*
X2117427D1*
X2575991D2*
X3778022D1*
X1409975Y4703580D2*
X2078121D1*
X2536538D2*
X3778022D1*
X1409975Y4678711D2*
X2038814D1*
X2497037D2*
X3778022D1*
X1409975Y4653843D2*
X1999507D1*
X2457583D2*
X3778022D1*
X1409975Y4628974D2*
X1960201D1*
X2418081D2*
X3778022D1*
X1409975Y4604105D2*
X1920894D1*
X2378627D2*
X3778022D1*
X1409975Y4579236D2*
X1881587D1*
X2339126D2*
X3778022D1*
X1386294Y4554367D2*
X1842281D1*
X2299673D2*
X3778022D1*
X1361441Y4529499D2*
X1802974D1*
X2260219D2*
X3778022D1*
X1336587Y4504630D2*
X1763618D1*
X2220718D2*
X3778022D1*
X1311685Y4479761D2*
X1724311D1*
X2181265D2*
X3778022D1*
X711831Y4454892D2*
X1685005D1*
X2141762D2*
X3778022D1*
X686978Y4430024D2*
X1645698D1*
X2102310D2*
X3778022D1*
X662125Y4405155D2*
X1606391D1*
X2062807D2*
X3778022D1*
X637222Y4380286D2*
X1567085D1*
X2023354D2*
X3778022D1*
X612369Y4355417D2*
X1527778D1*
X1983902D2*
X3778022D1*
X587514Y4330549D2*
X626558D1*
X1286441D2*
X1308638D1*
X1944399D2*
X3778022D1*
X562613Y4305680D2*
X592866D1*
X1904946D2*
X3778022D1*
X537759Y4280811D2*
X561811D1*
X1865445D2*
X3778022D1*
X512906Y4255942D2*
X530709D1*
X1825991D2*
X3778022D1*
X488003Y4231073D2*
X499630D1*
X1786490D2*
X3778022D1*
X463150Y4206205D2*
X478933D1*
X1747037D2*
X3778022D1*
X438295Y4181336D2*
X476997D1*
X1707583D2*
X3778022D1*
X435000Y4156467D2*
X476997D1*
X1668081D2*
X3778022D1*
X435000Y4131598D2*
X476997D1*
X1628627D2*
X3778022D1*
X435000Y4106730D2*
X476997D1*
X1589126D2*
X3778022D1*
X435000Y4081861D2*
X476997D1*
X1548209D2*
X3778022D1*
X435000Y4056992D2*
X476997D1*
X1470083D2*
X3778022D1*
X435000Y4032123D2*
X476997D1*
X1515151D2*
X3778022D1*
X435000Y4007255D2*
X476997D1*
X1560269D2*
X3778022D1*
X435000Y3982386D2*
X476997D1*
X1605337D2*
X3216987D1*
X3320230D2*
X3778022D1*
X435000Y3957517D2*
X476997D1*
X1650454D2*
X3177681D1*
X3359537D2*
X3778022D1*
X435000Y3932648D2*
X476997D1*
X1695571D2*
X3156587D1*
X3380630D2*
X3778022D1*
X435000Y3907780D2*
X476997D1*
X1740639D2*
X3143941D1*
X3393277D2*
X3778022D1*
X435000Y3882911D2*
X476997D1*
X1785757D2*
X3137154D1*
X3400014D2*
X3778022D1*
X435000Y3858042D2*
X476997D1*
X1830825D2*
X3135395D1*
X3401822D2*
X3778022D1*
X435000Y3833173D2*
X476997D1*
X1875942D2*
X2205610D1*
X2232381D2*
X3138423D1*
X3398794D2*
X3778022D1*
X435000Y3808304D2*
X476997D1*
X1921010D2*
X2164594D1*
X2273403D2*
X3146577D1*
X3390639D2*
X3778022D1*
X435000Y3783436D2*
X476997D1*
X1966127D2*
X2153022D1*
X2284975D2*
X3161030D1*
X3376186D2*
X3778022D1*
X435000Y3758567D2*
X476997D1*
X2011197D2*
X2152241D1*
X2285757D2*
X3185151D1*
X3352066D2*
X3778022D1*
X435000Y3733698D2*
X476997D1*
X2056314D2*
X2161811D1*
X2276186D2*
X3237299D1*
X3299917D2*
X3778022D1*
X435000Y3708829D2*
X476997D1*
X2101430D2*
X2191694D1*
X2246303D2*
X3778022D1*
X435000Y3683961D2*
X476997D1*
X2146499D2*
X3778022D1*
X435000Y3659092D2*
X476997D1*
X2191567D2*
X3778022D1*
X435000Y3634223D2*
X476997D1*
X2209975D2*
X3778022D1*
X435000Y3609354D2*
X476997D1*
X2211050D2*
X3778022D1*
X435000Y3584486D2*
X476997D1*
X2211050D2*
X3778022D1*
X435000Y3559617D2*
X476997D1*
X2211050D2*
X3778022D1*
X435000Y3534748D2*
X476997D1*
X2563882D2*
X3778022D1*
X435000Y3509879D2*
X476997D1*
X2592983D2*
X3778022D1*
X435000Y3485010D2*
X476997D1*
X2622085D2*
X3778022D1*
X435000Y3460142D2*
X476997D1*
X2651186D2*
X3778022D1*
X435000Y3435273D2*
X476997D1*
X2680337D2*
X3778022D1*
X435000Y3410404D2*
X476997D1*
X2709438D2*
X3778022D1*
X435000Y3385535D2*
X476997D1*
X2738541D2*
X3778022D1*
X435000Y3360667D2*
X476997D1*
X2286050D2*
X2295972D1*
X2767642D2*
X3778022D1*
X435000Y3335798D2*
X476997D1*
X2286001D2*
X2322066D1*
X2796791D2*
X3778022D1*
X435000Y3310929D2*
X476997D1*
X2285171D2*
X2348139D1*
X2825894D2*
X3778022D1*
X435000Y3286060D2*
X476997D1*
X2268277D2*
X2374165D1*
X2854995D2*
X3778022D1*
X435000Y3261192D2*
X476997D1*
X2086001D2*
X2400239D1*
X2884146D2*
X3778022D1*
X435000Y3236323D2*
X476997D1*
X2086001D2*
X2426265D1*
X2913247D2*
X3778022D1*
X435000Y3211454D2*
X476997D1*
X2086001D2*
X2452339D1*
X2942349D2*
X3195551D1*
X3341665D2*
X3778022D1*
X435000Y3186585D2*
X476997D1*
X2086001D2*
X2478413D1*
X2971450D2*
X3166938D1*
X3370278D2*
X3778022D1*
X435000Y3161717D2*
X476997D1*
X2086001D2*
X2504438D1*
X3000601D2*
X3150142D1*
X3387075D2*
X3778022D1*
X435000Y3136848D2*
X476997D1*
X2086001D2*
X2530513D1*
X3029702D2*
X3140278D1*
X3396938D2*
X3778022D1*
X435000Y3111979D2*
X476997D1*
X2086001D2*
X2556538D1*
X3058803D2*
X3135786D1*
X3401430D2*
X3778022D1*
X435000Y3087110D2*
X476997D1*
X2086001D2*
X2582613D1*
X3087906D2*
X3136127D1*
X3401089D2*
X3778022D1*
X435000Y3062241D2*
X476997D1*
X2086001D2*
X2608638D1*
X3117055D2*
X3141353D1*
X3395865D2*
X3778022D1*
X435000Y3037373D2*
X476997D1*
X2086001D2*
X2634711D1*
X3385122D2*
X3778022D1*
X435000Y3012504D2*
X476997D1*
X2086001D2*
X2660738D1*
X3367007D2*
X3778022D1*
X435000Y2987635D2*
X476997D1*
X2086001D2*
X2686811D1*
X3335562D2*
X3778022D1*
X435000Y2962766D2*
X476997D1*
X2086001D2*
X2712886D1*
X3233510D2*
X3778022D1*
X435000Y2937898D2*
X476997D1*
X2086001D2*
X2738911D1*
X3262613D2*
X3778022D1*
X435000Y2913029D2*
X476997D1*
X2086001D2*
X2764986D1*
X3291714D2*
X3778022D1*
X435000Y2888160D2*
X476997D1*
X2086001D2*
X2791010D1*
X3320865D2*
X3778022D1*
X435000Y2863291D2*
X476997D1*
X2086001D2*
X2817085D1*
X3349966D2*
X3778022D1*
X435000Y2838423D2*
X476997D1*
X2086001D2*
X2843110D1*
X3379067D2*
X3778022D1*
X435000Y2813554D2*
X476997D1*
X2086001D2*
X2869185D1*
X3408169D2*
X3778022D1*
X435000Y2788685D2*
X476997D1*
X2086001D2*
X2895259D1*
X3437319D2*
X3778022D1*
X435000Y2763816D2*
X476997D1*
X2086001D2*
X2921285D1*
X3466421D2*
X3778022D1*
X435000Y2738948D2*
X476997D1*
X2086001D2*
X2947358D1*
X3495522D2*
X3778022D1*
X435000Y2714079D2*
X476997D1*
X2115542D2*
X2973383D1*
X3524625D2*
X3778022D1*
X435000Y2689210D2*
X476997D1*
X2115542D2*
X2999458D1*
X3553774D2*
X3778022D1*
X435000Y2664341D2*
X476997D1*
X2115542D2*
X3025483D1*
X3582875D2*
X3778022D1*
X435000Y2639472D2*
X476997D1*
X2115542D2*
X3051558D1*
X3611978D2*
X3778022D1*
X435000Y2614604D2*
X476997D1*
X2115542D2*
X3064497D1*
X3641079D2*
X3778022D1*
X435000Y2589735D2*
X476997D1*
X2680093D2*
X3064497D1*
X3670230D2*
X3778022D1*
X435000Y2564866D2*
X476997D1*
X2686001D2*
X3064497D1*
X3699331D2*
X3778022D1*
X435000Y2539997D2*
X476997D1*
X2686001D2*
X3064497D1*
X3728433D2*
X3778022D1*
X435000Y2515129D2*
X476997D1*
X1273501D2*
X1690913D1*
X1798647D2*
X1926997D1*
X2686001D2*
X3064497D1*
X3754849D2*
X3778022D1*
X435000Y2490260D2*
X476997D1*
X1273501D2*
X1676606D1*
X1812954D2*
X1926997D1*
X2686001D2*
X3064497D1*
X3761001D2*
X3777984D1*
X435000Y2465391D2*
X476997D1*
X1273501D2*
X1673335D1*
X1816226D2*
X1926997D1*
X2686001D2*
X3064497D1*
X3761001D2*
X3777984D1*
X435000Y2440522D2*
X476997D1*
X1273501D2*
X1679390D1*
X1810171D2*
X1926997D1*
X2686001D2*
X3064497D1*
X3761001D2*
X3777984D1*
X435000Y2415654D2*
X476997D1*
X1273501D2*
X1698482D1*
X1791079D2*
X1926997D1*
X2686001D2*
X3064497D1*
X3761001D2*
X3777984D1*
X435000Y2390785D2*
X476997D1*
X1273501D2*
X1927143D1*
X2685854D2*
X3064497D1*
X3761001D2*
X3777984D1*
X435000Y2365916D2*
X476997D1*
X1273501D2*
X1938765D1*
X2674282D2*
X3064497D1*
X3761001D2*
X3777984D1*
X435000Y2341047D2*
X476997D1*
X1273501D2*
X1978365D1*
X2109634D2*
X3064497D1*
X3761001D2*
X3777984D1*
X435000Y2316178D2*
X476997D1*
X1273501D2*
X1997066D1*
X2090933D2*
X3064497D1*
X3761001D2*
X3777984D1*
X435000Y2291310D2*
X476997D1*
X1273501D2*
X3064497D1*
X3761001D2*
X3777984D1*
X435000Y2266441D2*
X476997D1*
X1273501D2*
X3064497D1*
X3761001D2*
X3777984D1*
X435000Y2241572D2*
X476997D1*
X1273501D2*
X3064497D1*
X3761001D2*
X3777984D1*
X435000Y2216703D2*
X476997D1*
X1273501D2*
X1692378D1*
X1797182D2*
X1991597D1*
X2096402D2*
X3064497D1*
X3761001D2*
X3777984D1*
X435000Y2191835D2*
X476997D1*
X1273501D2*
X1677143D1*
X1812417D2*
X1976362D1*
X2111635D2*
X3064497D1*
X3761001D2*
X3777984D1*
X435000Y2166966D2*
X476997D1*
X1273501D2*
X1673286D1*
X1816274D2*
X1972505D1*
X2115493D2*
X3064497D1*
X3761001D2*
X3777984D1*
X435000Y2142097D2*
X476997D1*
X1273501D2*
X1678706D1*
X1810854D2*
X1977925D1*
X2110073D2*
X3064497D1*
X3761001D2*
X3777984D1*
X435000Y2117228D2*
X476997D1*
X1273501D2*
X1692915D1*
X1796694D2*
X1992134D1*
X2095865D2*
X3064497D1*
X3761001D2*
X3777984D1*
X435000Y2092360D2*
X476997D1*
X1273501D2*
X1677339D1*
X1812222D2*
X1976558D1*
X2111441D2*
X3064497D1*
X3761001D2*
X3777984D1*
X435000Y2067491D2*
X476997D1*
X1273501D2*
X1673286D1*
X1816274D2*
X1972505D1*
X2115493D2*
X3064497D1*
X3761001D2*
X3777984D1*
X435000Y2042622D2*
X476997D1*
X1273501D2*
X1678510D1*
X1811098D2*
X1977730D1*
X2110269D2*
X3064497D1*
X3761001D2*
X3777984D1*
X435000Y2017753D2*
X476997D1*
X1273501D2*
X1696041D1*
X1793521D2*
X1992622D1*
X2095375D2*
X3064497D1*
X3761001D2*
X3777984D1*
X435000Y1992885D2*
X476997D1*
X1273501D2*
X1976753D1*
X2111245D2*
X3064497D1*
X3761001D2*
X3777984D1*
X435000Y1968016D2*
X476997D1*
X1273501D2*
X1972457D1*
X2115542D2*
X3064497D1*
X3761001D2*
X3777984D1*
X435000Y1943147D2*
X476997D1*
X1273501D2*
X1977486D1*
X2110513D2*
X2876558D1*
X3011441D2*
X3064497D1*
X3761001D2*
X3777984D1*
X435000Y1918278D2*
X476997D1*
X1273501D2*
X1994673D1*
X2093325D2*
X2856147D1*
X3031850D2*
X3064497D1*
X3761001D2*
X3777984D1*
X435000Y1893409D2*
X476997D1*
X1273501D2*
X2846041D1*
X3042007D2*
X3064497D1*
X3761001D2*
X3777984D1*
X435000Y1868541D2*
X476997D1*
X1273501D2*
X2842963D1*
X3045034D2*
X3064497D1*
X3761001D2*
X3777984D1*
X435000Y1843672D2*
X476997D1*
X1273501D2*
X2846235D1*
X3041762D2*
X3064497D1*
X3761001D2*
X3777984D1*
X435000Y1818803D2*
X476997D1*
X1273501D2*
X2856685D1*
X3031314D2*
X3064497D1*
X3761001D2*
X3777984D1*
X435000Y1793934D2*
X476997D1*
X1273501D2*
X2877631D1*
X3010366D2*
X3064497D1*
X3761001D2*
X3777984D1*
X435000Y1769066D2*
X476997D1*
X1273501D2*
X3064497D1*
X3761001D2*
X3777984D1*
X435000Y1744197D2*
X476997D1*
X1273501D2*
X3064497D1*
X3761001D2*
X3777984D1*
X435000Y1719328D2*
X476997D1*
X1273501D2*
X3064497D1*
X3761001D2*
X3777984D1*
X435000Y1694459D2*
X476997D1*
X1273501D2*
X3064497D1*
X3761001D2*
X3777984D1*
X435000Y1669591D2*
X476997D1*
X1273501D2*
X3064497D1*
X3761001D2*
X3777984D1*
X435000Y1644722D2*
X476997D1*
X1273501D2*
X2571186D1*
X2654605D2*
X3064497D1*
X3761001D2*
X3777984D1*
X435000Y1619853D2*
X476997D1*
X1273501D2*
X2549214D1*
X2676577D2*
X3064497D1*
X3761001D2*
X3777984D1*
X435000Y1594984D2*
X476997D1*
X1273501D2*
X2541743D1*
X2684047D2*
X3064497D1*
X3761001D2*
X3777984D1*
X435000Y1570115D2*
X476997D1*
X1273501D2*
X2543697D1*
X2682094D2*
X3064497D1*
X3761001D2*
X3777984D1*
X435000Y1545247D2*
X476997D1*
X1273501D2*
X2556147D1*
X2669693D2*
X3064497D1*
X3761001D2*
X3777984D1*
X435000Y1520378D2*
X476997D1*
X1273501D2*
X2596041D1*
X2629751D2*
X3064497D1*
X3761001D2*
X3777984D1*
X435000Y1495509D2*
X476997D1*
X1273501D2*
X3064497D1*
X3761001D2*
X3777984D1*
X435000Y1470640D2*
X476997D1*
X1273501D2*
X3064497D1*
X3761001D2*
X3777984D1*
X435000Y1445772D2*
X476997D1*
X1273501D2*
X3064497D1*
X3761001D2*
X3777984D1*
X435000Y1420903D2*
X476997D1*
X1273501D2*
X3064497D1*
X3761001D2*
X3777984D1*
X435000Y1396034D2*
X476997D1*
X1273501D2*
X3064497D1*
X3761001D2*
X3777984D1*
X435000Y1371165D2*
X476997D1*
X1273501D2*
X3071773D1*
X3753726D2*
X3778022D1*
X435000Y1346297D2*
X484175D1*
X1266323D2*
X1396430D1*
X1491567D2*
X1771430D1*
X1866567D2*
X2146430D1*
X2241567D2*
X3778022D1*
X435000Y1321428D2*
X1378169D1*
X1509829D2*
X1753169D1*
X1884829D2*
X2128169D1*
X2259829D2*
X3778022D1*
X435000Y1296559D2*
X1372505D1*
X1515493D2*
X1747505D1*
X1890493D2*
X2122505D1*
X2265493D2*
X3778022D1*
X435000Y1271690D2*
X1376167D1*
X1511831D2*
X1751167D1*
X1886831D2*
X2126167D1*
X2261831D2*
X3778022D1*
X435000Y1246822D2*
X1391109D1*
X1496890D2*
X1766109D1*
X1871890D2*
X2141109D1*
X2246890D2*
X3778022D1*
X435000Y1221953D2*
X3778022D1*
X435000Y1197084D2*
X3778022D1*
X435000Y1172215D2*
X3778022D1*
X435000Y1147346D2*
X3778022D1*
X435000Y1122478D2*
X3778022D1*
X447329Y1097609D2*
X3765669D1*
X472182Y1072740D2*
X3740815D1*
X497085Y1047871D2*
X3715913D1*
X521938Y1023003D2*
X3691059D1*
X546791Y998134D2*
X3666206D1*
X571694Y973265D2*
X3641303D1*
X596547Y948396D2*
X3616450D1*
X621402Y923528D2*
X3591597D1*
X646303Y898659D2*
X3566694D1*
X671157Y873790D2*
X3541841D1*
X696010Y848921D2*
X3516987D1*
X720913Y824052D2*
X3492085D1*
X745766Y799184D2*
X3467231D1*
X770621Y774315D2*
X3442378D1*
X795522Y749446D2*
X3417475D1*
X820375Y724577D2*
X3392622D1*
X845230Y699709D2*
X3367769D1*
X870083Y674840D2*
X3342915D1*
X894986Y649971D2*
X3318013D1*
X919839Y625102D2*
X3293159D1*
X944693Y600234D2*
X3268306D1*
X969594Y575365D2*
X3243403D1*
X994449Y550496D2*
X3218550D1*
X1019302Y525627D2*
X3193697D1*
X1044205Y500759D2*
X3168794D1*
X1069058Y475890D2*
X3143941D1*
X1093911Y451021D2*
X3119087D1*
X1572870Y2529475D2*
Y2523791D1*
X1415130D1*
Y2529504D1*
X1271001Y2529500D1*
X1270878Y1365900D1*
X1269908Y1359780D1*
X1267993Y1353885D1*
X1265180Y1348361D1*
X1261535Y1343346D1*
X1257154Y1338965D1*
X1252139Y1335320D1*
X1246615Y1332507D1*
X1240720Y1330592D1*
X1234600Y1329622D1*
X1156500Y1329500D1*
X515900Y1329622D1*
X509780Y1330592D1*
X503885Y1332507D1*
X498361Y1335320D1*
X493346Y1338965D1*
X488965Y1343346D1*
X485320Y1348361D1*
X482507Y1353885D1*
X480592Y1359780D1*
X479622Y1365900D1*
X479500Y1444000D1*
X479622Y4197100D1*
X480592Y4203220D1*
X482507Y4209115D1*
X485320Y4214639D1*
X488965Y4219654D1*
X494324Y4224844D1*
X621820Y4326685D1*
X627207Y4329752D1*
X633007Y4331940D1*
X639077Y4333192D1*
X656500Y4333500D1*
X1272100Y4333378D1*
X1278220Y4332408D1*
X1284115Y4330493D1*
X1289639Y4327680D1*
X1294654Y4324037D1*
X1297474Y4321657D1*
X1302186Y4325684D1*
X1307471Y4328921D1*
X1313198Y4331294D1*
X1319224Y4332740D1*
X1325404Y4333227D1*
X1495180D1*
X2542154Y4995593D1*
X2533241Y5005108D1*
X2526551Y5013594D1*
X2520547Y5022580D1*
X2515268Y5032009D1*
X2510743Y5041823D1*
X2507003Y5051962D1*
X2504070Y5062362D1*
X2501961Y5072962D1*
X2500690Y5083694D1*
X2500266Y5094492D1*
X2500690Y5105290D1*
X2501961Y5116022D1*
X2504070Y5126622D1*
X2507003Y5137022D1*
X2510743Y5147161D1*
X2515268Y5156975D1*
X2520547Y5166404D1*
X2526551Y5175390D1*
X2533241Y5183877D1*
X2540577Y5191812D1*
X2548513Y5199148D1*
X2557000Y5205839D1*
X2565986Y5211843D1*
X2575415Y5217122D1*
X2585228Y5221647D1*
X2595367Y5225387D1*
X2605768Y5228320D1*
X2616367Y5230429D1*
X2627100Y5231699D1*
X2637898Y5232123D1*
X2648696Y5231699D1*
X2659428Y5230429D1*
X2670028Y5228320D1*
X2680428Y5225387D1*
X2690567Y5221647D1*
X2700381Y5217122D1*
X2709810Y5211843D1*
X2718795Y5205839D1*
X2727282Y5199148D1*
X2735218Y5191812D1*
X2742554Y5183877D1*
X2749244Y5175390D1*
X2755248Y5166404D1*
X2760528Y5156975D1*
X2765052Y5147161D1*
X2768223Y5138567D1*
X3325508Y5491039D1*
X3331199Y5493493D1*
X3337206Y5495026D1*
X3343942Y5495605D1*
X3715753Y5495483D1*
X3721874Y5494513D1*
X3727769Y5492598D1*
X3733293Y5489785D1*
X3738307Y5486140D1*
X3742689Y5481759D1*
X3746333Y5476744D1*
X3749147Y5471220D1*
X3751062Y5465325D1*
X3752031Y5459205D1*
X3752154Y5381105D1*
X3752031Y5290522D1*
X3751062Y5284402D1*
X3749147Y5278507D1*
X3746333Y5272983D1*
X3742689Y5267969D1*
X3738307Y5263587D1*
X3733293Y5259942D1*
X3727769Y5257129D1*
X3721874Y5255214D1*
X3715753Y5254244D1*
X3686853Y5254640D1*
X3526290Y5257917D1*
X3528059Y5249703D1*
X3529030Y5237365D1*
X3528059Y5225026D1*
X3525171Y5212992D1*
X3520434Y5201559D1*
X3513967Y5191007D1*
X3505929Y5181596D1*
X3496518Y5173558D1*
X3485966Y5167091D1*
X3474533Y5162354D1*
X3462499Y5159466D1*
X3450160Y5158495D1*
X3437822Y5159466D1*
X3425787Y5162354D1*
X3414354Y5167091D1*
X3403802Y5173558D1*
X3394391Y5181596D1*
X3386353Y5191007D1*
X3379886Y5201559D1*
X3375150Y5212992D1*
X3372261Y5225026D1*
X3371533Y5231201D1*
X1550000Y4083776D1*
X1544304Y4081333D1*
X1538295Y4079811D1*
X1531633Y4079245D1*
X1427189D1*
X2190795Y3658033D1*
X2195688Y3654227D1*
X2199925Y3649703D1*
X2203403Y3644572D1*
X2206034Y3638961D1*
X2207756Y3633007D1*
X2208566Y3625034D1*
X2208545Y3558482D1*
X2522100Y3558378D1*
X2528220Y3557408D1*
X2534115Y3555493D1*
X2539639Y3552680D1*
X2544655Y3549035D1*
X3172446Y3012797D1*
X3162835Y3024534D1*
X3157131Y3033070D1*
X3152114Y3042026D1*
X3147818Y3051349D1*
X3144264Y3060980D1*
X3141478Y3070861D1*
X3139475Y3080929D1*
X3138268Y3091125D1*
X3137865Y3101382D1*
X3138268Y3111639D1*
X3139475Y3121835D1*
X3141478Y3131903D1*
X3144264Y3141783D1*
X3147818Y3151415D1*
X3152114Y3160738D1*
X3157131Y3169694D1*
X3162835Y3178230D1*
X3169190Y3186291D1*
X3176157Y3193831D1*
X3183697Y3200798D1*
X3191759Y3207154D1*
X3200294Y3212857D1*
X3209251Y3217874D1*
X3218573Y3222171D1*
X3228205Y3225724D1*
X3238085Y3228510D1*
X3248154Y3230513D1*
X3258349Y3231720D1*
X3268606Y3232123D1*
X3278864Y3231720D1*
X3289059Y3230513D1*
X3299127Y3228510D1*
X3309008Y3225724D1*
X3318639Y3222171D1*
X3327962Y3217874D1*
X3336919Y3212857D1*
X3345454Y3207154D1*
X3353516Y3200798D1*
X3361055Y3193831D1*
X3368022Y3186291D1*
X3374378Y3178230D1*
X3380081Y3169694D1*
X3385098Y3160738D1*
X3389395Y3151415D1*
X3392949Y3141783D1*
X3395735Y3131903D1*
X3397738Y3121835D1*
X3398945Y3111639D1*
X3399348Y3101382D1*
X3398945Y3091125D1*
X3397738Y3080929D1*
X3395735Y3070861D1*
X3392949Y3060980D1*
X3389395Y3051349D1*
X3385098Y3042026D1*
X3380081Y3033070D1*
X3374378Y3024534D1*
X3368022Y3016472D1*
X3361055Y3008933D1*
X3353516Y3001966D1*
X3345454Y2995610D1*
X3336919Y2989907D1*
X3327962Y2984890D1*
X3318639Y2980593D1*
X3309008Y2977039D1*
X3299127Y2974253D1*
X3289059Y2972251D1*
X3278864Y2971043D1*
X3268606Y2970640D1*
X3258349Y2971043D1*
X3248154Y2972251D1*
X3238085Y2974253D1*
X3228205Y2977039D1*
X3218573Y2980593D1*
X3209251Y2984890D1*
X3195392Y2993181D1*
X3746932Y2521929D1*
X3750958Y2517217D1*
X3754196Y2511930D1*
X3756567Y2506205D1*
X3758014Y2500177D1*
X3758500Y2494000D1*
X3758378Y1390900D1*
X3757408Y1384780D1*
X3755493Y1378885D1*
X3752680Y1373361D1*
X3749037Y1368346D1*
X3744654Y1363963D1*
X3739639Y1360320D1*
X3734115Y1357507D1*
X3728220Y1355592D1*
X3722100Y1354622D1*
X3644000Y1354500D1*
X3103400Y1354622D1*
X3097280Y1355592D1*
X3091385Y1357507D1*
X3085861Y1360320D1*
X3080846Y1363963D1*
X3076463Y1368346D1*
X3072820Y1373361D1*
X3070007Y1378885D1*
X3068092Y1384780D1*
X3067122Y1390900D1*
X3067000Y1469000D1*
Y2627155D1*
X2283853Y3374647D1*
X2283890Y3363894D1*
X2283500Y3356500D1*
X2283378Y3315900D1*
X2282408Y3309780D1*
X2280493Y3303885D1*
X2277680Y3298361D1*
X2274037Y3293346D1*
X2269654Y3288963D1*
X2264639Y3285320D1*
X2259115Y3282507D1*
X2253220Y3280592D1*
X2247100Y3279622D1*
X2169000Y3279500D1*
X2083501D1*
X2083500Y2737995D1*
X2113028Y2738028D1*
Y2608487D1*
X2647100Y2608378D1*
X2653220Y2607408D1*
X2659115Y2605493D1*
X2664639Y2602680D1*
X2669654Y2599035D1*
X2674035Y2594654D1*
X2677680Y2589639D1*
X2680493Y2584115D1*
X2682408Y2578220D1*
X2683378Y2572100D1*
X2683500Y2494000D1*
X2683378Y2390900D1*
X2682408Y2384780D1*
X2680493Y2378885D1*
X2677680Y2373361D1*
X2674035Y2368346D1*
X2669654Y2363965D1*
X2664639Y2360320D1*
X2659115Y2357507D1*
X2653220Y2355592D1*
X2647100Y2354622D1*
X2569000Y2354500D1*
X2111529D1*
X2107773Y2342584D1*
X2102856Y2332933D1*
X2096490Y2324171D1*
X2088829Y2316510D1*
X2080067Y2310144D1*
X2070416Y2305227D1*
X2060114Y2301879D1*
X2049416Y2300185D1*
X2038584D1*
X2027886Y2301879D1*
X2017584Y2305227D1*
X2007933Y2310144D1*
X1999171Y2316510D1*
X1991510Y2324171D1*
X1985144Y2332933D1*
X1980227Y2342584D1*
X1976879Y2352886D1*
X1976554Y2354526D1*
X1965900Y2354622D1*
X1959780Y2355592D1*
X1953885Y2357507D1*
X1948361Y2360320D1*
X1943346Y2363965D1*
X1938965Y2368346D1*
X1935320Y2373361D1*
X1932507Y2378885D1*
X1930592Y2384780D1*
X1929622Y2390900D1*
X1929500Y2469000D1*
Y2529499D1*
X1801373Y2529500D1*
X1797277Y2524171D1*
X1792339Y2519026D1*
X1797277Y2513829D1*
X1803643Y2505067D1*
X1808560Y2495416D1*
X1811908Y2485114D1*
X1813602Y2474416D1*
Y2463584D1*
X1811908Y2452886D1*
X1808560Y2442584D1*
X1803643Y2432933D1*
X1797277Y2424171D1*
X1789617Y2416510D1*
X1780854Y2410144D1*
X1771203Y2405227D1*
X1760902Y2401879D1*
X1750203Y2400185D1*
X1739371D1*
X1728673Y2401879D1*
X1718371Y2405227D1*
X1708720Y2410144D1*
X1699958Y2416510D1*
X1692298Y2424171D1*
X1685932Y2432933D1*
X1681014Y2442584D1*
X1677667Y2452886D1*
X1675972Y2463584D1*
Y2474416D1*
X1677667Y2485114D1*
X1681014Y2495416D1*
X1685932Y2505067D1*
X1692298Y2513829D1*
X1697236Y2518974D1*
X1692298Y2524171D1*
X1688226Y2529500D1*
X1572857D1*
X1512815Y1288584D2*
X1511121Y1277886D1*
X1507773Y1267584D1*
X1502856Y1257933D1*
X1496490Y1249171D1*
X1488829Y1241510D1*
X1480067Y1235144D1*
X1470416Y1230227D1*
X1460114Y1226879D1*
X1449416Y1225185D1*
X1438584D1*
X1427886Y1226879D1*
X1417584Y1230227D1*
X1407933Y1235144D1*
X1399171Y1241510D1*
X1391510Y1249171D1*
X1385144Y1257933D1*
X1380227Y1267584D1*
X1376879Y1277886D1*
X1375185Y1288584D1*
Y1299416D1*
X1376879Y1310114D1*
X1380227Y1320416D1*
X1385144Y1330067D1*
X1391510Y1338829D1*
X1399171Y1346490D1*
X1407933Y1352856D1*
X1417584Y1357773D1*
X1427886Y1361121D1*
X1438584Y1362815D1*
X1449416D1*
X1460114Y1361121D1*
X1470416Y1357773D1*
X1480067Y1352856D1*
X1488829Y1346490D1*
X1496490Y1338829D1*
X1502856Y1330067D1*
X1507773Y1320416D1*
X1511121Y1310114D1*
X1512815Y1299416D1*
Y1288584D1*
X1887815D2*
X1886121Y1277886D1*
X1882773Y1267584D1*
X1877856Y1257933D1*
X1871490Y1249171D1*
X1863829Y1241510D1*
X1855067Y1235144D1*
X1845416Y1230227D1*
X1835114Y1226879D1*
X1824416Y1225185D1*
X1813584D1*
X1802886Y1226879D1*
X1792584Y1230227D1*
X1782933Y1235144D1*
X1774171Y1241510D1*
X1766510Y1249171D1*
X1760144Y1257933D1*
X1755227Y1267584D1*
X1751879Y1277886D1*
X1750185Y1288584D1*
Y1299416D1*
X1751879Y1310114D1*
X1755227Y1320416D1*
X1760144Y1330067D1*
X1766510Y1338829D1*
X1774171Y1346490D1*
X1782933Y1352856D1*
X1792584Y1357773D1*
X1802886Y1361121D1*
X1813584Y1362815D1*
X1824416D1*
X1835114Y1361121D1*
X1845416Y1357773D1*
X1855067Y1352856D1*
X1863829Y1346490D1*
X1871490Y1338829D1*
X1877856Y1330067D1*
X1882773Y1320416D1*
X1886121Y1310114D1*
X1887815Y1299416D1*
Y1288584D1*
X2262815D2*
X2261121Y1277886D1*
X2257773Y1267584D1*
X2252856Y1257933D1*
X2246490Y1249171D1*
X2238829Y1241510D1*
X2230067Y1235144D1*
X2220416Y1230227D1*
X2210114Y1226879D1*
X2199416Y1225185D1*
X2188584D1*
X2177886Y1226879D1*
X2167584Y1230227D1*
X2157933Y1235144D1*
X2149171Y1241510D1*
X2141510Y1249171D1*
X2135144Y1257933D1*
X2130227Y1267584D1*
X2126879Y1277886D1*
X2125185Y1288584D1*
Y1299416D1*
X2126879Y1310114D1*
X2130227Y1320416D1*
X2135144Y1330067D1*
X2141510Y1338829D1*
X2149171Y1346490D1*
X2157933Y1352856D1*
X2167584Y1357773D1*
X2177886Y1361121D1*
X2188584Y1362815D1*
X2199416D1*
X2210114Y1361121D1*
X2220416Y1357773D1*
X2230067Y1352856D1*
X2238829Y1346490D1*
X2246490Y1338829D1*
X2252856Y1330067D1*
X2257773Y1320416D1*
X2261121Y1310114D1*
X2262815Y1299416D1*
Y1288584D1*
X2681713Y1582482D2*
X2680018Y1571783D1*
X2676671Y1561482D1*
X2671753Y1551831D1*
X2665387Y1543068D1*
X2657727Y1535408D1*
X2648965Y1529042D1*
X2639314Y1524125D1*
X2629012Y1520777D1*
X2618314Y1519083D1*
X2607482D1*
X2596783Y1520777D1*
X2586482Y1524125D1*
X2576831Y1529042D1*
X2568068Y1535408D1*
X2560408Y1543068D1*
X2554042Y1551831D1*
X2549125Y1561482D1*
X2545777Y1571783D1*
X2544083Y1582482D1*
Y1593314D1*
X2545777Y1604012D1*
X2549125Y1614314D1*
X2554042Y1623965D1*
X2560408Y1632727D1*
X2568068Y1640387D1*
X2576831Y1646753D1*
X2586482Y1651671D1*
X2596783Y1655018D1*
X2607482Y1656713D1*
X2618314D1*
X2629012Y1655018D1*
X2639314Y1651671D1*
X2648965Y1646753D1*
X2657727Y1640387D1*
X2665387Y1632727D1*
X2671753Y1623965D1*
X2676671Y1614314D1*
X2680018Y1604012D1*
X2681713Y1593314D1*
Y1582482D1*
X2283890Y3763894D2*
X2282293Y3753804D1*
X2279136Y3744091D1*
X2274499Y3734991D1*
X2268495Y3726727D1*
X2261273Y3719505D1*
X2253009Y3713501D1*
X2243909Y3708864D1*
X2234196Y3705707D1*
X2224106Y3704110D1*
X2213894D1*
X2203804Y3705707D1*
X2194091Y3708864D1*
X2184991Y3713501D1*
X2176727Y3719505D1*
X2169505Y3726727D1*
X2163501Y3734991D1*
X2158864Y3744091D1*
X2155707Y3753804D1*
X2154110Y3763894D1*
Y3774106D1*
X2155707Y3784196D1*
X2158864Y3793909D1*
X2163501Y3803009D1*
X2169505Y3811273D1*
X2176727Y3818495D1*
X2184991Y3824499D1*
X2194091Y3829136D1*
X2203804Y3832293D1*
X2213894Y3833890D1*
X2224106D1*
X2234196Y3832293D1*
X2243909Y3829136D1*
X2253009Y3824499D1*
X2261273Y3818495D1*
X2268495Y3811273D1*
X2274499Y3803009D1*
X2279136Y3793909D1*
X2282293Y3784196D1*
X2283890Y3774106D1*
Y3763894D1*
X3042251Y1861268D2*
X3039832Y1845992D1*
X3035052Y1831285D1*
X3028031Y1817505D1*
X3018942Y1804993D1*
X3008007Y1794058D1*
X2995495Y1784969D1*
X2981715Y1777948D1*
X2967008Y1773168D1*
X2951732Y1770749D1*
X2936268D1*
X2920992Y1773168D1*
X2906285Y1777948D1*
X2892505Y1784969D1*
X2879993Y1794058D1*
X2869058Y1804993D1*
X2859969Y1817505D1*
X2852948Y1831285D1*
X2848168Y1845992D1*
X2845749Y1861268D1*
Y1876732D1*
X2848168Y1892008D1*
X2852948Y1906715D1*
X2859969Y1920495D1*
X2869058Y1933007D1*
X2879993Y1943942D1*
X2892505Y1953031D1*
X2906285Y1960052D1*
X2920992Y1964832D1*
X2936268Y1967251D1*
X2951732D1*
X2967008Y1964832D1*
X2981715Y1960052D1*
X2995495Y1953031D1*
X3008007Y1943942D1*
X3018942Y1933007D1*
X3028031Y1920495D1*
X3035052Y1906715D1*
X3039832Y1892008D1*
X3042251Y1876732D1*
Y1861268D1*
X2112815Y2163584D2*
X2111121Y2152886D1*
X2107773Y2142584D1*
X2102856Y2132933D1*
X2096490Y2124171D1*
X2091551Y2119026D1*
X2096490Y2113829D1*
X2102856Y2105067D1*
X2107773Y2095416D1*
X2111121Y2085114D1*
X2112815Y2074416D1*
Y2063584D1*
X2111121Y2052886D1*
X2107773Y2042584D1*
X2102856Y2032933D1*
X2096490Y2024171D1*
X2091551Y2019026D1*
X2096490Y2013829D1*
X2102856Y2005067D1*
X2107773Y1995416D1*
X2111121Y1985114D1*
X2112815Y1974416D1*
Y1963584D1*
X2111121Y1952886D1*
X2107773Y1942584D1*
X2102856Y1932933D1*
X2096490Y1924171D1*
X2088829Y1916510D1*
X2080067Y1910144D1*
X2070416Y1905227D1*
X2060114Y1901879D1*
X2049416Y1900185D1*
X2038584D1*
X2027886Y1901879D1*
X2017584Y1905227D1*
X2007933Y1910144D1*
X1999171Y1916510D1*
X1991510Y1924171D1*
X1985144Y1932933D1*
X1980227Y1942584D1*
X1976879Y1952886D1*
X1975185Y1963584D1*
Y1974416D1*
X1976879Y1985114D1*
X1980227Y1995416D1*
X1985144Y2005067D1*
X1991510Y2013829D1*
X1996449Y2018974D1*
X1991510Y2024171D1*
X1985144Y2032933D1*
X1980227Y2042584D1*
X1976879Y2052886D1*
X1975185Y2063584D1*
Y2074416D1*
X1976879Y2085114D1*
X1980227Y2095416D1*
X1985144Y2105067D1*
X1991510Y2113829D1*
X1996449Y2118974D1*
X1991510Y2124171D1*
X1985144Y2132933D1*
X1980227Y2142584D1*
X1976879Y2152886D1*
X1975185Y2163584D1*
Y2174416D1*
X1976879Y2185114D1*
X1980227Y2195416D1*
X1985144Y2205067D1*
X1991510Y2213829D1*
X1999171Y2221490D1*
X2007933Y2227856D1*
X2017584Y2232773D1*
X2027886Y2236121D1*
X2038584Y2237815D1*
X2049416D1*
X2060114Y2236121D1*
X2070416Y2232773D1*
X2080067Y2227856D1*
X2088829Y2221490D1*
X2096490Y2213829D1*
X2102856Y2205067D1*
X2107773Y2195416D1*
X2111121Y2185114D1*
X2112815Y2174416D1*
Y2163584D1*
X1813602Y2063584D2*
X1811908Y2052886D1*
X1808560Y2042584D1*
X1803643Y2032933D1*
X1797277Y2024171D1*
X1789617Y2016510D1*
X1780854Y2010144D1*
X1771203Y2005227D1*
X1760902Y2001879D1*
X1750203Y2000185D1*
X1739371D1*
X1728673Y2001879D1*
X1718371Y2005227D1*
X1708720Y2010144D1*
X1699958Y2016510D1*
X1692298Y2024171D1*
X1685932Y2032933D1*
X1681014Y2042584D1*
X1677667Y2052886D1*
X1675972Y2063584D1*
Y2074416D1*
X1677667Y2085114D1*
X1681014Y2095416D1*
X1685932Y2105067D1*
X1692298Y2113829D1*
X1697236Y2118974D1*
X1692298Y2124171D1*
X1685932Y2132933D1*
X1681014Y2142584D1*
X1677667Y2152886D1*
X1675972Y2163584D1*
Y2174416D1*
X1677667Y2185114D1*
X1681014Y2195416D1*
X1685932Y2205067D1*
X1692298Y2213829D1*
X1699958Y2221490D1*
X1708720Y2227856D1*
X1718371Y2232773D1*
X1728673Y2236121D1*
X1739371Y2237815D1*
X1750203D1*
X1760902Y2236121D1*
X1771203Y2232773D1*
X1780854Y2227856D1*
X1789617Y2221490D1*
X1797277Y2213829D1*
X1803643Y2205067D1*
X1808560Y2195416D1*
X1811908Y2185114D1*
X1813602Y2174416D1*
Y2163584D1*
X1811908Y2152886D1*
X1808560Y2142584D1*
X1803643Y2132933D1*
X1797277Y2124171D1*
X1792339Y2119026D1*
X1797277Y2113829D1*
X1803643Y2105067D1*
X1808560Y2095416D1*
X1811908Y2085114D1*
X1813602Y2074416D1*
Y2063584D1*
X3398945Y3850967D2*
X3397738Y3840772D1*
X3395735Y3830703D1*
X3392949Y3820823D1*
X3389395Y3811192D1*
X3385098Y3801869D1*
X3380081Y3792912D1*
X3374378Y3784377D1*
X3368022Y3776315D1*
X3361055Y3768776D1*
X3353516Y3761808D1*
X3345454Y3755453D1*
X3336919Y3749749D1*
X3327962Y3744732D1*
X3318639Y3740436D1*
X3309008Y3736882D1*
X3299127Y3734096D1*
X3289059Y3732093D1*
X3278864Y3730886D1*
X3268606Y3730483D1*
X3258349Y3730886D1*
X3248154Y3732093D1*
X3238085Y3734096D1*
X3228205Y3736882D1*
X3218573Y3740436D1*
X3209251Y3744732D1*
X3200294Y3749749D1*
X3191759Y3755453D1*
X3183697Y3761808D1*
X3176157Y3768776D1*
X3169190Y3776315D1*
X3162835Y3784377D1*
X3157131Y3792912D1*
X3152114Y3801869D1*
X3147818Y3811192D1*
X3144264Y3820823D1*
X3141478Y3830703D1*
X3139475Y3840772D1*
X3138268Y3850967D1*
X3137865Y3861224D1*
X3138268Y3871482D1*
X3139475Y3881677D1*
X3141478Y3891745D1*
X3144264Y3901626D1*
X3147818Y3911257D1*
X3152114Y3920580D1*
X3157131Y3929537D1*
X3162835Y3938072D1*
X3169190Y3946134D1*
X3176157Y3953673D1*
X3183697Y3960640D1*
X3191759Y3966996D1*
X3200294Y3972699D1*
X3209251Y3977717D1*
X3218573Y3982013D1*
X3228205Y3985567D1*
X3238085Y3988353D1*
X3248154Y3990356D1*
X3258349Y3991563D1*
X3268606Y3991966D1*
X3278864Y3991563D1*
X3289059Y3990356D1*
X3299127Y3988353D1*
X3309008Y3985567D1*
X3318639Y3982013D1*
X3327962Y3977717D1*
X3336919Y3972699D1*
X3345454Y3966996D1*
X3353516Y3960640D1*
X3361055Y3953673D1*
X3368022Y3946134D1*
X3374378Y3938072D1*
X3380081Y3929537D1*
X3385098Y3920580D1*
X3389395Y3911257D1*
X3392949Y3901626D1*
X3395735Y3891745D1*
X3397738Y3881677D1*
X3398945Y3871482D1*
X3399348Y3861224D1*
X3398945Y3850967D1*
X1650671Y5368056D2*
X1648806Y5356278D1*
X1645121Y5344936D1*
X1639706Y5334310D1*
X1632697Y5324661D1*
X1624264Y5316228D1*
X1614615Y5309219D1*
X1603990Y5303804D1*
X1592647Y5300119D1*
X1580869Y5298255D1*
X1568942D1*
X1557164Y5300119D1*
X1545822Y5303804D1*
X1535196Y5309219D1*
X1525547Y5316228D1*
X1517114Y5324661D1*
X1510105Y5334310D1*
X1504690Y5344936D1*
X1501005Y5356278D1*
X1499140Y5368056D1*
Y5379983D1*
X1501005Y5391761D1*
X1504690Y5403104D1*
X1510105Y5413730D1*
X1517114Y5423378D1*
X1525547Y5431811D1*
X1535196Y5438820D1*
X1545822Y5444235D1*
X1557164Y5447920D1*
X1568942Y5449785D1*
X1580869D1*
X1592647Y5447920D1*
X1603990Y5444235D1*
X1614615Y5438820D1*
X1624264Y5431811D1*
X1632697Y5423378D1*
X1639706Y5413730D1*
X1645121Y5403104D1*
X1648806Y5391761D1*
X1650671Y5379983D1*
Y5368056D1*
X432465Y1109983D2*
X1109969Y432479D1*
X3103060Y432500D1*
X3780521Y1109969D1*
X3780500Y5524249D1*
X1471663Y5524240D1*
X1407488Y5420528D1*
X1407346Y4581276D1*
X1406138Y4577556D1*
X1403594Y4574165D1*
X1287117Y4457887D1*
X1283631Y4456112D1*
X1279436Y4455513D1*
X709896Y4455500D1*
X432457Y4178010D1*
X432500Y1109940D1*
X2196500Y3481631D2*
X2540987D1*
X2196500Y3456762D2*
X2570138D1*
X2301701Y3431894D2*
X2599239D1*
X2327726Y3407025D2*
X2628341D1*
X2353799Y3382156D2*
X2657442D1*
X2379874Y3357287D2*
X2686593D1*
X2405899Y3332419D2*
X2715694D1*
X2431974Y3307550D2*
X2744795D1*
X2457999Y3282681D2*
X2773898D1*
X2484073Y3257812D2*
X2803047D1*
X2510098Y3232944D2*
X2832150D1*
X2536173Y3208075D2*
X2861251D1*
X2562198Y3183206D2*
X2890402D1*
X2588273Y3158337D2*
X2919503D1*
X2614346Y3133469D2*
X2948605D1*
X2640373Y3108600D2*
X2977706D1*
X2666446Y3083731D2*
X3006857D1*
X2692471Y3058862D2*
X3035958D1*
X2718546Y3033993D2*
X3065059D1*
X2744571Y3009125D2*
X3094161D1*
X2770646Y2984256D2*
X3123311D1*
X2796719Y2959387D2*
X3152413D1*
X2822745Y2934518D2*
X3181514D1*
X2848819Y2909650D2*
X3210617D1*
X2874845Y2884781D2*
X3239766D1*
X2900919Y2859912D2*
X3268869D1*
X2926945Y2835043D2*
X3297970D1*
X2953018Y2810175D2*
X3327121D1*
X2979093Y2785306D2*
X3356222D1*
X3005118Y2760437D2*
X3385323D1*
X3031193Y2735568D2*
X3414425D1*
X3057218Y2710699D2*
X3443575D1*
X3083291Y2685831D2*
X3472677D1*
X3109318Y2660962D2*
X3501778D1*
X3121475Y2636093D2*
X3530879D1*
X3121475Y2611224D2*
X3560030D1*
X3121475Y2586356D2*
X3589131D1*
X3121475Y2561487D2*
X3618234D1*
X3121475Y2536618D2*
X3647383D1*
X3121475Y2511749D2*
X3676486D1*
X3121475Y2486881D2*
X3704025D1*
X3121475Y2462012D2*
X3215303D1*
X3321915D2*
X3704025D1*
X3121475Y2437143D2*
X3176925D1*
X3360294D2*
X3704025D1*
X3121475Y2412274D2*
X3156173D1*
X3381046D2*
X3704025D1*
X3121475Y2387406D2*
X3143673D1*
X3393546D2*
X3704025D1*
X3121475Y2362537D2*
X3137081D1*
X3400138D2*
X3704025D1*
X3121475Y2337668D2*
X3135421D1*
X3401798D2*
X3704025D1*
X3121475Y2312799D2*
X3138546D1*
X3398673D2*
X3704025D1*
X3121475Y2287930D2*
X3146846D1*
X3390373D2*
X3704025D1*
X3121475Y2263062D2*
X3161543D1*
X3375675D2*
X3704025D1*
X3121475Y2238193D2*
X3186007D1*
X3351163D2*
X3704025D1*
X3121475Y2213324D2*
X3240547D1*
X3296671D2*
X3704025D1*
X3121475Y2188455D2*
X3704025D1*
X3121475Y2163587D2*
X3704025D1*
X3121475Y2138718D2*
X3704025D1*
X3121475Y2113849D2*
X3704025D1*
X3121475Y2088980D2*
X3704025D1*
X3121475Y2064112D2*
X3704025D1*
X3121475Y2039243D2*
X3704025D1*
X3121475Y2014374D2*
X3704025D1*
X3121475Y1989505D2*
X3704025D1*
X3121475Y1964636D2*
X3704025D1*
X3121475Y1939768D2*
X3704025D1*
X3121475Y1914899D2*
X3704025D1*
X3121475Y1890030D2*
X3704025D1*
X3121475Y1865161D2*
X3704025D1*
X3121475Y1840293D2*
X3704025D1*
X3121475Y1815424D2*
X3704025D1*
X3121475Y1790555D2*
X3704025D1*
X3121475Y1765686D2*
X3704025D1*
X3121475Y1740818D2*
X3704025D1*
X3121475Y1715949D2*
X3704025D1*
X3121475Y1691080D2*
X3194503D1*
X3342715D2*
X3704025D1*
X3121475Y1666211D2*
X3166378D1*
X3370841D2*
X3704025D1*
X3121475Y1641343D2*
X3149777D1*
X3387442D2*
X3704025D1*
X3121475Y1616474D2*
X3140059D1*
X3397159D2*
X3704025D1*
X3121475Y1591605D2*
X3135762D1*
X3401457D2*
X3704025D1*
X3121475Y1566736D2*
X3136202D1*
X3400967D2*
X3704025D1*
X3121475Y1541867D2*
X3141573D1*
X3395646D2*
X3704025D1*
X3121475Y1516999D2*
X3152510D1*
X3384709D2*
X3704025D1*
X3121475Y1492130D2*
X3170870D1*
X3366349D2*
X3704025D1*
X3121475Y1467261D2*
X3202902D1*
X3334318D2*
X3704025D1*
X3121475Y1442392D2*
X3704025D1*
X3121475Y1417524D2*
X3704025D1*
X2237058Y3506516D2*
X2229182Y3504711D1*
X2219000Y3503909D1*
X2208818Y3504711D1*
X2200942Y3506516D1*
X2194000Y3506500D1*
Y3444000D1*
X2283455Y3443846D1*
X2287175Y3442638D1*
X2290446Y3440223D1*
X3116440Y2651580D1*
X3118295Y2648138D1*
X3118996Y2644290D1*
X3119000Y1406500D1*
X3706500D1*
Y2488287D1*
X2514370Y3506516D1*
X2237213Y3506500D1*
X3398945Y1571440D2*
X3397738Y1561244D1*
X3395735Y1551176D1*
X3392949Y1541295D1*
X3389395Y1531664D1*
X3385098Y1522341D1*
X3380081Y1513385D1*
X3374378Y1504849D1*
X3368022Y1496787D1*
X3361055Y1489248D1*
X3353516Y1482281D1*
X3345454Y1475925D1*
X3336919Y1470222D1*
X3327962Y1465205D1*
X3318639Y1460908D1*
X3309008Y1457354D1*
X3299127Y1454568D1*
X3289059Y1452566D1*
X3278864Y1451358D1*
X3268606Y1450955D1*
X3258349Y1451358D1*
X3248154Y1452566D1*
X3238085Y1454568D1*
X3228205Y1457354D1*
X3218573Y1460908D1*
X3209251Y1465205D1*
X3200294Y1470222D1*
X3191759Y1475925D1*
X3183697Y1482281D1*
X3176157Y1489248D1*
X3169190Y1496787D1*
X3162835Y1504849D1*
X3157131Y1513385D1*
X3152114Y1522341D1*
X3147818Y1531664D1*
X3144264Y1541295D1*
X3141478Y1551176D1*
X3139475Y1561244D1*
X3138268Y1571440D1*
X3137865Y1581697D1*
X3138268Y1591954D1*
X3139475Y1602150D1*
X3141478Y1612218D1*
X3144264Y1622098D1*
X3147818Y1631730D1*
X3152114Y1641052D1*
X3157131Y1650009D1*
X3162835Y1658545D1*
X3169190Y1666606D1*
X3176157Y1674146D1*
X3183697Y1681113D1*
X3191759Y1687469D1*
X3200294Y1693172D1*
X3209251Y1698189D1*
X3218573Y1702486D1*
X3228205Y1706039D1*
X3238085Y1708825D1*
X3248154Y1710828D1*
X3258349Y1712035D1*
X3268606Y1712438D1*
X3278864Y1712035D1*
X3289059Y1710828D1*
X3299127Y1708825D1*
X3309008Y1706039D1*
X3318639Y1702486D1*
X3327962Y1698189D1*
X3336919Y1693172D1*
X3345454Y1687469D1*
X3353516Y1681113D1*
X3361055Y1674146D1*
X3368022Y1666606D1*
X3374378Y1658545D1*
X3380081Y1650009D1*
X3385098Y1641052D1*
X3389395Y1631730D1*
X3392949Y1622098D1*
X3395735Y1612218D1*
X3397738Y1602150D1*
X3398945Y1591954D1*
X3399348Y1581697D1*
X3398945Y1571440D1*
Y2331282D2*
X3397738Y2321087D1*
X3395735Y2311018D1*
X3392949Y2301138D1*
X3389395Y2291507D1*
X3385098Y2282184D1*
X3380081Y2273227D1*
X3374378Y2264692D1*
X3368022Y2256630D1*
X3361055Y2249091D1*
X3353516Y2242123D1*
X3345454Y2235768D1*
X3336919Y2230064D1*
X3327962Y2225047D1*
X3318639Y2220751D1*
X3309008Y2217197D1*
X3299127Y2214411D1*
X3289059Y2212408D1*
X3278864Y2211201D1*
X3268606Y2210798D1*
X3258349Y2211201D1*
X3248154Y2212408D1*
X3238085Y2214411D1*
X3228205Y2217197D1*
X3218573Y2220751D1*
X3209251Y2225047D1*
X3200294Y2230064D1*
X3191759Y2235768D1*
X3183697Y2242123D1*
X3176157Y2249091D1*
X3169190Y2256630D1*
X3162835Y2264692D1*
X3157131Y2273227D1*
X3152114Y2282184D1*
X3147818Y2291507D1*
X3144264Y2301138D1*
X3141478Y2311018D1*
X3139475Y2321087D1*
X3138268Y2331282D1*
X3137865Y2341539D1*
X3138268Y2351797D1*
X3139475Y2361992D1*
X3141478Y2372060D1*
X3144264Y2381941D1*
X3147818Y2391572D1*
X3152114Y2400895D1*
X3157131Y2409852D1*
X3162835Y2418387D1*
X3169190Y2426449D1*
X3176157Y2433988D1*
X3183697Y2440955D1*
X3191759Y2447311D1*
X3200294Y2453014D1*
X3209251Y2458031D1*
X3218573Y2462328D1*
X3228205Y2465882D1*
X3238085Y2468668D1*
X3248154Y2470671D1*
X3258349Y2471878D1*
X3268606Y2472281D1*
X3278864Y2471878D1*
X3289059Y2470671D1*
X3299127Y2468668D1*
X3309008Y2465882D1*
X3318639Y2462328D1*
X3327962Y2458031D1*
X3336919Y2453014D1*
X3345454Y2447311D1*
X3353516Y2440955D1*
X3361055Y2433988D1*
X3368022Y2426449D1*
X3374378Y2418387D1*
X3380081Y2409852D1*
X3385098Y2400895D1*
X3389395Y2391572D1*
X3392949Y2381941D1*
X3395735Y2372060D1*
X3397738Y2361992D1*
X3398945Y2351797D1*
X3399348Y2341539D1*
X3398945Y2331282D1*
X1975773Y3381631D2*
X2029025D1*
X1950041Y3356762D2*
X2029025D1*
X1924259Y3331894D2*
X2029025D1*
X1898526Y3307025D2*
X2029025D1*
X1872745Y3282156D2*
X2029025D1*
X1847013Y3257287D2*
X2029025D1*
X1821231Y3232419D2*
X2029025D1*
X1795499Y3207550D2*
X2029025D1*
X1769718Y3182681D2*
X2029025D1*
X1743986Y3157812D2*
X2029025D1*
X1718205Y3132944D2*
X2029025D1*
X1692471Y3108075D2*
X2029025D1*
X1666690Y3083206D2*
X2029025D1*
X1640958Y3058337D2*
X2029025D1*
X1615177Y3033469D2*
X2029025D1*
X1589445Y3008600D2*
X2029025D1*
X1563663Y2983731D2*
X2029025D1*
X1537930Y2958862D2*
X2029025D1*
X1512150Y2933993D2*
X2029025D1*
X1486417Y2909125D2*
X2029025D1*
X1460635Y2884256D2*
X2029025D1*
X1434903Y2859387D2*
X2029025D1*
X1409122Y2834518D2*
X2029025D1*
X1383390Y2809650D2*
X2029025D1*
X1357609Y2784781D2*
X2029025D1*
X1331875Y2759912D2*
X2029025D1*
X1306094Y2735043D2*
X1972482D1*
X1284000Y2710175D2*
X1972482D1*
X1284000Y2685306D2*
X1972482D1*
X1284000Y2660437D2*
X1972482D1*
X1284000Y2635568D2*
X1724043D1*
X1765567D2*
X1972482D1*
X1284000Y2610699D2*
X1687277D1*
X1802286D2*
X1972482D1*
X1284000Y2585831D2*
X1675362D1*
X1814249D2*
X1974533D1*
X2031513Y3405175D2*
X2024106Y3404110D1*
X2013894D1*
X2003804Y3405707D1*
X2000942Y3406516D1*
X1993690Y3401325D1*
X1281466Y2713660D1*
X1281500Y2581500D1*
X1676861D1*
X1679138Y2590331D1*
X1683283Y2600337D1*
X1688944Y2609573D1*
X1695978Y2617810D1*
X1704214Y2624844D1*
X1713450Y2630504D1*
X1723457Y2634650D1*
X1733990Y2637177D1*
X1744787Y2638028D1*
X1755585Y2637177D1*
X1766118Y2634650D1*
X1776125Y2630504D1*
X1785361Y2624844D1*
X1793597Y2617810D1*
X1800631Y2609573D1*
X1806291Y2600337D1*
X1810437Y2590331D1*
X1812630Y2581480D1*
X1976080Y2581500D1*
X1978350Y2590331D1*
X1982328Y2599972D1*
X1974972D1*
Y2738028D1*
X2031467D1*
X2031500Y3405084D1*
X3310741Y5418736D2*
X3697635D1*
X3271434Y5393867D2*
X3697635D1*
X3232127Y5368999D2*
X3697635D1*
X3192822Y5344130D2*
X3697635D1*
X3153514Y5319261D2*
X3697635D1*
X3114207Y5294392D2*
X3371806D1*
X3074902Y5269524D2*
X3332303D1*
X3035594Y5244655D2*
X3292850D1*
X2996287Y5219786D2*
X3253349D1*
X2956982Y5194917D2*
X3213895D1*
X2917675Y5170049D2*
X3174394D1*
X2878367Y5145180D2*
X3134941D1*
X2839062Y5120311D2*
X3095487D1*
X2799755Y5095442D2*
X3055986D1*
X2775927Y5070573D2*
X3016531D1*
X2769091Y5045705D2*
X2977030D1*
X2756639Y5020836D2*
X2937577D1*
X2736474Y4995967D2*
X2898075D1*
X2701366Y4971098D2*
X2858622D1*
X2563866Y4946230D2*
X2819169D1*
X2524559Y4921361D2*
X2779667D1*
X2485253Y4896492D2*
X2740214D1*
X2445946Y4871623D2*
X2700711D1*
X2406639Y4846755D2*
X2661259D1*
X2367333Y4821886D2*
X2621757D1*
X2328026Y4797017D2*
X2582303D1*
X2288719Y4772148D2*
X2542850D1*
X2249413Y4747280D2*
X2503349D1*
X2210106Y4722411D2*
X2463895D1*
X2170799Y4697542D2*
X2424394D1*
X2131493Y4672673D2*
X2384941D1*
X2092186Y4647804D2*
X2345438D1*
X2052879Y4622936D2*
X2305986D1*
X2013573Y4598067D2*
X2266531D1*
X1974266Y4573198D2*
X2227030D1*
X1934959Y4548329D2*
X2187577D1*
X1895654Y4523461D2*
X2148075D1*
X1856346Y4498592D2*
X2108622D1*
X1817039Y4473723D2*
X2069119D1*
X1777734Y4448854D2*
X2029667D1*
X1738427Y4423986D2*
X1990214D1*
X1699119Y4399117D2*
X1950711D1*
X1659814Y4374248D2*
X1911259D1*
X1620458Y4349379D2*
X1871757D1*
X1581151Y4324510D2*
X1832303D1*
X1541845Y4299642D2*
X1792802D1*
X1340404Y4274773D2*
X1753349D1*
X1340404Y4249904D2*
X1713846D1*
X1340404Y4225035D2*
X1674394D1*
X1340404Y4200167D2*
X1634941D1*
X1340404Y4175298D2*
X1595438D1*
X1340404Y4150429D2*
X1555986D1*
X3615430Y5308096D2*
X3625787Y5312336D1*
X3637822Y5315224D1*
X3650160Y5316196D1*
X3662499Y5315224D1*
X3674533Y5312336D1*
X3685966Y5307600D1*
X3687718Y5306618D1*
X3700135Y5306381D1*
X3700154Y5443605D1*
X3347558D1*
X2774874Y5081291D1*
X2773835Y5072962D1*
X2771726Y5062362D1*
X2768793Y5051962D1*
X2765052Y5041823D1*
X2760528Y5032009D1*
X2755248Y5022580D1*
X2749244Y5013594D1*
X2742554Y5005108D1*
X2735218Y4997172D1*
X2727282Y4989836D1*
X2718795Y4983146D1*
X2709810Y4977142D1*
X2700381Y4971862D1*
X2690567Y4967337D1*
X2680428Y4963597D1*
X2670028Y4960664D1*
X2659428Y4958555D1*
X2648696Y4957285D1*
X2637898Y4956861D1*
X2627100Y4957285D1*
X2616367Y4958555D1*
X2605768Y4960664D1*
X2591209Y4965131D1*
X1511584Y4282248D1*
X1507794Y4281281D1*
X1337904Y4281227D1*
Y4131245D1*
X1528056D1*
X3401509Y5311360D1*
X3405301Y5312320D1*
X3424705Y5312001D1*
X3431748Y5314055D1*
X3443972Y5315992D1*
X3456348D1*
X3468572Y5314055D1*
X3478550Y5310892D1*
X3615387Y5308110D1*
X619815Y4256631D2*
X1254000D1*
X588711Y4231762D2*
X1254000D1*
X557609Y4206894D2*
X1254000D1*
X534000Y4182025D2*
X1254000D1*
X534000Y4157156D2*
X1254000D1*
X534000Y4132287D2*
X631857D1*
X534000Y4107419D2*
X604366D1*
X534000Y4082550D2*
X602022D1*
X534000Y4057681D2*
X602022D1*
X534000Y4032812D2*
X602022D1*
X534000Y4007944D2*
X602022D1*
X534000Y3983075D2*
X602022D1*
X534000Y3958206D2*
X602022D1*
X534000Y3933337D2*
X602022D1*
X534000Y3908469D2*
X602022D1*
X534000Y3883600D2*
X602022D1*
X534000Y3858731D2*
X602022D1*
X534000Y3833862D2*
X602022D1*
X534000Y3808993D2*
X602022D1*
X534000Y3784125D2*
X602022D1*
X534000Y3759256D2*
X602022D1*
X534000Y3734387D2*
X602022D1*
X534000Y3709518D2*
X602022D1*
X534000Y3684650D2*
X602022D1*
X534000Y3659781D2*
X602022D1*
X534000Y3634912D2*
X602022D1*
X534000Y3610043D2*
X602022D1*
X534000Y3585175D2*
X602022D1*
X534000Y3560306D2*
X602022D1*
X534000Y3535437D2*
X602022D1*
X534000Y3510568D2*
X602022D1*
X534000Y3485699D2*
X602022D1*
X534000Y3460831D2*
X602022D1*
X534000Y3435962D2*
X602022D1*
X534000Y3411093D2*
X602022D1*
X534000Y3386224D2*
X602022D1*
X534000Y3361356D2*
X602022D1*
X534000Y3336487D2*
X602022D1*
X534000Y3311618D2*
X602022D1*
X534000Y3286749D2*
X602022D1*
X534000Y3261881D2*
X602022D1*
X534000Y3237012D2*
X602022D1*
X534000Y3212143D2*
X602022D1*
X534000Y3187274D2*
X602022D1*
X534000Y3162406D2*
X602022D1*
X534000Y3137537D2*
X602022D1*
X534000Y3112668D2*
X602022D1*
X534000Y3087799D2*
X602022D1*
X534000Y3062930D2*
X602022D1*
X534000Y3038062D2*
X602022D1*
X534000Y3013193D2*
X602022D1*
X534000Y2988324D2*
X602022D1*
X534000Y2963455D2*
X602022D1*
X534000Y2938587D2*
X602022D1*
X534000Y2913718D2*
X602022D1*
X534000Y2888849D2*
X602022D1*
X534000Y2863980D2*
X602315D1*
X534000Y2839112D2*
X615694D1*
X534000Y2814243D2*
X704025D1*
X534000Y2789374D2*
X704025D1*
X534000Y2764505D2*
X704025D1*
X534000Y2739636D2*
X704025D1*
X534000Y2714768D2*
X704025D1*
X534000Y2689899D2*
X704025D1*
X534000Y2665030D2*
X704025D1*
X534000Y2640161D2*
X704025D1*
X534000Y2615293D2*
X704025D1*
X534000Y2590424D2*
X704025D1*
X534000Y2565555D2*
X704025D1*
X534000Y2540686D2*
X704025D1*
X534000Y2515818D2*
X704025D1*
X534000Y2490949D2*
X704025D1*
X534000Y2466080D2*
X704025D1*
X534000Y2441211D2*
X704025D1*
X534000Y2416343D2*
X704025D1*
X534000Y2391474D2*
X704025D1*
X534000Y2366605D2*
X704025D1*
X534000Y2341736D2*
X704025D1*
X534000Y2316867D2*
X704025D1*
X534000Y2291999D2*
X704025D1*
X534000Y2267130D2*
X704025D1*
X534000Y2242261D2*
X704025D1*
X534000Y2217392D2*
X704025D1*
X534000Y2192524D2*
X704025D1*
X534000Y2167655D2*
X704025D1*
X534000Y2142786D2*
X704025D1*
X534000Y2117917D2*
X704025D1*
X534000Y2093049D2*
X704025D1*
X534000Y2068180D2*
X704025D1*
X534000Y2043311D2*
X704025D1*
X534000Y2018442D2*
X704025D1*
X534000Y1993573D2*
X704025D1*
X534000Y1968705D2*
X704025D1*
X534000Y1943836D2*
X704025D1*
X534000Y1918967D2*
X704025D1*
X534000Y1894098D2*
X704025D1*
X534000Y1869230D2*
X704025D1*
X534000Y1844361D2*
X704025D1*
X534000Y1819492D2*
X704025D1*
X534000Y1794623D2*
X704025D1*
X534000Y1769755D2*
X704025D1*
X534000Y1744886D2*
X704025D1*
X534000Y1720017D2*
X704025D1*
X534000Y1695148D2*
X704025D1*
X534000Y1670280D2*
X704025D1*
X534000Y1645411D2*
X704025D1*
X534000Y1620542D2*
X704025D1*
X534000Y1595673D2*
X704025D1*
X534000Y1570804D2*
X704025D1*
X534000Y1545936D2*
X704025D1*
X534000Y1521067D2*
X704025D1*
X534000Y1496198D2*
X704025D1*
X534000Y1471329D2*
X704025D1*
X534000Y1446461D2*
X704025D1*
X534000Y1421592D2*
X704025D1*
X534000Y1396723D2*
X704025D1*
X604500Y2881500D2*
X604622Y4097100D1*
X605592Y4103220D1*
X607507Y4109115D1*
X610320Y4114639D1*
X613965Y4119654D1*
X618346Y4124035D1*
X623361Y4127680D1*
X628885Y4130493D1*
X634780Y4132408D1*
X640900Y4133378D1*
X719000Y4133500D1*
X1256549D1*
X1256500Y4281500D1*
X648345D1*
X531512Y4188001D1*
X531500Y1381500D1*
X706500D1*
Y2829500D1*
X640900Y2829622D1*
X634780Y2830592D1*
X628885Y2832507D1*
X623361Y2835320D1*
X618346Y2838965D1*
X613965Y2843346D1*
X610320Y2848361D1*
X607507Y2853885D1*
X605592Y2859780D1*
X604622Y2865900D1*
X604500Y2881500D1*
D18*
X1494000Y2394000D3*
Y2661717D3*
D19*
X1444000Y1294000D3*
Y1431795D3*
X1819000Y1294000D3*
Y1431795D3*
X2194000Y1294000D3*
Y1431795D3*
X2612898Y1587898D3*
X2475102D3*
D22*
X2244000Y2294000D3*
Y2467228D3*
D24*
X1394000Y4194000D3*
X1194000D3*
D27*
X2019000Y3769000D3*
Y3569000D3*
Y3469000D3*
Y3369000D3*
X2219000Y3769000D3*
Y3569000D3*
Y3469000D3*
Y3369000D3*
D29*
X2944000Y1869000D3*
X2544000Y2469000D3*
D30*
X3650160Y5362365D3*
Y5237325D3*
X3450160Y5237365D3*
Y5362404D3*
D31*
X2044000Y2669000D3*
D32*
Y2569000D3*
Y2469000D3*
Y2369000D3*
Y2269000D3*
Y2169000D3*
Y2069000D3*
Y1969000D3*
X1744787D3*
Y2069000D3*
Y2169000D3*
Y2269000D3*
Y2369000D3*
Y2469000D3*
Y2569000D3*
Y2669000D3*
D33*
X738882Y2341539D3*
Y1581697D3*
X3608961Y2341539D3*
Y1581697D3*
X738882Y3101382D3*
Y3861224D3*
X3608961Y3101382D3*
Y3861224D3*
M02*
