G04 DipTrace 3.0.0.2*
G04 BottomMask.gbr*
%MOIN*%
G04 #@! TF.FileFunction,Soldermask,Bot*
G04 #@! TF.Part,Single*
%ADD34C,0.182*%
%ADD35C,0.073*%
%ADD36C,0.125984*%
%ADD43C,0.16548*%
%ADD45C,0.067055*%
%ADD47R,0.067055X0.067055*%
%ADD49C,0.08674*%
%ADD51C,0.12611*%
%ADD53C,0.059181*%
%ADD59R,0.128X0.135*%
%ADD61R,0.090677X0.063118*%
%ADD63C,0.067055*%
%ADD65R,0.08674X0.20485*%
%FSLAX26Y26*%
G04*
G70*
G90*
G75*
G01*
G04 BotMask*
%LPD*%
D65*
X1494000Y2394000D3*
Y2661717D3*
D63*
X1444000Y1294000D3*
Y1431795D3*
X1819000Y1294000D3*
Y1431795D3*
X2194000Y1294000D3*
Y1431795D3*
X2612898Y1587898D3*
X2475102D3*
D61*
X2244000Y2294000D3*
Y2467228D3*
D59*
X1394000Y4194000D3*
X1194000D3*
D34*
X2637898Y5094492D3*
D35*
X1574906Y5374020D3*
D53*
X2019000Y3769000D3*
Y3569000D3*
Y3469000D3*
Y3369000D3*
X2219000Y3769000D3*
Y3569000D3*
Y3469000D3*
Y3369000D3*
D51*
X2944000Y1869000D3*
X2544000Y2469000D3*
D49*
X3650160Y5362365D3*
Y5237325D3*
X3450160Y5237365D3*
Y5362404D3*
D47*
X2044000Y2669000D3*
D45*
Y2569000D3*
Y2469000D3*
Y2369000D3*
Y2269000D3*
Y2169000D3*
Y2069000D3*
Y1969000D3*
X1744787D3*
Y2069000D3*
Y2169000D3*
Y2269000D3*
Y2369000D3*
Y2469000D3*
Y2569000D3*
Y2669000D3*
D43*
X738882Y2341539D3*
Y1581697D3*
X3608961Y2341539D3*
Y1581697D3*
X738882Y3101382D3*
Y3861224D3*
X3608961Y3101382D3*
Y3861224D3*
D36*
X1079236Y3101382D3*
Y3861224D3*
Y2341539D3*
Y1581697D3*
X3268606D3*
Y2341539D3*
Y3101382D3*
Y3861224D3*
M02*
