G04 DipTrace 3.0.0.2*
G04 Bottom.gbr*
%MOIN*%
G04 #@! TF.FileFunction,Copper,L2,Bot*
G04 #@! TF.Part,Single*
G04 #@! TA.AperFunction,CopperBalancing*
%ADD16C,0.025*%
%ADD19R,0.07874X0.19685*%
G04 #@! TA.AperFunction,ComponentPad*
%ADD20C,0.059055*%
%ADD23R,0.082677X0.055118*%
%ADD25R,0.12X0.127*%
G04 #@! TA.AperFunction,ComponentPad*
%ADD28C,0.051181*%
%ADD30C,0.11811*%
%ADD31C,0.07874*%
%ADD32R,0.059055X0.059055*%
%ADD33C,0.059055*%
%ADD34C,0.15748*%
%FSLAX26Y26*%
G04*
G70*
G90*
G75*
G01*
G04 Bottom*
%LPD*%
X1903207Y3493832D2*
D16*
X2041226D1*
X1868638Y3468963D2*
X2041226D1*
X1834115Y3444094D2*
X1960659D1*
X1799594Y3419226D2*
X1934878D1*
X1765024Y3394357D2*
X1909146D1*
X1730503Y3369488D2*
X1883364D1*
X1695932Y3344619D2*
X1857631D1*
X1661411Y3319751D2*
X1831850D1*
X1626890Y3294882D2*
X1806118D1*
X1592319Y3270013D2*
X1780336D1*
X1557798Y3245144D2*
X1754604D1*
X1523276Y3220276D2*
X1728823D1*
X1488706Y3195407D2*
X1703091D1*
X1454184Y3170538D2*
X1677310D1*
X1419614Y3145669D2*
X1651576D1*
X1385092Y3120801D2*
X1625795D1*
X1350571Y3095932D2*
X1600063D1*
X1316000Y3071063D2*
X1574282D1*
X1281479Y3046194D2*
X1548550D1*
X1246958Y3021325D2*
X1522768D1*
X1212387Y2996457D2*
X1497035D1*
X1177866Y2971588D2*
X1471255D1*
X1143295Y2946719D2*
X1445522D1*
X1108774Y2921850D2*
X1419741D1*
X1074252Y2896982D2*
X1394008D1*
X1039682Y2872113D2*
X1368227D1*
X1005160Y2847244D2*
X1342495D1*
X646201Y2822375D2*
X1316714D1*
X646201Y2797507D2*
X1290982D1*
X646201Y2772638D2*
X1265199D1*
X646201Y2747769D2*
X1239467D1*
X646201Y2722900D2*
X1226919D1*
X646201Y2698031D2*
X1216226D1*
X646201Y2673163D2*
X1216226D1*
X646201Y2648294D2*
X1216226D1*
X646201Y2623425D2*
X1216226D1*
X646201Y2598556D2*
X1216226D1*
X646201Y2573688D2*
X1216226D1*
X646201Y2548819D2*
X1216226D1*
X646201Y2523950D2*
X1216226D1*
X646201Y2499081D2*
X1216226D1*
X646201Y2474213D2*
X1216226D1*
X646201Y2449344D2*
X1002895D1*
X1154966D2*
X1216226D1*
X646201Y2424475D2*
X975600D1*
X1182260D2*
X1216226D1*
X646201Y2399606D2*
X959438D1*
X1198423D2*
X1216226D1*
X646201Y2374738D2*
X950063D1*
X646201Y2349869D2*
X945962D1*
X646201Y2325000D2*
X946694D1*
X646201Y2300131D2*
X952310D1*
X646201Y2275262D2*
X963588D1*
X1194322D2*
X1216226D1*
X646201Y2250394D2*
X982436D1*
X1175474D2*
X1216226D1*
X646201Y2225525D2*
X1015591D1*
X1142270D2*
X1216226D1*
X646201Y2200656D2*
X1216226D1*
X646201Y2175787D2*
X1216226D1*
X646201Y2150919D2*
X1216226D1*
X646201Y2126050D2*
X1216226D1*
X646201Y2101181D2*
X1216226D1*
X646201Y2076312D2*
X1216226D1*
X646201Y2051444D2*
X1216226D1*
X646201Y2026575D2*
X1216226D1*
X646201Y2001706D2*
X1216226D1*
X646201Y1976837D2*
X1216226D1*
X646201Y1951969D2*
X1216226D1*
X646201Y1927100D2*
X1216226D1*
X646201Y1902231D2*
X1216226D1*
X646201Y1877362D2*
X1216226D1*
X646201Y1852493D2*
X1216226D1*
X646201Y1827625D2*
X1216226D1*
X646201Y1802756D2*
X1216226D1*
X646201Y1777887D2*
X1216226D1*
X646201Y1753018D2*
X1216226D1*
X646201Y1728150D2*
X1216226D1*
X646201Y1703281D2*
X1029115D1*
X1128744D2*
X1216226D1*
X646201Y1678412D2*
X988783D1*
X1169076D2*
X1216226D1*
X646201Y1653543D2*
X967398D1*
X1190463D2*
X1216226D1*
X646201Y1628675D2*
X954555D1*
X1203354D2*
X1216226D1*
X646201Y1603806D2*
X947622D1*
X646201Y1578937D2*
X945718D1*
X646201Y1554068D2*
X948598D1*
X646201Y1529199D2*
X956558D1*
X1201303D2*
X1216226D1*
X646201Y1504331D2*
X970815D1*
X1187046D2*
X1216226D1*
X646201Y1479462D2*
X994546D1*
X1163315D2*
X1216226D1*
X646201Y1454593D2*
X1044594D1*
X1113266D2*
X1216226D1*
X646201Y1429724D2*
X1216226D1*
X646201Y1404856D2*
X1216226D1*
X2043701Y3508606D2*
X2033896Y3505408D1*
X2023807Y3503811D1*
X2013594D1*
X2003505Y3505408D1*
X1993791Y3508564D1*
X1984692Y3513202D1*
X1977039Y3518723D1*
X1935253Y3518701D1*
X999328Y2845039D1*
X995604Y2843846D1*
X968701Y2843701D1*
X643701D1*
Y1381201D1*
X1218701D1*
X1218854Y2695656D1*
X1220063Y2699375D1*
X1222362Y2702539D1*
X1229240Y2708715D1*
X1229323Y2721801D1*
X1230293Y2727921D1*
X1232207Y2733816D1*
X1235021Y2739340D1*
X1238665Y2744354D1*
X1268241Y2773164D1*
X1968579Y3449182D1*
X1973656Y3452738D1*
X1979227Y3455454D1*
X1985155Y3457265D1*
X1991293Y3458127D1*
X2043713Y3458201D1*
X2043701Y3508593D1*
X1209276Y2330983D2*
X1208068Y2320787D1*
X1206066Y2310719D1*
X1203280Y2300839D1*
X1199726Y2291207D1*
X1195429Y2281885D1*
X1190412Y2272928D1*
X1184709Y2264392D1*
X1178353Y2256331D1*
X1171386Y2248791D1*
X1163846Y2241824D1*
X1155785Y2235469D1*
X1147249Y2229765D1*
X1138293Y2224748D1*
X1128970Y2220451D1*
X1119339Y2216898D1*
X1109458Y2214112D1*
X1099390Y2212109D1*
X1089194Y2210902D1*
X1078937Y2210499D1*
X1068680Y2210902D1*
X1058484Y2212109D1*
X1048416Y2214112D1*
X1038535Y2216898D1*
X1028904Y2220451D1*
X1019581Y2224748D1*
X1010625Y2229765D1*
X1002089Y2235469D1*
X994028Y2241824D1*
X986488Y2248791D1*
X979521Y2256331D1*
X973165Y2264392D1*
X967462Y2272928D1*
X962445Y2281885D1*
X958148Y2291207D1*
X954594Y2300839D1*
X951808Y2310719D1*
X949806Y2320787D1*
X948598Y2330983D1*
X948196Y2341240D1*
X948598Y2351497D1*
X949806Y2361693D1*
X951808Y2371761D1*
X954594Y2381642D1*
X958148Y2391273D1*
X962445Y2400596D1*
X967462Y2409552D1*
X973165Y2418088D1*
X979521Y2426150D1*
X986488Y2433689D1*
X994028Y2440656D1*
X1002089Y2447012D1*
X1010625Y2452715D1*
X1019581Y2457732D1*
X1028904Y2462029D1*
X1038535Y2465583D1*
X1048416Y2468369D1*
X1058484Y2470371D1*
X1068680Y2471579D1*
X1078937Y2471982D1*
X1089194Y2471579D1*
X1099390Y2470371D1*
X1109458Y2468369D1*
X1119339Y2465583D1*
X1128970Y2462029D1*
X1138293Y2457732D1*
X1147249Y2452715D1*
X1155785Y2447012D1*
X1163846Y2440656D1*
X1171386Y2433689D1*
X1178353Y2426150D1*
X1184709Y2418088D1*
X1190412Y2409552D1*
X1195429Y2400596D1*
X1199726Y2391273D1*
X1203280Y2381642D1*
X1206066Y2371761D1*
X1208068Y2361693D1*
X1209276Y2351497D1*
X1209678Y2341240D1*
X1209276Y2330983D1*
Y1571140D2*
X1208068Y1560945D1*
X1206066Y1550877D1*
X1203280Y1540996D1*
X1199726Y1531365D1*
X1195429Y1522042D1*
X1190412Y1513085D1*
X1184709Y1504550D1*
X1178353Y1496488D1*
X1171386Y1488949D1*
X1163846Y1481982D1*
X1155785Y1475626D1*
X1147249Y1469923D1*
X1138293Y1464906D1*
X1128970Y1460609D1*
X1119339Y1457055D1*
X1109458Y1454269D1*
X1099390Y1452266D1*
X1089194Y1451059D1*
X1078937Y1450656D1*
X1068680Y1451059D1*
X1058484Y1452266D1*
X1048416Y1454269D1*
X1038535Y1457055D1*
X1028904Y1460609D1*
X1019581Y1464906D1*
X1010625Y1469923D1*
X1002089Y1475626D1*
X994028Y1481982D1*
X986488Y1488949D1*
X979521Y1496488D1*
X973165Y1504550D1*
X967462Y1513085D1*
X962445Y1522042D1*
X958148Y1531365D1*
X954594Y1540996D1*
X951808Y1550877D1*
X949806Y1560945D1*
X948598Y1571140D1*
X948196Y1581398D1*
X948598Y1591655D1*
X949806Y1601850D1*
X951808Y1611919D1*
X954594Y1621799D1*
X958148Y1631430D1*
X962445Y1640753D1*
X967462Y1649710D1*
X973165Y1658245D1*
X979521Y1666307D1*
X986488Y1673846D1*
X994028Y1680814D1*
X1002089Y1687169D1*
X1010625Y1692873D1*
X1019581Y1697890D1*
X1028904Y1702186D1*
X1038535Y1705740D1*
X1048416Y1708526D1*
X1058484Y1710529D1*
X1068680Y1711736D1*
X1078937Y1712139D1*
X1089194Y1711736D1*
X1099390Y1710529D1*
X1109458Y1708526D1*
X1119339Y1705740D1*
X1128970Y1702186D1*
X1138293Y1697890D1*
X1147249Y1692873D1*
X1155785Y1687169D1*
X1163846Y1680814D1*
X1171386Y1673846D1*
X1178353Y1666307D1*
X1184709Y1658245D1*
X1190412Y1649710D1*
X1195429Y1640753D1*
X1199726Y1631430D1*
X1203280Y1621799D1*
X1206066Y1611919D1*
X1208068Y1601850D1*
X1209276Y1591655D1*
X1209678Y1581398D1*
X1209276Y1571140D1*
X658701Y4056332D2*
X1386440D1*
X658701Y4031463D2*
X1434731D1*
X658701Y4006594D2*
X1482974D1*
X658701Y3981726D2*
X1026430D1*
X1131430D2*
X1531264D1*
X658701Y3956857D2*
X987612D1*
X1170248D2*
X1579555D1*
X658701Y3931988D2*
X966714D1*
X1191196D2*
X1627798D1*
X658701Y3907119D2*
X954115D1*
X1203744D2*
X1676088D1*
X658701Y3882251D2*
X947427D1*
X1210434D2*
X1724379D1*
X658701Y3857382D2*
X945766D1*
X1212143D2*
X1772622D1*
X658701Y3832513D2*
X948843D1*
X1209067D2*
X1820912D1*
X658701Y3807644D2*
X957046D1*
X1200815D2*
X1869203D1*
X658701Y3782776D2*
X971646D1*
X1186264D2*
X1917446D1*
X658701Y3757907D2*
X995912D1*
X1161948D2*
X1952016D1*
X658701Y3733038D2*
X1049282D1*
X1108627D2*
X1961734D1*
X658701Y3708169D2*
X1992251D1*
X2045151D2*
X2062270D1*
X658701Y3683301D2*
X2110562D1*
X658701Y3658432D2*
X2153726D1*
X658701Y3633563D2*
X2153726D1*
X658701Y3608694D2*
X2153726D1*
X658701Y3583825D2*
X2152895D1*
X658701Y3558957D2*
X1899672D1*
X2086802D2*
X2151822D1*
X658701Y3534088D2*
X1865151D1*
X2098080D2*
X2142348D1*
X658701Y3509219D2*
X1830580D1*
X2098178D2*
X2139223D1*
X658701Y3484350D2*
X1796059D1*
X2098178D2*
X2139223D1*
X658701Y3459482D2*
X1761490D1*
X2098178D2*
X2139223D1*
X658701Y3434613D2*
X1726967D1*
X2098178D2*
X2139223D1*
X658701Y3409744D2*
X1692446D1*
X2091831D2*
X2145571D1*
X658701Y3384875D2*
X1657875D1*
X2085678D2*
X2228726D1*
X658701Y3360007D2*
X1623354D1*
X2085727D2*
X2228726D1*
X658701Y3335138D2*
X1588832D1*
X2085678D2*
X2228726D1*
X658701Y3310269D2*
X1554262D1*
X658701Y3285400D2*
X1519741D1*
X658701Y3260531D2*
X1485171D1*
X658701Y3235663D2*
X1450650D1*
X658701Y3210794D2*
X1005336D1*
X1152524D2*
X1416127D1*
X658701Y3185925D2*
X976967D1*
X1180894D2*
X1381558D1*
X658701Y3161056D2*
X960268D1*
X1197592D2*
X1347035D1*
X658701Y3136188D2*
X950503D1*
X1207358D2*
X1312514D1*
X658701Y3111319D2*
X946108D1*
X1211802D2*
X1277944D1*
X658701Y3086450D2*
X946499D1*
X1211362D2*
X1243423D1*
X658701Y3061581D2*
X951822D1*
X658701Y3036713D2*
X962660D1*
X658701Y3011844D2*
X980874D1*
X658701Y2986975D2*
X1012612D1*
X658701Y2962106D2*
X1070718D1*
X658701Y2937238D2*
X1036196D1*
X658701Y2912369D2*
X1001626D1*
X2053723Y3713878D2*
X2048251Y3710705D1*
X2038815Y3706797D1*
X2028883Y3704412D1*
X2018701Y3703610D1*
X2008518Y3704412D1*
X1998587Y3706797D1*
X1989151Y3710705D1*
X1980441Y3716042D1*
X1972675Y3722675D1*
X1966042Y3730441D1*
X1960705Y3739151D1*
X1956797Y3748587D1*
X1954412Y3758518D1*
X1953740Y3765409D1*
X1340643Y4081215D1*
X656201Y4081201D1*
Y2895701D1*
X980957D1*
X1084782Y2970453D1*
X1068680Y2970744D1*
X1058484Y2971951D1*
X1048416Y2973954D1*
X1038535Y2976740D1*
X1028904Y2980294D1*
X1019581Y2984591D1*
X1010625Y2989608D1*
X1002089Y2995311D1*
X994028Y3001667D1*
X986488Y3008634D1*
X979521Y3016173D1*
X973165Y3024235D1*
X967462Y3032770D1*
X962445Y3041727D1*
X958148Y3051050D1*
X954594Y3060681D1*
X951808Y3070562D1*
X949806Y3080630D1*
X948598Y3090825D1*
X948196Y3101083D1*
X948598Y3111340D1*
X949806Y3121535D1*
X951808Y3131604D1*
X954594Y3141484D1*
X958148Y3151115D1*
X962445Y3160438D1*
X967462Y3169395D1*
X973165Y3177930D1*
X979521Y3185992D1*
X986488Y3193531D1*
X994028Y3200499D1*
X1002089Y3206854D1*
X1010625Y3212558D1*
X1019581Y3217575D1*
X1028904Y3221871D1*
X1038535Y3225425D1*
X1048416Y3228211D1*
X1058484Y3230214D1*
X1068680Y3231421D1*
X1078937Y3231824D1*
X1089194Y3231421D1*
X1099390Y3230214D1*
X1109458Y3228211D1*
X1119339Y3225425D1*
X1128970Y3221871D1*
X1138293Y3217575D1*
X1147249Y3212558D1*
X1155785Y3206854D1*
X1163846Y3200499D1*
X1171386Y3193531D1*
X1178353Y3185992D1*
X1184709Y3177930D1*
X1190412Y3169395D1*
X1195429Y3160438D1*
X1199726Y3151115D1*
X1203280Y3141484D1*
X1206066Y3131604D1*
X1208068Y3121535D1*
X1209276Y3111340D1*
X1209678Y3101083D1*
X1209276Y3090825D1*
X1208068Y3080630D1*
X1206066Y3070562D1*
X1203280Y3060681D1*
X1200795Y3053948D1*
X1910707Y3564969D1*
X1916241Y3567759D1*
X1922144Y3569648D1*
X1928270Y3570592D1*
X2018701Y3570701D1*
X2059301Y3570579D1*
X2065421Y3569609D1*
X2071316Y3567694D1*
X2076840Y3564881D1*
X2081854Y3561236D1*
X2086236Y3556854D1*
X2089881Y3551840D1*
X2092694Y3546316D1*
X2094609Y3540421D1*
X2095579Y3534301D1*
X2095701Y3456201D1*
X2095579Y3428101D1*
X2094609Y3421980D1*
X2092694Y3416085D1*
X2089881Y3410562D1*
X2086236Y3405547D1*
X2084486Y3403647D1*
X2083201Y3393701D1*
Y3377441D1*
X2083791Y3368701D1*
X2083189Y3360203D1*
X2083201Y3331152D1*
X2231201Y3331201D1*
Y3391701D1*
X2178101Y3391823D1*
X2171980Y3392793D1*
X2166085Y3394707D1*
X2160562Y3397521D1*
X2155547Y3401165D1*
X2151165Y3405547D1*
X2147521Y3410562D1*
X2144707Y3416085D1*
X2142793Y3421980D1*
X2141823Y3428101D1*
X2141701Y3506201D1*
X2141823Y3521801D1*
X2142793Y3527921D1*
X2144707Y3533816D1*
X2147521Y3539340D1*
X2151165Y3544354D1*
X2155843Y3548970D1*
X2154412Y3558518D1*
X2153610Y3568701D1*
X2154412Y3578883D1*
X2156217Y3586759D1*
X2156201Y3661133D1*
X2053720Y3713871D1*
X1209276Y3850668D2*
X1208068Y3840472D1*
X1206066Y3830404D1*
X1203280Y3820524D1*
X1199726Y3810892D1*
X1195429Y3801570D1*
X1190412Y3792613D1*
X1184709Y3784077D1*
X1178353Y3776016D1*
X1171386Y3768476D1*
X1163846Y3761509D1*
X1155785Y3755154D1*
X1147249Y3749450D1*
X1138293Y3744433D1*
X1128970Y3740136D1*
X1119339Y3736583D1*
X1109458Y3733797D1*
X1099390Y3731794D1*
X1089194Y3730587D1*
X1078937Y3730184D1*
X1068680Y3730587D1*
X1058484Y3731794D1*
X1048416Y3733797D1*
X1038535Y3736583D1*
X1028904Y3740136D1*
X1019581Y3744433D1*
X1010625Y3749450D1*
X1002089Y3755154D1*
X994028Y3761509D1*
X986488Y3768476D1*
X979521Y3776016D1*
X973165Y3784077D1*
X967462Y3792613D1*
X962445Y3801570D1*
X958148Y3810892D1*
X954594Y3820524D1*
X951808Y3830404D1*
X949806Y3840472D1*
X948598Y3850668D1*
X948196Y3860925D1*
X948598Y3871182D1*
X949806Y3881378D1*
X951808Y3891446D1*
X954594Y3901327D1*
X958148Y3910958D1*
X962445Y3920281D1*
X967462Y3929238D1*
X973165Y3937773D1*
X979521Y3945835D1*
X986488Y3953374D1*
X994028Y3960341D1*
X1002089Y3966697D1*
X1010625Y3972400D1*
X1019581Y3977417D1*
X1028904Y3981714D1*
X1038535Y3985268D1*
X1048416Y3988054D1*
X1058484Y3990056D1*
X1068680Y3991264D1*
X1078937Y3991667D1*
X1089194Y3991264D1*
X1099390Y3990056D1*
X1109458Y3988054D1*
X1119339Y3985268D1*
X1128970Y3981714D1*
X1138293Y3977417D1*
X1147249Y3972400D1*
X1155785Y3966697D1*
X1163846Y3960341D1*
X1171386Y3953374D1*
X1178353Y3945835D1*
X1184709Y3937773D1*
X1190412Y3929238D1*
X1195429Y3920281D1*
X1199726Y3910958D1*
X1203280Y3901327D1*
X1206066Y3891446D1*
X1208068Y3881378D1*
X1209276Y3871182D1*
X1209678Y3860925D1*
X1209276Y3850668D1*
X2104234Y2531332D2*
X2628726D1*
X1983701Y2506463D2*
X2011391D1*
X2076010D2*
X2628726D1*
X1983701Y2481594D2*
X2628726D1*
X1983701Y2456726D2*
X2628726D1*
X1983701Y2431857D2*
X2013394D1*
X2074008D2*
X2628726D1*
X2103598Y2406988D2*
X2628726D1*
X2111529Y2556223D2*
X2109335Y2547375D1*
X2105190Y2537370D1*
X2099533Y2528136D1*
X2092500Y2519902D1*
X2084265Y2512869D1*
X2075031Y2507211D1*
X2065026Y2503067D1*
X2054496Y2500538D1*
X2043701Y2499689D1*
X2032906Y2500538D1*
X2022375Y2503067D1*
X2012370Y2507211D1*
X2003136Y2512869D1*
X1994902Y2519902D1*
X1987869Y2528136D1*
X1987129Y2529245D1*
X1981152Y2529217D1*
X1981201Y2406201D1*
X1985741D1*
X1991224Y2413521D1*
X1998881Y2421177D1*
X2007642Y2427543D1*
X2017291Y2432459D1*
X2027591Y2435806D1*
X2038286Y2437500D1*
X2049115D1*
X2059811Y2435806D1*
X2070110Y2432459D1*
X2079760Y2427543D1*
X2088521Y2421177D1*
X2096177Y2413521D1*
X2101591Y2406185D1*
X2631201Y2406201D1*
Y2556201D1*
X2111524D1*
X1458504Y5499082D2*
X3777723D1*
X1443124Y5474213D2*
X3777723D1*
X1427694Y5449344D2*
X1564540D1*
X1584671D2*
X3777723D1*
X1412313Y5424476D2*
X1515516D1*
X1633651D2*
X3777723D1*
X1409676Y5399607D2*
X1500672D1*
X1648544D2*
X3777723D1*
X1409676Y5374738D2*
X1496131D1*
X1653085D2*
X3777723D1*
X1409676Y5349869D2*
X1499940D1*
X1649276D2*
X3777723D1*
X1409676Y5325001D2*
X1513758D1*
X1635458D2*
X3777723D1*
X1409676Y5300132D2*
X1553114D1*
X1596102D2*
X3777723D1*
X1409676Y5275263D2*
X3777723D1*
X1409676Y5250394D2*
X3777723D1*
X1409676Y5225526D2*
X2593934D1*
X2681258D2*
X3777723D1*
X1409676Y5200657D2*
X2547889D1*
X2727303D2*
X3777723D1*
X1409676Y5175788D2*
X2524256D1*
X2750936D2*
X3777723D1*
X1409676Y5150919D2*
X2509706D1*
X2765487D2*
X3777723D1*
X1409676Y5126050D2*
X2501210D1*
X2773983D2*
X3777723D1*
X1409676Y5101182D2*
X2497645D1*
X2777547D2*
X3777723D1*
X1409676Y5076313D2*
X2498622D1*
X2776571D2*
X3777723D1*
X1409676Y5051444D2*
X2504286D1*
X2770907D2*
X3777723D1*
X1409676Y5026575D2*
X2515223D1*
X2759969D2*
X3777723D1*
X1409676Y5001707D2*
X2533192D1*
X2742001D2*
X3777723D1*
X1409676Y4976838D2*
X2563172D1*
X2712020D2*
X3777723D1*
X1409676Y4951969D2*
X3777723D1*
X1409676Y4927100D2*
X3777723D1*
X1409676Y4902232D2*
X3777723D1*
X1409676Y4877363D2*
X3777723D1*
X1409676Y4852494D2*
X3777723D1*
X1409676Y4827625D2*
X3777723D1*
X1409676Y4802756D2*
X3777723D1*
X1409676Y4777888D2*
X3777723D1*
X1409676Y4753019D2*
X3777723D1*
X1409676Y4728150D2*
X3777723D1*
X1409676Y4703281D2*
X1897157D1*
X2340243D2*
X3777723D1*
X1409676Y4678413D2*
X1867518D1*
X2359481D2*
X3777723D1*
X1409676Y4653544D2*
X1839344D1*
X2360702D2*
X3777723D1*
X1409676Y4628675D2*
X1811170D1*
X2360702D2*
X3777723D1*
X1409676Y4603806D2*
X1782948D1*
X2360702D2*
X3777723D1*
X1409676Y4578938D2*
X1754774D1*
X2360702D2*
X3777723D1*
X1385995Y4554069D2*
X1726600D1*
X2360702D2*
X3777723D1*
X1361141Y4529200D2*
X1698426D1*
X2360702D2*
X3777723D1*
X1336288Y4504331D2*
X1670253D1*
X2357967D2*
X3777723D1*
X1311385Y4479463D2*
X1642030D1*
X2325643D2*
X3777723D1*
X711532Y4454594D2*
X1613856D1*
X2099325D2*
X3777723D1*
X686678Y4429725D2*
X1585682D1*
X1905526D2*
X1938563D1*
X2098837D2*
X3777723D1*
X661825Y4404856D2*
X1557508D1*
X1877547D2*
X1947547D1*
X2089852D2*
X3777723D1*
X636922Y4379987D2*
X1529335D1*
X1849569D2*
X1969715D1*
X2067684D2*
X3777723D1*
X612069Y4355119D2*
X1501112D1*
X1821590D2*
X3777723D1*
X587215Y4330250D2*
X626258D1*
X1286141D2*
X1301250D1*
X1793612D2*
X3777723D1*
X562313Y4305381D2*
X592567D1*
X1765633D2*
X3777723D1*
X537460Y4280512D2*
X561512D1*
X1737655D2*
X3777723D1*
X512606Y4255644D2*
X530409D1*
X1709676D2*
X3777723D1*
X487704Y4230775D2*
X499330D1*
X1681698D2*
X3777723D1*
X462850Y4205906D2*
X478634D1*
X1653719D2*
X3777723D1*
X437997Y4181037D2*
X476698D1*
X1625741D2*
X3777723D1*
X434701Y4156169D2*
X476698D1*
X1597811D2*
X3777723D1*
X434701Y4131300D2*
X476698D1*
X1569833D2*
X3777723D1*
X434701Y4106431D2*
X476698D1*
X1541854D2*
X3777723D1*
X434701Y4081562D2*
X476698D1*
X1509628D2*
X3777723D1*
X434701Y4056693D2*
X476698D1*
X1504256D2*
X3777723D1*
X434701Y4031825D2*
X476698D1*
X1552547D2*
X3777723D1*
X434701Y4006956D2*
X476698D1*
X1600790D2*
X3777723D1*
X434701Y3982087D2*
X476698D1*
X1649081D2*
X3216688D1*
X3319930D2*
X3777723D1*
X434701Y3957218D2*
X476698D1*
X1697372D2*
X3177381D1*
X3359237D2*
X3777723D1*
X434701Y3932350D2*
X476698D1*
X1745614D2*
X3156288D1*
X3380331D2*
X3777723D1*
X434701Y3907481D2*
X476698D1*
X1793905D2*
X3143641D1*
X3392977D2*
X3777723D1*
X434701Y3882612D2*
X476698D1*
X1842196D2*
X3136854D1*
X3399715D2*
X3777723D1*
X434701Y3857743D2*
X476698D1*
X1890438D2*
X3135096D1*
X3401522D2*
X3777723D1*
X434701Y3832875D2*
X476698D1*
X1938729D2*
X2005311D1*
X2032081D2*
X3138124D1*
X3398495D2*
X3777723D1*
X434701Y3808006D2*
X476698D1*
X2073104D2*
X3146278D1*
X3390340D2*
X3777723D1*
X434701Y3783137D2*
X476698D1*
X2084676D2*
X3160731D1*
X3375887D2*
X3777723D1*
X434701Y3758268D2*
X476698D1*
X2085458D2*
X3184852D1*
X3351766D2*
X3777723D1*
X434701Y3733400D2*
X476698D1*
X2131844D2*
X3237001D1*
X3299618D2*
X3777723D1*
X434701Y3708531D2*
X476698D1*
X2180087D2*
X3777723D1*
X434701Y3683662D2*
X476698D1*
X2207723D2*
X3777723D1*
X434701Y3658793D2*
X476698D1*
X2210702D2*
X3777723D1*
X434701Y3633924D2*
X476698D1*
X2210702D2*
X3777723D1*
X434701Y3609056D2*
X476698D1*
X2210702D2*
X3777723D1*
X434701Y3584187D2*
X476698D1*
X2210702D2*
X3777723D1*
X434701Y3559318D2*
X476698D1*
X2210702D2*
X3777723D1*
X434701Y3534449D2*
X476698D1*
X2563583D2*
X3777723D1*
X434701Y3509581D2*
X476698D1*
X2592684D2*
X3777723D1*
X434701Y3484712D2*
X476698D1*
X2621786D2*
X3777723D1*
X434701Y3459843D2*
X476698D1*
X2650887D2*
X3777723D1*
X434701Y3434974D2*
X476698D1*
X2680038D2*
X3777723D1*
X434701Y3410106D2*
X476698D1*
X2709139D2*
X3777723D1*
X434701Y3385237D2*
X476698D1*
X2738241D2*
X3777723D1*
X434701Y3360368D2*
X476698D1*
X2285751D2*
X2295673D1*
X2767342D2*
X3777723D1*
X434701Y3335499D2*
X476698D1*
X2285702D2*
X2321766D1*
X2796493D2*
X3777723D1*
X434701Y3310630D2*
X476698D1*
X2284872D2*
X2347840D1*
X2825594D2*
X3777723D1*
X434701Y3285762D2*
X476698D1*
X2267977D2*
X2373866D1*
X2854696D2*
X3777723D1*
X434701Y3260893D2*
X476698D1*
X2085702D2*
X2399940D1*
X2883846D2*
X3777723D1*
X434701Y3236024D2*
X476698D1*
X2085702D2*
X2425965D1*
X2912948D2*
X3777723D1*
X434701Y3211155D2*
X476698D1*
X2085702D2*
X2452040D1*
X2942049D2*
X3195253D1*
X3341366D2*
X3777723D1*
X434701Y3186287D2*
X476698D1*
X2085702D2*
X2478114D1*
X2971151D2*
X3166639D1*
X3369979D2*
X3777723D1*
X434701Y3161418D2*
X476698D1*
X2085702D2*
X2504139D1*
X3000301D2*
X3149842D1*
X3386776D2*
X3777723D1*
X434701Y3136549D2*
X476698D1*
X2085702D2*
X2530213D1*
X3029403D2*
X3139979D1*
X3396639D2*
X3777723D1*
X434701Y3111680D2*
X476698D1*
X2085702D2*
X2556239D1*
X3058504D2*
X3135487D1*
X3401131D2*
X3777723D1*
X434701Y3086812D2*
X476698D1*
X2085702D2*
X2582313D1*
X3087606D2*
X3135829D1*
X3400790D2*
X3777723D1*
X434701Y3061943D2*
X476698D1*
X2085702D2*
X2608338D1*
X3116756D2*
X3141053D1*
X3395565D2*
X3777723D1*
X434701Y3037074D2*
X476698D1*
X2085702D2*
X2634413D1*
X3384823D2*
X3777723D1*
X434701Y3012205D2*
X476698D1*
X2085702D2*
X2660438D1*
X3366708D2*
X3777723D1*
X434701Y2987337D2*
X476698D1*
X2085702D2*
X2686512D1*
X3335262D2*
X3777723D1*
X434701Y2962468D2*
X476698D1*
X2085702D2*
X2712587D1*
X3233212D2*
X3777723D1*
X434701Y2937599D2*
X476698D1*
X2085702D2*
X2738612D1*
X3262313D2*
X3777723D1*
X434701Y2912730D2*
X476698D1*
X2085702D2*
X2764686D1*
X3291415D2*
X3777723D1*
X434701Y2887861D2*
X476698D1*
X2085702D2*
X2790712D1*
X3320565D2*
X3777723D1*
X434701Y2862993D2*
X476698D1*
X2085702D2*
X2816786D1*
X3349667D2*
X3777723D1*
X434701Y2838124D2*
X476698D1*
X2085702D2*
X2842811D1*
X3378768D2*
X3777723D1*
X434701Y2813255D2*
X476698D1*
X2085702D2*
X2868885D1*
X3407870D2*
X3777723D1*
X434701Y2788386D2*
X476698D1*
X2085702D2*
X2894960D1*
X3437020D2*
X3777723D1*
X434701Y2763518D2*
X476698D1*
X2085702D2*
X2920985D1*
X3466122D2*
X3777723D1*
X434701Y2738649D2*
X476698D1*
X2085702D2*
X2947059D1*
X3495223D2*
X3777723D1*
X434701Y2713780D2*
X476698D1*
X2115243D2*
X2973085D1*
X3524325D2*
X3777723D1*
X434701Y2688911D2*
X476698D1*
X2115243D2*
X2999159D1*
X3553475D2*
X3777723D1*
X434701Y2664043D2*
X476698D1*
X2115243D2*
X3025184D1*
X3582577D2*
X3777723D1*
X434701Y2639174D2*
X476698D1*
X2115243D2*
X3051258D1*
X3611678D2*
X3777723D1*
X434701Y2614305D2*
X476698D1*
X2115243D2*
X3064198D1*
X3640780D2*
X3777723D1*
X434701Y2589436D2*
X476698D1*
X2679794D2*
X3064198D1*
X3669930D2*
X3777723D1*
X434701Y2564568D2*
X476698D1*
X2685702D2*
X3064198D1*
X3699032D2*
X3777723D1*
X434701Y2539699D2*
X476698D1*
X2685702D2*
X3064198D1*
X3728133D2*
X3777723D1*
X434701Y2514830D2*
X476698D1*
X1273202D2*
X1690614D1*
X1798348D2*
X1926698D1*
X2685702D2*
X3064198D1*
X3754549D2*
X3777723D1*
X434701Y2489961D2*
X476698D1*
X1273202D2*
X1676307D1*
X1812655D2*
X1926698D1*
X2685702D2*
X3064198D1*
X3760702D2*
X3777685D1*
X434701Y2465092D2*
X476698D1*
X1273202D2*
X1673036D1*
X1815926D2*
X1926698D1*
X2685702D2*
X3064198D1*
X3760702D2*
X3777685D1*
X434701Y2440224D2*
X476698D1*
X1273202D2*
X1679090D1*
X1809872D2*
X1926698D1*
X2685702D2*
X3064198D1*
X3760702D2*
X3777685D1*
X434701Y2415355D2*
X476698D1*
X1273202D2*
X1698182D1*
X1790780D2*
X1926698D1*
X2685702D2*
X3064198D1*
X3760702D2*
X3777685D1*
X434701Y2390486D2*
X476698D1*
X1273202D2*
X1926844D1*
X2685555D2*
X3064198D1*
X3760702D2*
X3777685D1*
X434701Y2365617D2*
X476698D1*
X1273202D2*
X1938465D1*
X2673983D2*
X3064198D1*
X3760702D2*
X3777685D1*
X434701Y2340749D2*
X476698D1*
X1273202D2*
X1978065D1*
X2109335D2*
X3064198D1*
X3760702D2*
X3777685D1*
X434701Y2315880D2*
X476698D1*
X1273202D2*
X1996766D1*
X2090633D2*
X3064198D1*
X3760702D2*
X3777685D1*
X434701Y2291011D2*
X476698D1*
X1273202D2*
X3064198D1*
X3760702D2*
X3777685D1*
X434701Y2266142D2*
X476698D1*
X1273202D2*
X3064198D1*
X3760702D2*
X3777685D1*
X434701Y2241274D2*
X476698D1*
X1273202D2*
X3064198D1*
X3760702D2*
X3777685D1*
X434701Y2216405D2*
X476698D1*
X1273202D2*
X1692079D1*
X1796883D2*
X1991297D1*
X2096102D2*
X3064198D1*
X3760702D2*
X3777685D1*
X434701Y2191536D2*
X476698D1*
X1273202D2*
X1676844D1*
X1812118D2*
X1976063D1*
X2111337D2*
X3064198D1*
X3760702D2*
X3777685D1*
X434701Y2166667D2*
X476698D1*
X1273202D2*
X1672987D1*
X1815975D2*
X1972206D1*
X2115194D2*
X3064198D1*
X3760702D2*
X3777685D1*
X434701Y2141798D2*
X476698D1*
X1273202D2*
X1678407D1*
X1810555D2*
X1977626D1*
X2109774D2*
X3064198D1*
X3760702D2*
X3777685D1*
X434701Y2116930D2*
X476698D1*
X1273202D2*
X1692616D1*
X1796395D2*
X1991835D1*
X2095565D2*
X3064198D1*
X3760702D2*
X3777685D1*
X434701Y2092061D2*
X476698D1*
X1273202D2*
X1677040D1*
X1811922D2*
X1976258D1*
X2111141D2*
X3064198D1*
X3760702D2*
X3777685D1*
X434701Y2067192D2*
X476698D1*
X1273202D2*
X1672987D1*
X1815975D2*
X1972206D1*
X2115194D2*
X3064198D1*
X3760702D2*
X3777685D1*
X434701Y2042323D2*
X476698D1*
X1273202D2*
X1678212D1*
X1810799D2*
X1977430D1*
X2109969D2*
X3064198D1*
X3760702D2*
X3777685D1*
X434701Y2017455D2*
X476698D1*
X1273202D2*
X1695741D1*
X1793221D2*
X1992323D1*
X2095077D2*
X3064198D1*
X3760702D2*
X3777685D1*
X434701Y1992586D2*
X476698D1*
X1273202D2*
X1976454D1*
X2110946D2*
X3064198D1*
X3760702D2*
X3777685D1*
X434701Y1967717D2*
X476698D1*
X1273202D2*
X1972157D1*
X2115243D2*
X3064198D1*
X3760702D2*
X3777685D1*
X434701Y1942848D2*
X476698D1*
X1273202D2*
X1977186D1*
X2110213D2*
X2876258D1*
X3011141D2*
X3064198D1*
X3760702D2*
X3777685D1*
X434701Y1917980D2*
X476698D1*
X1273202D2*
X1994374D1*
X2093026D2*
X2855848D1*
X3031551D2*
X3064198D1*
X3760702D2*
X3777685D1*
X434701Y1893111D2*
X476698D1*
X1273202D2*
X2845741D1*
X3041708D2*
X3064198D1*
X3760702D2*
X3777685D1*
X434701Y1868242D2*
X476698D1*
X1273202D2*
X2842665D1*
X3044735D2*
X3064198D1*
X3760702D2*
X3777685D1*
X434701Y1843373D2*
X476698D1*
X1273202D2*
X2845936D1*
X3041463D2*
X3064198D1*
X3760702D2*
X3777685D1*
X434701Y1818505D2*
X476698D1*
X1273202D2*
X2856385D1*
X3031014D2*
X3064198D1*
X3760702D2*
X3777685D1*
X434701Y1793636D2*
X476698D1*
X1273202D2*
X2877333D1*
X3010067D2*
X3064198D1*
X3760702D2*
X3777685D1*
X434701Y1768767D2*
X476698D1*
X1273202D2*
X3064198D1*
X3760702D2*
X3777685D1*
X434701Y1743898D2*
X476698D1*
X1273202D2*
X3064198D1*
X3760702D2*
X3777685D1*
X434701Y1719029D2*
X476698D1*
X1273202D2*
X3064198D1*
X3760702D2*
X3777685D1*
X434701Y1694161D2*
X476698D1*
X1273202D2*
X3064198D1*
X3760702D2*
X3777685D1*
X434701Y1669292D2*
X476698D1*
X1273202D2*
X3064198D1*
X3760702D2*
X3777685D1*
X434701Y1644423D2*
X476698D1*
X1273202D2*
X2570887D1*
X2654305D2*
X3064198D1*
X3760702D2*
X3777685D1*
X434701Y1619554D2*
X476698D1*
X1273202D2*
X2548915D1*
X2676278D2*
X3064198D1*
X3760702D2*
X3777685D1*
X434701Y1594686D2*
X476698D1*
X1273202D2*
X2541444D1*
X2683749D2*
X3064198D1*
X3760702D2*
X3777685D1*
X434701Y1569817D2*
X476698D1*
X1273202D2*
X2543397D1*
X2681795D2*
X3064198D1*
X3760702D2*
X3777685D1*
X434701Y1544948D2*
X476698D1*
X1273202D2*
X2555799D1*
X2669393D2*
X3064198D1*
X3760702D2*
X3777685D1*
X434701Y1520079D2*
X476698D1*
X1273202D2*
X2595741D1*
X2629452D2*
X3064198D1*
X3760702D2*
X3777685D1*
X434701Y1495211D2*
X476698D1*
X1273202D2*
X3064198D1*
X3760702D2*
X3777685D1*
X434701Y1470342D2*
X476698D1*
X1273202D2*
X3064198D1*
X3760702D2*
X3777685D1*
X434701Y1445473D2*
X476698D1*
X1273202D2*
X3064198D1*
X3760702D2*
X3777685D1*
X434701Y1420604D2*
X476698D1*
X1273202D2*
X3064198D1*
X3760702D2*
X3777685D1*
X434701Y1395735D2*
X476698D1*
X1273202D2*
X3064198D1*
X3760702D2*
X3777685D1*
X434701Y1370867D2*
X476698D1*
X1273202D2*
X3071473D1*
X3753426D2*
X3777723D1*
X434701Y1345998D2*
X483876D1*
X1266024D2*
X1396131D1*
X1491268D2*
X1771131D1*
X1866268D2*
X2146131D1*
X2241268D2*
X3777723D1*
X434701Y1321129D2*
X1377870D1*
X1509530D2*
X1752870D1*
X1884530D2*
X2127870D1*
X2259530D2*
X3777723D1*
X434701Y1296260D2*
X1372206D1*
X1515194D2*
X1747206D1*
X1890194D2*
X2122206D1*
X2265194D2*
X3777723D1*
X434701Y1271392D2*
X1375868D1*
X1511532D2*
X1750868D1*
X1886532D2*
X2125868D1*
X2261532D2*
X3777723D1*
X434701Y1246523D2*
X1390809D1*
X1496590D2*
X1765809D1*
X1871590D2*
X2140809D1*
X2246590D2*
X3777723D1*
X434701Y1221654D2*
X3777723D1*
X434701Y1196785D2*
X3777723D1*
X434701Y1171917D2*
X3777723D1*
X434701Y1147048D2*
X3777723D1*
X434701Y1122179D2*
X3777723D1*
X447030Y1097310D2*
X3765370D1*
X471883Y1072442D2*
X3740516D1*
X496786Y1047573D2*
X3715614D1*
X521639Y1022704D2*
X3690760D1*
X546493Y997835D2*
X3665907D1*
X571395Y972966D2*
X3641004D1*
X596249Y948098D2*
X3616151D1*
X621102Y923229D2*
X3591297D1*
X646004Y898360D2*
X3566395D1*
X670858Y873491D2*
X3541542D1*
X695712Y848623D2*
X3516688D1*
X720614Y823754D2*
X3491786D1*
X745467Y798885D2*
X3466932D1*
X770321Y774016D2*
X3442079D1*
X795223Y749148D2*
X3417176D1*
X820077Y724279D2*
X3392323D1*
X844930Y699410D2*
X3367469D1*
X869784Y674541D2*
X3342616D1*
X894686Y649672D2*
X3317713D1*
X919540Y624804D2*
X3292860D1*
X944393Y599935D2*
X3268006D1*
X969295Y575066D2*
X3243104D1*
X994149Y550197D2*
X3218251D1*
X1019003Y525329D2*
X3193397D1*
X1043905Y500460D2*
X3168495D1*
X1068758Y475591D2*
X3143641D1*
X1093612Y450722D2*
X3118788D1*
X1572571Y2529176D2*
Y2523492D1*
X1414831D1*
Y2529205D1*
X1270703Y2529201D1*
X1270579Y1365602D1*
X1269609Y1359480D1*
X1267694Y1353585D1*
X1264880Y1348062D1*
X1261237Y1343048D1*
X1256854Y1338665D1*
X1251840Y1335021D1*
X1246317Y1332207D1*
X1240422Y1330292D1*
X1234300Y1329322D1*
X1156201Y1329201D1*
X515602Y1329322D1*
X509480Y1330292D1*
X503585Y1332207D1*
X498062Y1335021D1*
X493048Y1338665D1*
X488665Y1343048D1*
X485021Y1348062D1*
X482207Y1353585D1*
X480292Y1359480D1*
X479322Y1365602D1*
X479201Y1443701D1*
X479322Y4196800D1*
X480292Y4202922D1*
X482207Y4208817D1*
X485021Y4214340D1*
X488665Y4219354D1*
X494025Y4224545D1*
X621521Y4326386D1*
X626908Y4329453D1*
X632707Y4331640D1*
X638778Y4332893D1*
X656201Y4333201D1*
X1271800Y4333079D1*
X1277922Y4332109D1*
X1283817Y4330194D1*
X1289340Y4327380D1*
X1292213Y4325425D1*
X1295483Y4325657D1*
X1300768Y4328896D1*
X1306495Y4331268D1*
X1312522Y4332715D1*
X1318701Y4333201D1*
X1478808D1*
X1894971Y4700279D1*
X1900203Y4703602D1*
X1905891Y4706066D1*
X1911894Y4707610D1*
X1918701Y4708201D1*
X2321800Y4708079D1*
X2327922Y4707109D1*
X2333817Y4705194D1*
X2339340Y4702380D1*
X2344354Y4698737D1*
X2348737Y4694354D1*
X2352380Y4689340D1*
X2355194Y4683817D1*
X2357109Y4677922D1*
X2358079Y4671800D1*
X2358201Y4593701D1*
X2358079Y4515602D1*
X2357110Y4509480D1*
X2355194Y4503585D1*
X2352380Y4498062D1*
X2348737Y4493047D1*
X2344354Y4488665D1*
X2339340Y4485021D1*
X2333817Y4482207D1*
X2327922Y4480292D1*
X2321800Y4479322D1*
X2243701Y4479201D1*
X2089160D1*
X2093711Y4468073D1*
X2096600Y4456039D1*
X2097571Y4443701D1*
X2096600Y4431363D1*
X2093711Y4419329D1*
X2088975Y4407895D1*
X2082508Y4397342D1*
X2074470Y4387931D1*
X2065059Y4379894D1*
X2054507Y4373427D1*
X2043073Y4368691D1*
X2031039Y4365802D1*
X2018701Y4364831D1*
X2006363Y4365802D1*
X1994329Y4368691D1*
X1982895Y4373427D1*
X1972342Y4379894D1*
X1962931Y4387931D1*
X1954894Y4397342D1*
X1948427Y4407895D1*
X1943691Y4419329D1*
X1940802Y4431363D1*
X1939831Y4443701D1*
X1940802Y4456039D1*
X1942857Y4465116D1*
X1517546Y4087210D1*
X1512326Y4083868D1*
X1506648Y4081383D1*
X1500651Y4079817D1*
X1493701Y4079201D1*
X1458105D1*
X1972309Y3814306D1*
X1980442Y3821360D1*
X1989150Y3826697D1*
X1998587Y3830606D1*
X2008518Y3832990D1*
X2018701Y3833791D1*
X2028883Y3832990D1*
X2038815Y3830606D1*
X2048251Y3826697D1*
X2056960Y3821360D1*
X2064727Y3814727D1*
X2071360Y3806960D1*
X2076697Y3798251D1*
X2080606Y3788815D1*
X2082990Y3778883D1*
X2083791Y3768701D1*
X2082990Y3758518D1*
X2082768Y3757402D1*
X2189489Y3702288D1*
X2194488Y3698622D1*
X2198851Y3694220D1*
X2202472Y3689189D1*
X2205261Y3683654D1*
X2207150Y3677751D1*
X2208092Y3671624D1*
X2208201Y3581201D1*
Y3558203D1*
X2521800Y3558079D1*
X2527922Y3557110D1*
X2533817Y3555194D1*
X2539340Y3552380D1*
X2544356Y3548736D1*
X3172146Y3012498D1*
X3162535Y3024235D1*
X3156832Y3032770D1*
X3151816Y3041727D1*
X3147518Y3051050D1*
X3143965Y3060681D1*
X3141178Y3070562D1*
X3139175Y3080630D1*
X3137969Y3090825D1*
X3137566Y3101083D1*
X3137969Y3111341D1*
X3139175Y3121535D1*
X3141178Y3131604D1*
X3143965Y3141484D1*
X3147518Y3151115D1*
X3151816Y3160438D1*
X3156832Y3169395D1*
X3162535Y3177931D1*
X3168890Y3185992D1*
X3175859Y3193531D1*
X3183397Y3200499D1*
X3191459Y3206855D1*
X3199995Y3212558D1*
X3208952Y3217574D1*
X3218274Y3221872D1*
X3227906Y3225425D1*
X3237786Y3228212D1*
X3247855Y3230215D1*
X3258049Y3231421D1*
X3268307Y3231824D1*
X3278565Y3231421D1*
X3288760Y3230215D1*
X3298828Y3228212D1*
X3308708Y3225425D1*
X3318340Y3221872D1*
X3327662Y3217574D1*
X3336619Y3212558D1*
X3345155Y3206855D1*
X3353217Y3200499D1*
X3360755Y3193531D1*
X3367724Y3185992D1*
X3374079Y3177931D1*
X3379783Y3169395D1*
X3384799Y3160438D1*
X3389096Y3151115D1*
X3392650Y3141484D1*
X3395436Y3131604D1*
X3397439Y3121535D1*
X3398646Y3111341D1*
X3399049Y3101083D1*
X3398646Y3090825D1*
X3397439Y3080630D1*
X3395436Y3070562D1*
X3392650Y3060681D1*
X3389096Y3051050D1*
X3384799Y3041727D1*
X3379783Y3032770D1*
X3374079Y3024235D1*
X3367724Y3016173D1*
X3360755Y3008634D1*
X3353217Y3001666D1*
X3345155Y2995311D1*
X3336619Y2989607D1*
X3327662Y2984591D1*
X3318340Y2980293D1*
X3308708Y2976740D1*
X3298828Y2973954D1*
X3288760Y2971951D1*
X3278565Y2970744D1*
X3268307Y2970341D1*
X3258049Y2970744D1*
X3247855Y2971951D1*
X3237786Y2973954D1*
X3227906Y2976740D1*
X3218274Y2980293D1*
X3208952Y2984591D1*
X3195094Y2992882D1*
X3746633Y2521630D1*
X3750658Y2516917D1*
X3753897Y2511632D1*
X3756268Y2505905D1*
X3757715Y2499878D1*
X3758201Y2493701D1*
X3758079Y1390602D1*
X3757109Y1384480D1*
X3755194Y1378585D1*
X3752380Y1373062D1*
X3748737Y1368048D1*
X3744354Y1363665D1*
X3739340Y1360021D1*
X3733817Y1357207D1*
X3727922Y1355292D1*
X3721800Y1354322D1*
X3643701Y1354201D1*
X3103102Y1354322D1*
X3096980Y1355292D1*
X3091085Y1357207D1*
X3085562Y1360021D1*
X3080548Y1363665D1*
X3076165Y1368048D1*
X3072521Y1373062D1*
X3069707Y1378585D1*
X3067792Y1384480D1*
X3066822Y1390602D1*
X3066701Y1468701D1*
Y2626855D1*
X2283554Y3374348D1*
X2283591Y3363594D1*
X2283201Y3356201D1*
X2283079Y3315602D1*
X2282110Y3309480D1*
X2280194Y3303585D1*
X2277380Y3298062D1*
X2273737Y3293047D1*
X2269354Y3288665D1*
X2264340Y3285021D1*
X2258817Y3282207D1*
X2252922Y3280292D1*
X2246800Y3279322D1*
X2168701Y3279201D1*
X2083203D1*
X2083201Y2737695D1*
X2112728Y2737728D1*
Y2608187D1*
X2646800Y2608079D1*
X2652922Y2607109D1*
X2658817Y2605194D1*
X2664340Y2602380D1*
X2669354Y2598737D1*
X2673737Y2594354D1*
X2677380Y2589340D1*
X2680194Y2583817D1*
X2682109Y2577922D1*
X2683079Y2571800D1*
X2683201Y2493701D1*
X2683079Y2390602D1*
X2682109Y2384480D1*
X2680194Y2378585D1*
X2677380Y2373062D1*
X2673737Y2368048D1*
X2669354Y2363665D1*
X2664339Y2360021D1*
X2658817Y2357208D1*
X2652922Y2355292D1*
X2646800Y2354323D1*
X2568701Y2354201D1*
X2111230D1*
X2107474Y2342285D1*
X2102556Y2332634D1*
X2096190Y2323871D1*
X2088531Y2316212D1*
X2079768Y2309845D1*
X2070116Y2304928D1*
X2059815Y2301580D1*
X2049117Y2299886D1*
X2038285D1*
X2027587Y2301580D1*
X2017285Y2304928D1*
X2007634Y2309845D1*
X1998871Y2316212D1*
X1991212Y2323871D1*
X1984845Y2332634D1*
X1979928Y2342285D1*
X1976580Y2352587D1*
X1976254Y2354227D1*
X1965602Y2354323D1*
X1959480Y2355292D1*
X1953585Y2357208D1*
X1948062Y2360021D1*
X1943048Y2363665D1*
X1938665Y2368048D1*
X1935021Y2373062D1*
X1932208Y2378585D1*
X1930292Y2384480D1*
X1929323Y2390602D1*
X1929201Y2468701D1*
Y2529199D1*
X1801074Y2529201D1*
X1796977Y2523871D1*
X1792039Y2518727D1*
X1796977Y2513531D1*
X1803344Y2504768D1*
X1808261Y2495116D1*
X1811609Y2484815D1*
X1813303Y2474117D1*
Y2463285D1*
X1811609Y2452587D1*
X1808261Y2442285D1*
X1803344Y2432634D1*
X1796977Y2423871D1*
X1789318Y2416212D1*
X1780555Y2409845D1*
X1770904Y2404928D1*
X1760602Y2401580D1*
X1749904Y2399886D1*
X1739072D1*
X1728374Y2401580D1*
X1718072Y2404928D1*
X1708421Y2409845D1*
X1699658Y2416212D1*
X1691999Y2423871D1*
X1685633Y2432634D1*
X1680715Y2442285D1*
X1677368Y2452587D1*
X1675673Y2463285D1*
Y2474117D1*
X1677368Y2484815D1*
X1680715Y2495116D1*
X1685633Y2504768D1*
X1691999Y2513531D1*
X1696938Y2518675D1*
X1691999Y2523871D1*
X1687926Y2529201D1*
X1572558D1*
X1512516Y1288285D2*
X1510821Y1277587D1*
X1507474Y1267285D1*
X1502556Y1257634D1*
X1496190Y1248871D1*
X1488531Y1241212D1*
X1479768Y1234845D1*
X1470116Y1229928D1*
X1459815Y1226580D1*
X1449117Y1224886D1*
X1438285D1*
X1427587Y1226580D1*
X1417285Y1229928D1*
X1407634Y1234845D1*
X1398871Y1241212D1*
X1391212Y1248871D1*
X1384845Y1257634D1*
X1379928Y1267285D1*
X1376580Y1277587D1*
X1374886Y1288285D1*
Y1299117D1*
X1376580Y1309815D1*
X1379928Y1320116D1*
X1384845Y1329768D1*
X1391212Y1338531D1*
X1398871Y1346190D1*
X1407634Y1352556D1*
X1417285Y1357474D1*
X1427587Y1360821D1*
X1438285Y1362516D1*
X1449117D1*
X1459815Y1360821D1*
X1470116Y1357474D1*
X1479768Y1352556D1*
X1488531Y1346190D1*
X1496190Y1338531D1*
X1502556Y1329768D1*
X1507474Y1320116D1*
X1510821Y1309815D1*
X1512516Y1299117D1*
Y1288285D1*
X1887516D2*
X1885821Y1277587D1*
X1882474Y1267285D1*
X1877556Y1257634D1*
X1871190Y1248871D1*
X1863531Y1241212D1*
X1854768Y1234845D1*
X1845116Y1229928D1*
X1834815Y1226580D1*
X1824117Y1224886D1*
X1813285D1*
X1802587Y1226580D1*
X1792285Y1229928D1*
X1782634Y1234845D1*
X1773871Y1241212D1*
X1766212Y1248871D1*
X1759845Y1257634D1*
X1754928Y1267285D1*
X1751580Y1277587D1*
X1749886Y1288285D1*
Y1299117D1*
X1751580Y1309815D1*
X1754928Y1320116D1*
X1759845Y1329768D1*
X1766212Y1338531D1*
X1773871Y1346190D1*
X1782634Y1352556D1*
X1792285Y1357474D1*
X1802587Y1360821D1*
X1813285Y1362516D1*
X1824117D1*
X1834815Y1360821D1*
X1845116Y1357474D1*
X1854768Y1352556D1*
X1863531Y1346190D1*
X1871190Y1338531D1*
X1877556Y1329768D1*
X1882474Y1320116D1*
X1885821Y1309815D1*
X1887516Y1299117D1*
Y1288285D1*
X2262516D2*
X2260821Y1277587D1*
X2257474Y1267285D1*
X2252556Y1257634D1*
X2246190Y1248871D1*
X2238531Y1241212D1*
X2229768Y1234845D1*
X2220116Y1229928D1*
X2209815Y1226580D1*
X2199117Y1224886D1*
X2188285D1*
X2177587Y1226580D1*
X2167285Y1229928D1*
X2157634Y1234845D1*
X2148871Y1241212D1*
X2141212Y1248871D1*
X2134845Y1257634D1*
X2129928Y1267285D1*
X2126580Y1277587D1*
X2124886Y1288285D1*
Y1299117D1*
X2126580Y1309815D1*
X2129928Y1320116D1*
X2134845Y1329768D1*
X2141212Y1338531D1*
X2148871Y1346190D1*
X2157634Y1352556D1*
X2167285Y1357474D1*
X2177587Y1360821D1*
X2188285Y1362516D1*
X2199117D1*
X2209815Y1360821D1*
X2220116Y1357474D1*
X2229768Y1352556D1*
X2238531Y1346190D1*
X2246190Y1338531D1*
X2252556Y1329768D1*
X2257474Y1320116D1*
X2260821Y1309815D1*
X2262516Y1299117D1*
Y1288285D1*
X2681413Y1582183D2*
X2679719Y1571484D1*
X2676372Y1561183D1*
X2671454Y1551532D1*
X2665087Y1542769D1*
X2657428Y1535109D1*
X2648665Y1528743D1*
X2639014Y1523825D1*
X2628713Y1520478D1*
X2618014Y1518784D1*
X2607183D1*
X2596484Y1520478D1*
X2586183Y1523825D1*
X2576532Y1528743D1*
X2567769Y1535109D1*
X2560109Y1542769D1*
X2553743Y1551532D1*
X2548825Y1561183D1*
X2545478Y1571484D1*
X2543784Y1582183D1*
Y1593014D1*
X2545478Y1603713D1*
X2548825Y1614014D1*
X2553743Y1623665D1*
X2560109Y1632428D1*
X2567769Y1640087D1*
X2576532Y1646454D1*
X2586183Y1651372D1*
X2596484Y1654719D1*
X2607183Y1656413D1*
X2618014D1*
X2628713Y1654719D1*
X2639014Y1651372D1*
X2648665Y1646454D1*
X2657428Y1640087D1*
X2665087Y1632428D1*
X2671454Y1623665D1*
X2676372Y1614014D1*
X2679719Y1603713D1*
X2681413Y1593014D1*
Y1582183D1*
X2774805Y5083394D2*
X2773535Y5072663D1*
X2771427Y5062064D1*
X2768494Y5051663D1*
X2764753Y5041524D1*
X2760229Y5031710D1*
X2754948Y5022281D1*
X2748944Y5013295D1*
X2742254Y5004809D1*
X2734918Y4996873D1*
X2726983Y4989537D1*
X2718496Y4982847D1*
X2709511Y4976843D1*
X2700082Y4971563D1*
X2690268Y4967038D1*
X2680129Y4963298D1*
X2669728Y4960364D1*
X2659129Y4958256D1*
X2648397Y4956986D1*
X2637598Y4956562D1*
X2626800Y4956986D1*
X2616068Y4958256D1*
X2605469Y4960364D1*
X2595068Y4963298D1*
X2584929Y4967038D1*
X2575115Y4971563D1*
X2565686Y4976843D1*
X2556701Y4982847D1*
X2548214Y4989537D1*
X2540278Y4996873D1*
X2532943Y5004809D1*
X2526252Y5013295D1*
X2520249Y5022281D1*
X2514968Y5031710D1*
X2510444Y5041524D1*
X2506703Y5051663D1*
X2503770Y5062064D1*
X2501662Y5072663D1*
X2500391Y5083394D1*
X2499967Y5094193D1*
X2500391Y5104991D1*
X2501662Y5115723D1*
X2503770Y5126322D1*
X2506703Y5136723D1*
X2510444Y5146862D1*
X2514968Y5156676D1*
X2520249Y5166105D1*
X2526252Y5175091D1*
X2532943Y5183577D1*
X2540278Y5191513D1*
X2548214Y5198849D1*
X2556701Y5205539D1*
X2565686Y5211543D1*
X2575115Y5216823D1*
X2584929Y5221348D1*
X2595068Y5225088D1*
X2605469Y5228021D1*
X2616068Y5230130D1*
X2626800Y5231400D1*
X2637598Y5231824D1*
X2648397Y5231400D1*
X2659129Y5230130D1*
X2669728Y5228021D1*
X2680129Y5225088D1*
X2690268Y5221348D1*
X2700082Y5216823D1*
X2709511Y5211543D1*
X2718496Y5205539D1*
X2726983Y5198849D1*
X2734918Y5191513D1*
X2742254Y5183577D1*
X2748944Y5175091D1*
X2754948Y5166105D1*
X2760229Y5156676D1*
X2764753Y5146862D1*
X2768494Y5136723D1*
X2771427Y5126322D1*
X2773535Y5115723D1*
X2774805Y5104991D1*
X2775230Y5094193D1*
X2774805Y5083394D1*
X1650372Y5367758D2*
X1648506Y5355979D1*
X1644821Y5344637D1*
X1639407Y5334011D1*
X1632397Y5324362D1*
X1623964Y5315930D1*
X1614316Y5308920D1*
X1603690Y5303506D1*
X1592348Y5299820D1*
X1580569Y5297955D1*
X1568643D1*
X1556864Y5299820D1*
X1545522Y5303506D1*
X1534896Y5308920D1*
X1525248Y5315930D1*
X1516815Y5324362D1*
X1509806Y5334011D1*
X1504391Y5344637D1*
X1500706Y5355979D1*
X1498841Y5367758D1*
Y5379683D1*
X1500706Y5391462D1*
X1504391Y5402804D1*
X1509806Y5413430D1*
X1516815Y5423079D1*
X1525248Y5431511D1*
X1534896Y5438521D1*
X1545522Y5443935D1*
X1556864Y5447621D1*
X1568643Y5449486D1*
X1580569D1*
X1592348Y5447621D1*
X1603690Y5443935D1*
X1614316Y5438521D1*
X1623964Y5431511D1*
X1632397Y5423079D1*
X1639407Y5413430D1*
X1644821Y5402804D1*
X1648506Y5391462D1*
X1650372Y5379683D1*
Y5367758D1*
X3041952Y1860968D2*
X3039533Y1845694D1*
X3034754Y1830985D1*
X3027733Y1817206D1*
X3018643Y1804694D1*
X3007707Y1793759D1*
X2995196Y1784669D1*
X2981416Y1777648D1*
X2966708Y1772869D1*
X2951433Y1770449D1*
X2935968D1*
X2920694Y1772869D1*
X2905985Y1777648D1*
X2892206Y1784669D1*
X2879694Y1793759D1*
X2868759Y1804694D1*
X2859669Y1817206D1*
X2852648Y1830985D1*
X2847869Y1845694D1*
X2845449Y1860968D1*
Y1876433D1*
X2847869Y1891708D1*
X2852648Y1906416D1*
X2859669Y1920196D1*
X2868759Y1932707D1*
X2879694Y1943643D1*
X2892206Y1952733D1*
X2905985Y1959754D1*
X2920694Y1964533D1*
X2935968Y1966952D1*
X2951433D1*
X2966708Y1964533D1*
X2981416Y1959754D1*
X2995196Y1952733D1*
X3007707Y1943643D1*
X3018643Y1932707D1*
X3027733Y1920196D1*
X3034754Y1906416D1*
X3039533Y1891708D1*
X3041952Y1876433D1*
Y1860968D1*
X2112516Y2163285D2*
X2110821Y2152587D1*
X2107474Y2142285D1*
X2102556Y2132634D1*
X2096190Y2123871D1*
X2091251Y2118727D1*
X2096190Y2113531D1*
X2102556Y2104768D1*
X2107474Y2095116D1*
X2110821Y2084815D1*
X2112516Y2074117D1*
Y2063285D1*
X2110821Y2052587D1*
X2107474Y2042285D1*
X2102556Y2032634D1*
X2096190Y2023871D1*
X2091251Y2018727D1*
X2096190Y2013531D1*
X2102556Y2004768D1*
X2107474Y1995116D1*
X2110821Y1984815D1*
X2112516Y1974117D1*
Y1963285D1*
X2110821Y1952587D1*
X2107474Y1942285D1*
X2102556Y1932634D1*
X2096190Y1923871D1*
X2088531Y1916212D1*
X2079768Y1909845D1*
X2070116Y1904928D1*
X2059815Y1901580D1*
X2049117Y1899886D1*
X2038285D1*
X2027587Y1901580D1*
X2017285Y1904928D1*
X2007634Y1909845D1*
X1998871Y1916212D1*
X1991212Y1923871D1*
X1984845Y1932634D1*
X1979928Y1942285D1*
X1976580Y1952587D1*
X1974886Y1963285D1*
Y1974117D1*
X1976580Y1984815D1*
X1979928Y1995116D1*
X1984845Y2004768D1*
X1991212Y2013531D1*
X1996150Y2018675D1*
X1991212Y2023871D1*
X1984845Y2032634D1*
X1979928Y2042285D1*
X1976580Y2052587D1*
X1974886Y2063285D1*
Y2074117D1*
X1976580Y2084815D1*
X1979928Y2095116D1*
X1984845Y2104768D1*
X1991212Y2113531D1*
X1996150Y2118675D1*
X1991212Y2123871D1*
X1984845Y2132634D1*
X1979928Y2142285D1*
X1976580Y2152587D1*
X1974886Y2163285D1*
Y2174117D1*
X1976580Y2184815D1*
X1979928Y2195116D1*
X1984845Y2204768D1*
X1991212Y2213531D1*
X1998871Y2221190D1*
X2007634Y2227556D1*
X2017285Y2232474D1*
X2027587Y2235821D1*
X2038285Y2237516D1*
X2049117D1*
X2059815Y2235821D1*
X2070116Y2232474D1*
X2079768Y2227556D1*
X2088531Y2221190D1*
X2096190Y2213531D1*
X2102556Y2204768D1*
X2107474Y2195116D1*
X2110821Y2184815D1*
X2112516Y2174117D1*
Y2163285D1*
X1813303Y2063285D2*
X1811609Y2052587D1*
X1808261Y2042285D1*
X1803344Y2032634D1*
X1796977Y2023871D1*
X1789318Y2016212D1*
X1780555Y2009845D1*
X1770904Y2004928D1*
X1760602Y2001580D1*
X1749904Y1999886D1*
X1739072D1*
X1728374Y2001580D1*
X1718072Y2004928D1*
X1708421Y2009845D1*
X1699658Y2016212D1*
X1691999Y2023871D1*
X1685633Y2032634D1*
X1680715Y2042285D1*
X1677368Y2052587D1*
X1675673Y2063285D1*
Y2074117D1*
X1677368Y2084815D1*
X1680715Y2095116D1*
X1685633Y2104768D1*
X1691999Y2113531D1*
X1696938Y2118675D1*
X1691999Y2123871D1*
X1685633Y2132634D1*
X1680715Y2142285D1*
X1677368Y2152587D1*
X1675673Y2163285D1*
Y2174117D1*
X1677368Y2184815D1*
X1680715Y2195116D1*
X1685633Y2204768D1*
X1691999Y2213531D1*
X1699658Y2221190D1*
X1708421Y2227556D1*
X1718072Y2232474D1*
X1728374Y2235821D1*
X1739072Y2237516D1*
X1749904D1*
X1760602Y2235821D1*
X1770904Y2232474D1*
X1780555Y2227556D1*
X1789318Y2221190D1*
X1796977Y2213531D1*
X1803344Y2204768D1*
X1808261Y2195116D1*
X1811609Y2184815D1*
X1813303Y2174117D1*
Y2163285D1*
X1811609Y2152587D1*
X1808261Y2142285D1*
X1803344Y2132634D1*
X1796977Y2123871D1*
X1792039Y2118727D1*
X1796977Y2113531D1*
X1803344Y2104768D1*
X1808261Y2095116D1*
X1811609Y2084815D1*
X1813303Y2074117D1*
Y2063285D1*
X3398646Y3850667D2*
X3397439Y3840473D1*
X3395436Y3830404D1*
X3392650Y3820524D1*
X3389096Y3810893D1*
X3384799Y3801570D1*
X3379783Y3792613D1*
X3374079Y3784077D1*
X3367724Y3776015D1*
X3360755Y3768477D1*
X3353217Y3761509D1*
X3345155Y3755153D1*
X3336619Y3749450D1*
X3327662Y3744434D1*
X3318340Y3740136D1*
X3308708Y3736583D1*
X3298828Y3733796D1*
X3288760Y3731793D1*
X3278565Y3730587D1*
X3268307Y3730184D1*
X3258049Y3730587D1*
X3247855Y3731793D1*
X3237786Y3733796D1*
X3227906Y3736583D1*
X3218274Y3740136D1*
X3208952Y3744434D1*
X3199995Y3749450D1*
X3191459Y3755153D1*
X3183397Y3761509D1*
X3175859Y3768477D1*
X3168890Y3776015D1*
X3162535Y3784077D1*
X3156832Y3792613D1*
X3151816Y3801570D1*
X3147518Y3810893D1*
X3143965Y3820524D1*
X3141178Y3830404D1*
X3139175Y3840473D1*
X3137969Y3850667D1*
X3137566Y3860925D1*
X3137969Y3871183D1*
X3139175Y3881378D1*
X3141178Y3891446D1*
X3143965Y3901327D1*
X3147518Y3910958D1*
X3151816Y3920281D1*
X3156832Y3929237D1*
X3162535Y3937773D1*
X3168890Y3945835D1*
X3175859Y3953373D1*
X3183397Y3960342D1*
X3191459Y3966697D1*
X3199995Y3972401D1*
X3208952Y3977417D1*
X3218274Y3981715D1*
X3227906Y3985268D1*
X3237786Y3988054D1*
X3247855Y3990057D1*
X3258049Y3991264D1*
X3268307Y3991667D1*
X3278565Y3991264D1*
X3288760Y3990057D1*
X3298828Y3988054D1*
X3308708Y3985268D1*
X3318340Y3981715D1*
X3327662Y3977417D1*
X3336619Y3972401D1*
X3345155Y3966697D1*
X3353217Y3960342D1*
X3360755Y3953373D1*
X3367724Y3945835D1*
X3374079Y3937773D1*
X3379783Y3929237D1*
X3384799Y3920281D1*
X3389096Y3910958D1*
X3392650Y3901327D1*
X3395436Y3891446D1*
X3397439Y3881378D1*
X3398646Y3871183D1*
X3399049Y3860925D1*
X3398646Y3850667D1*
X432165Y1109684D2*
X1109669Y432180D1*
X3102761Y432201D1*
X3780221Y1109669D1*
X3780201Y5523950D1*
X1471363Y5523941D1*
X1407189Y5420228D1*
X1407047Y4580976D1*
X1405838Y4577256D1*
X1403295Y4573866D1*
X1286818Y4457588D1*
X1283333Y4455813D1*
X1279137Y4455214D1*
X709597Y4455201D1*
X432158Y4177711D1*
X432201Y1109640D1*
X2196201Y3481332D2*
X2540688D1*
X2196201Y3456463D2*
X2569839D1*
X2301402Y3431594D2*
X2598940D1*
X2327427Y3406726D2*
X2628042D1*
X2353500Y3381857D2*
X2657143D1*
X2379575Y3356988D2*
X2686294D1*
X2405600Y3332119D2*
X2715395D1*
X2431675Y3307251D2*
X2744496D1*
X2457699Y3282382D2*
X2773598D1*
X2483774Y3257513D2*
X2802748D1*
X2509799Y3232644D2*
X2831850D1*
X2535874Y3207776D2*
X2860951D1*
X2561899Y3182907D2*
X2890102D1*
X2587974Y3158038D2*
X2919203D1*
X2614047Y3133169D2*
X2948306D1*
X2640073Y3108301D2*
X2977407D1*
X2666147Y3083432D2*
X3006558D1*
X2692172Y3058563D2*
X3035659D1*
X2718247Y3033694D2*
X3064760D1*
X2744272Y3008825D2*
X3093862D1*
X2770346Y2983957D2*
X3123012D1*
X2796420Y2959088D2*
X3152114D1*
X2822446Y2934219D2*
X3181215D1*
X2848520Y2909350D2*
X3210318D1*
X2874546Y2884482D2*
X3239467D1*
X2900619Y2859613D2*
X3268570D1*
X2926646Y2834744D2*
X3297671D1*
X2952719Y2809875D2*
X3326822D1*
X2978794Y2785007D2*
X3355923D1*
X3004819Y2760138D2*
X3385024D1*
X3030894Y2735269D2*
X3414126D1*
X3056919Y2710400D2*
X3443276D1*
X3082992Y2685531D2*
X3472378D1*
X3109018Y2660663D2*
X3501479D1*
X3121176Y2635794D2*
X3530580D1*
X3121176Y2610925D2*
X3559731D1*
X3121176Y2586056D2*
X3588832D1*
X3121176Y2561188D2*
X3617934D1*
X3121176Y2536319D2*
X3647084D1*
X3121176Y2511450D2*
X3676186D1*
X3121176Y2486581D2*
X3703726D1*
X3121176Y2461713D2*
X3215004D1*
X3321615D2*
X3703726D1*
X3121176Y2436844D2*
X3176626D1*
X3359995D2*
X3703726D1*
X3121176Y2411975D2*
X3155874D1*
X3380747D2*
X3703726D1*
X3121176Y2387106D2*
X3143374D1*
X3393247D2*
X3703726D1*
X3121176Y2362238D2*
X3136782D1*
X3399839D2*
X3703726D1*
X3121176Y2337369D2*
X3135122D1*
X3401499D2*
X3703726D1*
X3121176Y2312500D2*
X3138247D1*
X3398374D2*
X3703726D1*
X3121176Y2287631D2*
X3146547D1*
X3390073D2*
X3703726D1*
X3121176Y2262762D2*
X3161244D1*
X3375375D2*
X3703726D1*
X3121176Y2237894D2*
X3185707D1*
X3350864D2*
X3703726D1*
X3121176Y2213025D2*
X3240248D1*
X3296371D2*
X3703726D1*
X3121176Y2188156D2*
X3703726D1*
X3121176Y2163287D2*
X3703726D1*
X3121176Y2138419D2*
X3703726D1*
X3121176Y2113550D2*
X3703726D1*
X3121176Y2088681D2*
X3703726D1*
X3121176Y2063812D2*
X3703726D1*
X3121176Y2038944D2*
X3703726D1*
X3121176Y2014075D2*
X3703726D1*
X3121176Y1989206D2*
X3703726D1*
X3121176Y1964337D2*
X3703726D1*
X3121176Y1939469D2*
X3703726D1*
X3121176Y1914600D2*
X3703726D1*
X3121176Y1889731D2*
X3703726D1*
X3121176Y1864862D2*
X3703726D1*
X3121176Y1839993D2*
X3703726D1*
X3121176Y1815125D2*
X3703726D1*
X3121176Y1790256D2*
X3703726D1*
X3121176Y1765387D2*
X3703726D1*
X3121176Y1740518D2*
X3703726D1*
X3121176Y1715650D2*
X3703726D1*
X3121176Y1690781D2*
X3194203D1*
X3342416D2*
X3703726D1*
X3121176Y1665912D2*
X3166079D1*
X3370542D2*
X3703726D1*
X3121176Y1641043D2*
X3149478D1*
X3387143D2*
X3703726D1*
X3121176Y1616175D2*
X3139760D1*
X3396860D2*
X3703726D1*
X3121176Y1591306D2*
X3135463D1*
X3401157D2*
X3703726D1*
X3121176Y1566437D2*
X3135903D1*
X3400668D2*
X3703726D1*
X3121176Y1541568D2*
X3141274D1*
X3395346D2*
X3703726D1*
X3121176Y1516699D2*
X3152211D1*
X3384409D2*
X3703726D1*
X3121176Y1491831D2*
X3170571D1*
X3366050D2*
X3703726D1*
X3121176Y1466962D2*
X3202602D1*
X3334018D2*
X3703726D1*
X3121176Y1442093D2*
X3703726D1*
X3121176Y1417224D2*
X3703726D1*
X2236759Y3506217D2*
X2228883Y3504412D1*
X2218701Y3503610D1*
X2208518Y3504412D1*
X2200643Y3506217D1*
X2193701Y3506201D1*
Y3443701D1*
X2283156Y3443547D1*
X2286875Y3442339D1*
X2290147Y3439924D1*
X3116140Y2651281D1*
X3117996Y2647839D1*
X3118697Y2643991D1*
X3118701Y1406201D1*
X3706201D1*
Y2487988D1*
X2514071Y3506217D1*
X2236913Y3506201D1*
X3398646Y1571140D2*
X3397438Y1560945D1*
X3395436Y1550877D1*
X3392650Y1540996D1*
X3389096Y1531365D1*
X3384799Y1522042D1*
X3379782Y1513085D1*
X3374079Y1504550D1*
X3367723Y1496488D1*
X3360756Y1488949D1*
X3353217Y1481982D1*
X3345155Y1475626D1*
X3336619Y1469923D1*
X3327663Y1464906D1*
X3318340Y1460609D1*
X3308709Y1457055D1*
X3298828Y1454269D1*
X3288760Y1452266D1*
X3278564Y1451059D1*
X3268307Y1450656D1*
X3258050Y1451059D1*
X3247854Y1452266D1*
X3237786Y1454269D1*
X3227906Y1457055D1*
X3218274Y1460609D1*
X3208951Y1464906D1*
X3199995Y1469923D1*
X3191459Y1475626D1*
X3183398Y1481982D1*
X3175858Y1488949D1*
X3168891Y1496488D1*
X3162535Y1504550D1*
X3156832Y1513085D1*
X3151815Y1522042D1*
X3147518Y1531365D1*
X3143965Y1540996D1*
X3141178Y1550877D1*
X3139176Y1560945D1*
X3137969Y1571140D1*
X3137566Y1581398D1*
X3137969Y1591655D1*
X3139176Y1601850D1*
X3141178Y1611919D1*
X3143965Y1621799D1*
X3147518Y1631430D1*
X3151815Y1640753D1*
X3156832Y1649710D1*
X3162535Y1658245D1*
X3168891Y1666307D1*
X3175858Y1673846D1*
X3183398Y1680814D1*
X3191459Y1687169D1*
X3199995Y1692873D1*
X3208951Y1697890D1*
X3218274Y1702186D1*
X3227906Y1705740D1*
X3237786Y1708526D1*
X3247854Y1710529D1*
X3258050Y1711736D1*
X3268307Y1712139D1*
X3278564Y1711736D1*
X3288760Y1710529D1*
X3298828Y1708526D1*
X3308709Y1705740D1*
X3318340Y1702186D1*
X3327663Y1697890D1*
X3336619Y1692873D1*
X3345155Y1687169D1*
X3353217Y1680814D1*
X3360756Y1673846D1*
X3367723Y1666307D1*
X3374079Y1658245D1*
X3379782Y1649710D1*
X3384799Y1640753D1*
X3389096Y1631430D1*
X3392650Y1621799D1*
X3395436Y1611919D1*
X3397438Y1601850D1*
X3398646Y1591655D1*
X3399049Y1581398D1*
X3398646Y1571140D1*
Y2330983D2*
X3397438Y2320787D1*
X3395436Y2310719D1*
X3392650Y2300839D1*
X3389096Y2291207D1*
X3384799Y2281885D1*
X3379782Y2272928D1*
X3374079Y2264392D1*
X3367723Y2256331D1*
X3360756Y2248791D1*
X3353217Y2241824D1*
X3345155Y2235469D1*
X3336619Y2229765D1*
X3327663Y2224748D1*
X3318340Y2220451D1*
X3308709Y2216898D1*
X3298828Y2214112D1*
X3288760Y2212109D1*
X3278564Y2210902D1*
X3268307Y2210499D1*
X3258050Y2210902D1*
X3247854Y2212109D1*
X3237786Y2214112D1*
X3227906Y2216898D1*
X3218274Y2220451D1*
X3208951Y2224748D1*
X3199995Y2229765D1*
X3191459Y2235469D1*
X3183398Y2241824D1*
X3175858Y2248791D1*
X3168891Y2256331D1*
X3162535Y2264392D1*
X3156832Y2272928D1*
X3151815Y2281885D1*
X3147518Y2291207D1*
X3143965Y2300839D1*
X3141178Y2310719D1*
X3139176Y2320787D1*
X3137969Y2330983D1*
X3137566Y2341240D1*
X3137969Y2351497D1*
X3139176Y2361693D1*
X3141178Y2371761D1*
X3143965Y2381642D1*
X3147518Y2391273D1*
X3151815Y2400596D1*
X3156832Y2409552D1*
X3162535Y2418088D1*
X3168891Y2426150D1*
X3175858Y2433689D1*
X3183398Y2440656D1*
X3191459Y2447012D1*
X3199995Y2452715D1*
X3208951Y2457732D1*
X3218274Y2462029D1*
X3227906Y2465583D1*
X3237786Y2468369D1*
X3247854Y2470371D1*
X3258050Y2471579D1*
X3268307Y2471982D1*
X3278564Y2471579D1*
X3288760Y2470371D1*
X3298828Y2468369D1*
X3308709Y2465583D1*
X3318340Y2462029D1*
X3327663Y2457732D1*
X3336619Y2452715D1*
X3345155Y2447012D1*
X3353217Y2440656D1*
X3360756Y2433689D1*
X3367723Y2426150D1*
X3374079Y2418088D1*
X3379782Y2409552D1*
X3384799Y2400596D1*
X3389096Y2391273D1*
X3392650Y2381642D1*
X3395436Y2371761D1*
X3397438Y2361693D1*
X3398646Y2351497D1*
X3399049Y2341240D1*
X3398646Y2330983D1*
X1975474Y3381332D2*
X2028726D1*
X1949741Y3356463D2*
X2028726D1*
X1923959Y3331594D2*
X2028726D1*
X1898227Y3306726D2*
X2028726D1*
X1872446Y3281857D2*
X2028726D1*
X1846714Y3256988D2*
X2028726D1*
X1820932Y3232119D2*
X2028726D1*
X1795199Y3207251D2*
X2028726D1*
X1769419Y3182382D2*
X2028726D1*
X1743686Y3157513D2*
X2028726D1*
X1717906Y3132644D2*
X2028726D1*
X1692172Y3107776D2*
X2028726D1*
X1666391Y3082907D2*
X2028726D1*
X1640659Y3058038D2*
X2028726D1*
X1614878Y3033169D2*
X2028726D1*
X1589146Y3008301D2*
X2028726D1*
X1563364Y2983432D2*
X2028726D1*
X1537631Y2958563D2*
X2028726D1*
X1511850Y2933694D2*
X2028726D1*
X1486118Y2908825D2*
X2028726D1*
X1460336Y2883957D2*
X2028726D1*
X1434604Y2859088D2*
X2028726D1*
X1408823Y2834219D2*
X2028726D1*
X1383091Y2809350D2*
X2028726D1*
X1357310Y2784482D2*
X2028726D1*
X1331576Y2759613D2*
X2028726D1*
X1305795Y2734744D2*
X1972182D1*
X1283701Y2709875D2*
X1972182D1*
X1283701Y2685007D2*
X1972182D1*
X1283701Y2660138D2*
X1972182D1*
X1283701Y2635269D2*
X1723744D1*
X1765268D2*
X1972182D1*
X1283701Y2610400D2*
X1686978D1*
X1801987D2*
X1972182D1*
X1283701Y2585531D2*
X1675063D1*
X1813950D2*
X1974234D1*
X2031214Y3404875D2*
X2023807Y3403811D1*
X2013594D1*
X2003505Y3405408D1*
X2000643Y3406217D1*
X1993391Y3401026D1*
X1281167Y2713361D1*
X1281201Y2581201D1*
X1676562D1*
X1678839Y2590031D1*
X1682984Y2600038D1*
X1688644Y2609274D1*
X1695678Y2617510D1*
X1703915Y2624545D1*
X1713151Y2630205D1*
X1723157Y2634350D1*
X1733690Y2636878D1*
X1744488Y2637728D1*
X1755286Y2636878D1*
X1765819Y2634350D1*
X1775825Y2630205D1*
X1785062Y2624545D1*
X1793298Y2617510D1*
X1800332Y2609274D1*
X1805992Y2600038D1*
X1810138Y2590031D1*
X1812331Y2581181D1*
X1975781Y2581201D1*
X1978051Y2590031D1*
X1982029Y2599673D1*
X1974673D1*
Y2737728D1*
X2031168D1*
X2031201Y3404785D1*
X1897739Y4631332D2*
X2303701D1*
X1869566Y4606463D2*
X2303701D1*
X1841391Y4581594D2*
X2303701D1*
X1813168Y4556726D2*
X2303701D1*
X1784995Y4531857D2*
X2303701D1*
X1756822Y4506988D2*
X1909194D1*
X1728647Y4482119D2*
X1881215D1*
X1700474Y4457251D2*
X1853238D1*
X1672251Y4432382D2*
X1825259D1*
X1644076Y4407513D2*
X1797280D1*
X1615903Y4382644D2*
X1769302D1*
X1587730Y4357776D2*
X1741323D1*
X1559507Y4332907D2*
X1713344D1*
X1531332Y4308038D2*
X1685366D1*
X1503159Y4283169D2*
X1657436D1*
X1333701Y4258301D2*
X1629458D1*
X1333701Y4233432D2*
X1601479D1*
X1333701Y4208563D2*
X1573500D1*
X1333701Y4183694D2*
X1545522D1*
X1333701Y4158825D2*
X1517543D1*
X1333701Y4133957D2*
X1489566D1*
X2306201Y4543701D2*
Y4656201D1*
X1923437D1*
X1500403Y4283150D1*
X1496815Y4281594D1*
X1493701Y4281201D1*
X1331201D1*
Y4133201D1*
X1346801Y4133079D1*
X1352921Y4132109D1*
X1356201Y4131201D1*
X1488965D1*
X1936959Y4529227D1*
X1940543Y4530795D1*
X1943701Y4531201D1*
X2306201D1*
Y4543701D1*
X619516Y4256332D2*
X1253701D1*
X588412Y4231463D2*
X1253701D1*
X557310Y4206594D2*
X1253701D1*
X533701Y4181726D2*
X1253701D1*
X533701Y4156857D2*
X1253701D1*
X533701Y4131988D2*
X631558D1*
X533701Y4107119D2*
X604067D1*
X533701Y4082251D2*
X601723D1*
X533701Y4057382D2*
X601723D1*
X533701Y4032513D2*
X601723D1*
X533701Y4007644D2*
X601723D1*
X533701Y3982776D2*
X601723D1*
X533701Y3957907D2*
X601723D1*
X533701Y3933038D2*
X601723D1*
X533701Y3908169D2*
X601723D1*
X533701Y3883301D2*
X601723D1*
X533701Y3858432D2*
X601723D1*
X533701Y3833563D2*
X601723D1*
X533701Y3808694D2*
X601723D1*
X533701Y3783825D2*
X601723D1*
X533701Y3758957D2*
X601723D1*
X533701Y3734088D2*
X601723D1*
X533701Y3709219D2*
X601723D1*
X533701Y3684350D2*
X601723D1*
X533701Y3659482D2*
X601723D1*
X533701Y3634613D2*
X601723D1*
X533701Y3609744D2*
X601723D1*
X533701Y3584875D2*
X601723D1*
X533701Y3560007D2*
X601723D1*
X533701Y3535138D2*
X601723D1*
X533701Y3510269D2*
X601723D1*
X533701Y3485400D2*
X601723D1*
X533701Y3460531D2*
X601723D1*
X533701Y3435663D2*
X601723D1*
X533701Y3410794D2*
X601723D1*
X533701Y3385925D2*
X601723D1*
X533701Y3361056D2*
X601723D1*
X533701Y3336188D2*
X601723D1*
X533701Y3311319D2*
X601723D1*
X533701Y3286450D2*
X601723D1*
X533701Y3261581D2*
X601723D1*
X533701Y3236713D2*
X601723D1*
X533701Y3211844D2*
X601723D1*
X533701Y3186975D2*
X601723D1*
X533701Y3162106D2*
X601723D1*
X533701Y3137238D2*
X601723D1*
X533701Y3112369D2*
X601723D1*
X533701Y3087500D2*
X601723D1*
X533701Y3062631D2*
X601723D1*
X533701Y3037762D2*
X601723D1*
X533701Y3012894D2*
X601723D1*
X533701Y2988025D2*
X601723D1*
X533701Y2963156D2*
X601723D1*
X533701Y2938287D2*
X601723D1*
X533701Y2913419D2*
X601723D1*
X533701Y2888550D2*
X601723D1*
X533701Y2863681D2*
X602016D1*
X533701Y2838812D2*
X615395D1*
X533701Y2813944D2*
X703726D1*
X533701Y2789075D2*
X703726D1*
X533701Y2764206D2*
X703726D1*
X533701Y2739337D2*
X703726D1*
X533701Y2714469D2*
X703726D1*
X533701Y2689600D2*
X703726D1*
X533701Y2664731D2*
X703726D1*
X533701Y2639862D2*
X703726D1*
X533701Y2614993D2*
X703726D1*
X533701Y2590125D2*
X703726D1*
X533701Y2565256D2*
X703726D1*
X533701Y2540387D2*
X703726D1*
X533701Y2515518D2*
X703726D1*
X533701Y2490650D2*
X703726D1*
X533701Y2465781D2*
X703726D1*
X533701Y2440912D2*
X703726D1*
X533701Y2416043D2*
X703726D1*
X533701Y2391175D2*
X703726D1*
X533701Y2366306D2*
X703726D1*
X533701Y2341437D2*
X703726D1*
X533701Y2316568D2*
X703726D1*
X533701Y2291699D2*
X703726D1*
X533701Y2266831D2*
X703726D1*
X533701Y2241962D2*
X703726D1*
X533701Y2217093D2*
X703726D1*
X533701Y2192224D2*
X703726D1*
X533701Y2167356D2*
X703726D1*
X533701Y2142487D2*
X703726D1*
X533701Y2117618D2*
X703726D1*
X533701Y2092749D2*
X703726D1*
X533701Y2067881D2*
X703726D1*
X533701Y2043012D2*
X703726D1*
X533701Y2018143D2*
X703726D1*
X533701Y1993274D2*
X703726D1*
X533701Y1968406D2*
X703726D1*
X533701Y1943537D2*
X703726D1*
X533701Y1918668D2*
X703726D1*
X533701Y1893799D2*
X703726D1*
X533701Y1868930D2*
X703726D1*
X533701Y1844062D2*
X703726D1*
X533701Y1819193D2*
X703726D1*
X533701Y1794324D2*
X703726D1*
X533701Y1769455D2*
X703726D1*
X533701Y1744587D2*
X703726D1*
X533701Y1719718D2*
X703726D1*
X533701Y1694849D2*
X703726D1*
X533701Y1669980D2*
X703726D1*
X533701Y1645112D2*
X703726D1*
X533701Y1620243D2*
X703726D1*
X533701Y1595374D2*
X703726D1*
X533701Y1570505D2*
X703726D1*
X533701Y1545636D2*
X703726D1*
X533701Y1520768D2*
X703726D1*
X533701Y1495899D2*
X703726D1*
X533701Y1471030D2*
X703726D1*
X533701Y1446161D2*
X703726D1*
X533701Y1421293D2*
X703726D1*
X533701Y1396424D2*
X703726D1*
X604201Y2881201D2*
X604323Y4096801D1*
X605293Y4102921D1*
X607207Y4108816D1*
X610021Y4114340D1*
X613665Y4119354D1*
X618047Y4123736D1*
X623062Y4127381D1*
X628585Y4130194D1*
X634480Y4132109D1*
X640601Y4133079D1*
X718701Y4133201D1*
X1256249D1*
X1256201Y4281201D1*
X648046D1*
X531213Y4187702D1*
X531201Y1381201D1*
X706201D1*
Y2829201D1*
X640601Y2829323D1*
X634480Y2830293D1*
X628585Y2832207D1*
X623062Y2835021D1*
X618047Y2838665D1*
X613665Y2843047D1*
X610021Y2848062D1*
X607207Y2853585D1*
X605293Y2859480D1*
X604323Y2865601D1*
X604201Y2881201D1*
D19*
X1493701Y2393701D3*
Y2661417D3*
D20*
X1443701Y1293701D3*
Y1431496D3*
X1818701Y1293701D3*
Y1431496D3*
X2193701Y1293701D3*
Y1431496D3*
X2612598Y1587598D3*
X2474803D3*
D23*
X2243701Y2293701D3*
Y2466929D3*
D25*
X1393701Y4193701D3*
X1193701D3*
D28*
X2018701Y3768701D3*
Y3568701D3*
Y3468701D3*
Y3368701D3*
X2218701Y3768701D3*
Y3568701D3*
Y3468701D3*
Y3368701D3*
D30*
X2943701Y1868701D3*
X2543701Y2468701D3*
D31*
X2218701Y4568701D3*
Y4443661D3*
X2018701Y4443701D3*
Y4568740D3*
D32*
X2043701Y2668701D3*
D33*
Y2568701D3*
Y2468701D3*
Y2368701D3*
Y2268701D3*
Y2168701D3*
Y2068701D3*
Y1968701D3*
X1744488D3*
Y2068701D3*
Y2168701D3*
Y2268701D3*
Y2368701D3*
Y2468701D3*
Y2568701D3*
Y2668701D3*
D34*
X738583Y2341240D3*
Y1581398D3*
X3608661Y2341240D3*
Y1581398D3*
X738583Y3101083D3*
Y3860925D3*
X3608661Y3101083D3*
Y3860925D3*
M02*
