G04 DipTrace 3.0.0.2*
G04 BottomSilk.gbr*
%MOIN*%
G04 #@! TF.FileFunction,Legend,Bot*
G04 #@! TF.Part,Single*
%ADD10C,0.009843*%
%ADD18C,0.035052*%
%ADD21C,0.003937*%
%ADD22C,0.024807*%
%ADD24C,0.06752*%
%ADD29O,0.085954X0.088974*%
%ADD65C,0.00772*%
%ADD66C,0.015439*%
%ADD67C,0.009264*%
%ADD68C,0.010807*%
%FSLAX26Y26*%
G04*
G70*
G90*
G75*
G01*
G04 BotSilk*
%LPD*%
X1359849Y2393717D2*
D10*
X1627559D1*
Y2661401D1*
X1359849D1*
Y2393717D1*
D18*
X1328156Y2692713D3*
X1286220Y1362598D2*
D10*
G02X1286220Y1362598I157480J0D01*
G01*
X1661220D2*
G02X1661220Y1362598I157480J0D01*
G01*
X2036220D2*
G02X2036220Y1362598I157480J0D01*
G01*
X2386220Y1587598D2*
G02X2386220Y1587598I157480J0D01*
G01*
X2194488Y2303545D2*
D21*
X2292913D1*
Y2457085D1*
X2194488D1*
Y2303545D1*
D22*
X2176183Y2453340D3*
X1383685Y4266203D2*
D10*
X1203717D1*
Y4121200D1*
X1383685D1*
Y4266203D1*
D24*
X1177445Y4309947D3*
X1256197Y4243709D2*
D10*
Y4143695D1*
X1974951Y3812451D2*
X2262451D1*
Y3324951D1*
X1974951D1*
Y3812451D1*
X2388811Y1813811D2*
X3098591D1*
Y2523591D1*
X2388811D1*
Y1813811D1*
D29*
X2458689Y1893198D3*
X1791737Y2720276D2*
D10*
Y1917126D1*
X1996452D2*
X1791737D1*
X1996452Y2720276D2*
Y1917126D1*
Y2720276D2*
X1917704D1*
X1791737D2*
X1870485D1*
X1917704D2*
G02X1870485Y2720276I-23610J-3D01*
G01*
X1482157Y2821127D2*
D65*
X1484534Y2825881D1*
X1489342Y2830689D1*
X1494095Y2833066D1*
X1503657D1*
X1508465Y2830689D1*
X1513219Y2825881D1*
X1515650Y2821127D1*
X1518027Y2813942D1*
Y2801949D1*
X1515650Y2794819D1*
X1513219Y2790011D1*
X1508465Y2785257D1*
X1503657Y2782826D1*
X1494095D1*
X1489342Y2785257D1*
X1484534Y2790011D1*
X1482157Y2794819D1*
X1466718Y2833066D2*
X1464341Y2830689D1*
X1461909Y2833066D1*
X1464341Y2835497D1*
X1466718Y2833066D1*
X1464341Y2816319D2*
Y2782826D1*
X1446470Y2816319D2*
Y2782826D1*
Y2806757D2*
X1439285Y2813942D1*
X1434477Y2816319D1*
X1427347D1*
X1422538Y2813942D1*
X1420162Y2806757D1*
Y2782826D1*
X1487199Y1176221D2*
X1489575Y1180974D1*
X1494384Y1185783D1*
X1499137Y1188159D1*
X1508699D1*
X1513507Y1185783D1*
X1518260Y1180974D1*
X1520692Y1176221D1*
X1523069Y1169036D1*
Y1157043D1*
X1520692Y1149913D1*
X1518260Y1145104D1*
X1513507Y1140351D1*
X1508699Y1137919D1*
X1499137D1*
X1494384Y1140351D1*
X1489575Y1145104D1*
X1487199Y1149913D1*
X1459821Y1171413D2*
X1464575Y1169036D1*
X1469383Y1164228D1*
X1471760Y1157043D1*
Y1152289D1*
X1469383Y1145104D1*
X1464575Y1140351D1*
X1459821Y1137919D1*
X1452636D1*
X1447828Y1140351D1*
X1443075Y1145104D1*
X1440643Y1152289D1*
Y1157043D1*
X1443075Y1164228D1*
X1447828Y1169036D1*
X1452636Y1171413D1*
X1459821D1*
X1425204D2*
Y1147481D1*
X1422827Y1140351D1*
X1418019Y1137919D1*
X1410834D1*
X1406080Y1140351D1*
X1398895Y1147481D1*
Y1171413D2*
Y1137919D1*
X1376271Y1188159D2*
Y1147481D1*
X1373894Y1140351D1*
X1369086Y1137919D1*
X1364333D1*
X1383456Y1171413D2*
X1366709D1*
X1875915Y1176221D2*
X1878292Y1180974D1*
X1883100Y1185783D1*
X1887853Y1188159D1*
X1897415D1*
X1902224Y1185783D1*
X1906977Y1180974D1*
X1909409Y1176221D1*
X1911785Y1169036D1*
Y1157043D1*
X1909409Y1149913D1*
X1906977Y1145104D1*
X1902224Y1140351D1*
X1897415Y1137919D1*
X1887853D1*
X1883100Y1140351D1*
X1878292Y1145104D1*
X1875915Y1149913D1*
X1848538Y1171413D2*
X1853291Y1169036D1*
X1858099Y1164228D1*
X1860476Y1157043D1*
Y1152289D1*
X1858099Y1145104D1*
X1853291Y1140351D1*
X1848538Y1137919D1*
X1841353D1*
X1836544Y1140351D1*
X1831791Y1145104D1*
X1829359Y1152289D1*
Y1157043D1*
X1831791Y1164228D1*
X1836544Y1169036D1*
X1841353Y1171413D1*
X1848538D1*
X1813920D2*
Y1147481D1*
X1811543Y1140351D1*
X1806735Y1137919D1*
X1799550D1*
X1794797Y1140351D1*
X1787612Y1147481D1*
Y1171413D2*
Y1137919D1*
X1764987Y1188159D2*
Y1147481D1*
X1762611Y1140351D1*
X1757802Y1137919D1*
X1753049D1*
X1772172Y1171413D2*
X1755426D1*
X1737610Y1178543D2*
X1732801Y1180974D1*
X1725616Y1188104D1*
Y1137919D1*
X2261665Y1176221D2*
X2264042Y1180974D1*
X2268850Y1185783D1*
X2273603Y1188159D1*
X2283165D1*
X2287973Y1185783D1*
X2292727Y1180974D1*
X2295158Y1176221D1*
X2297535Y1169036D1*
Y1157043D1*
X2295158Y1149913D1*
X2292727Y1145104D1*
X2287973Y1140351D1*
X2283165Y1137919D1*
X2273603D1*
X2268850Y1140351D1*
X2264042Y1145104D1*
X2261665Y1149913D1*
X2234288Y1171413D2*
X2239041Y1169036D1*
X2243849Y1164228D1*
X2246226Y1157043D1*
Y1152289D1*
X2243849Y1145104D1*
X2239041Y1140351D1*
X2234288Y1137919D1*
X2227103D1*
X2222294Y1140351D1*
X2217541Y1145104D1*
X2215109Y1152289D1*
Y1157043D1*
X2217541Y1164228D1*
X2222294Y1169036D1*
X2227103Y1171413D1*
X2234288D1*
X2199670D2*
Y1147481D1*
X2197293Y1140351D1*
X2192485Y1137919D1*
X2185300D1*
X2180547Y1140351D1*
X2173362Y1147481D1*
Y1171413D2*
Y1137919D1*
X2150737Y1188159D2*
Y1147481D1*
X2148361Y1140351D1*
X2143552Y1137919D1*
X2138799D1*
X2157922Y1171413D2*
X2141176D1*
X2120928Y1176166D2*
Y1178543D1*
X2118551Y1183351D1*
X2116175Y1185728D1*
X2111366Y1188104D1*
X2101805D1*
X2097052Y1185728D1*
X2094675Y1183351D1*
X2092243Y1178543D1*
Y1173789D1*
X2094675Y1168981D1*
X2099428Y1161851D1*
X2123360Y1137919D1*
X2089867D1*
X2611665Y1401221D2*
X2614042Y1405974D1*
X2618850Y1410783D1*
X2623603Y1413159D1*
X2633165D1*
X2637973Y1410783D1*
X2642727Y1405974D1*
X2645158Y1401221D1*
X2647535Y1394036D1*
Y1382043D1*
X2645158Y1374913D1*
X2642727Y1370104D1*
X2637973Y1365351D1*
X2633165Y1362919D1*
X2623603D1*
X2618850Y1365351D1*
X2614042Y1370104D1*
X2611665Y1374913D1*
X2584288Y1396413D2*
X2589041Y1394036D1*
X2593849Y1389228D1*
X2596226Y1382043D1*
Y1377289D1*
X2593849Y1370104D1*
X2589041Y1365351D1*
X2584288Y1362919D1*
X2577103D1*
X2572294Y1365351D1*
X2567541Y1370104D1*
X2565109Y1377289D1*
Y1382043D1*
X2567541Y1389228D1*
X2572294Y1394036D1*
X2577103Y1396413D1*
X2584288D1*
X2549670D2*
Y1372481D1*
X2547293Y1365351D1*
X2542485Y1362919D1*
X2535300D1*
X2530547Y1365351D1*
X2523362Y1372481D1*
Y1396413D2*
Y1362919D1*
X2500737Y1413159D2*
Y1372481D1*
X2498361Y1365351D1*
X2493552Y1362919D1*
X2488799D1*
X2507922Y1396413D2*
X2491176D1*
X2468551Y1413104D2*
X2442298D1*
X2456613Y1393981D1*
X2449428D1*
X2444675Y1391604D1*
X2442298Y1389228D1*
X2439867Y1382043D1*
Y1377289D1*
X2442298Y1370104D1*
X2447052Y1365296D1*
X2454237Y1362919D1*
X2461422D1*
X2468551Y1365296D1*
X2470928Y1367728D1*
X2473360Y1372481D1*
X2090557Y2410778D2*
X2140796D1*
X2140797Y2394031D1*
X2138365Y2386846D1*
X2133611Y2382038D1*
X2128803Y2379661D1*
X2121673Y2377285D1*
X2109680D1*
X2102495Y2379661D1*
X2097742Y2382038D1*
X2092933Y2386846D1*
X2090557Y2394031D1*
Y2410778D1*
X2100173Y2361846D2*
X2097742Y2357037D1*
X2090612Y2349852D1*
X2140796D1*
X1334914Y4416923D2*
Y4366683D1*
X1318167D1*
X1310982Y4369115D1*
X1306174Y4373868D1*
X1303797Y4378677D1*
X1301420Y4385806D1*
Y4397800D1*
X1303797Y4404985D1*
X1306174Y4409738D1*
X1310982Y4414547D1*
X1318167Y4416923D1*
X1334914D1*
X1283549Y4404930D2*
Y4407306D1*
X1281173Y4412115D1*
X1278796Y4414491D1*
X1273988Y4416868D1*
X1264426D1*
X1259673Y4414491D1*
X1257296Y4412115D1*
X1254864Y4407306D1*
Y4402553D1*
X1257296Y4397745D1*
X1262049Y4390615D1*
X1285981Y4366683D1*
X1252488D1*
X2149164Y3885674D2*
Y3835434D1*
X2115670Y3885674D2*
X2149164Y3852181D1*
X2137226Y3864174D2*
X2115670Y3835434D1*
X2100231Y3876057D2*
X2095423Y3878489D1*
X2088238Y3885619D1*
Y3835434D1*
X2771760Y2600979D2*
Y2550739D1*
X2743075D1*
X2727635Y2591362D2*
X2722827Y2593794D1*
X2715642Y2600924D1*
Y2550739D1*
X1924558Y2793499D2*
Y2757629D1*
X1922181Y2750444D1*
X1917372Y2745691D1*
X1910187Y2743259D1*
X1905434D1*
X1898249Y2745691D1*
X1893441Y2750444D1*
X1891064Y2757629D1*
Y2793499D1*
X1875625Y2783882D2*
X1870816Y2786314D1*
X1863631Y2793443D1*
Y2743259D1*
X2719270Y767023D2*
D66*
X2757627Y867503D1*
X2795873Y767023D1*
X2781503Y800516D2*
X2733640D1*
X2688391Y867503D2*
Y767023D1*
X2645281D1*
X2630911Y771886D1*
X2626158Y776639D1*
X2621405Y786146D1*
Y800516D1*
X2626158Y810133D1*
X2630911Y814886D1*
X2645281Y819639D1*
X2630911Y824503D1*
X2626158Y829256D1*
X2621405Y838762D1*
Y848379D1*
X2626158Y857886D1*
X2630911Y862749D1*
X2645281Y867503D1*
X2688391D1*
Y819639D2*
X2645281D1*
X2590526Y867503D2*
Y767023D1*
X2533156D1*
X2435291Y853132D2*
X2444798Y862749D1*
X2459168Y867503D1*
X2478291D1*
X2492661Y862749D1*
X2502278Y853132D1*
Y843626D1*
X2497414Y834009D1*
X2492661Y829256D1*
X2483155Y824503D1*
X2454415Y814886D1*
X2444798Y810133D1*
X2440044Y805269D1*
X2435291Y795763D1*
Y781393D1*
X2444798Y771886D1*
X2459168Y767023D1*
X2478291D1*
X2492661Y771886D1*
X2502278Y781393D1*
X2307211Y814886D2*
X2264101D1*
X2249841Y819639D1*
X2244977Y824503D1*
X2240224Y834009D1*
Y848379D1*
X2244977Y857886D1*
X2249841Y862749D1*
X2264101Y867503D1*
X2307211D1*
Y767023D1*
X2185469Y834009D2*
X2194976Y829256D1*
X2204592Y819639D1*
X2209346Y805269D1*
Y795763D1*
X2204592Y781393D1*
X2194976Y771886D1*
X2185469Y767023D1*
X2171099D1*
X2161482Y771886D1*
X2151976Y781393D1*
X2147112Y795763D1*
Y805269D1*
X2151976Y819639D1*
X2161482Y829256D1*
X2171099Y834009D1*
X2185469D1*
X2116234D2*
X2097110Y767023D1*
X2077987Y834009D1*
X2058864Y767023D1*
X2039741Y834009D1*
X2008862Y805269D2*
X1951492D1*
Y814886D1*
X1956246Y824503D1*
X1960999Y829256D1*
X1970616Y834009D1*
X1984986D1*
X1994492Y829256D1*
X2004109Y819639D1*
X2008862Y805269D1*
Y795763D1*
X2004109Y781393D1*
X1994492Y771886D1*
X1984986Y767023D1*
X1970616D1*
X1960999Y771886D1*
X1951492Y781393D1*
X1920614Y834009D2*
Y767023D1*
Y805269D2*
X1915750Y819639D1*
X1906244Y829256D1*
X1896627Y834009D1*
X1882257D1*
X1677683Y767023D2*
Y867503D1*
X1715930Y767023D1*
X1754176Y867503D1*
Y767023D1*
X1622928Y834009D2*
X1632435Y829256D1*
X1642052Y819639D1*
X1646805Y805269D1*
Y795763D1*
X1642052Y781393D1*
X1632435Y771886D1*
X1622928Y767023D1*
X1608558D1*
X1598941Y771886D1*
X1589435Y781393D1*
X1584571Y795763D1*
Y805269D1*
X1589435Y819639D1*
X1598941Y829256D1*
X1608558Y834009D1*
X1622928D1*
X1496323Y867503D2*
Y767023D1*
Y819639D2*
X1505829Y829256D1*
X1515446Y834009D1*
X1529816D1*
X1539323Y829256D1*
X1548940Y819639D1*
X1553693Y805269D1*
Y795763D1*
X1548940Y781393D1*
X1539323Y771886D1*
X1529816Y767023D1*
X1515446D1*
X1505829Y771886D1*
X1496323Y781393D1*
X1465445Y834009D2*
Y786146D1*
X1460691Y771886D1*
X1451075Y767023D1*
X1436704D1*
X1427198Y771886D1*
X1412828Y786146D1*
Y834009D2*
Y767023D1*
X1381950Y867503D2*
Y767023D1*
X1351071Y805269D2*
X1293701D1*
Y814886D1*
X1298454Y824503D1*
X1303208Y829256D1*
X1312825Y834009D1*
X1327195D1*
X1336701Y829256D1*
X1346318Y819639D1*
X1351071Y805269D1*
Y795763D1*
X1346318Y781393D1*
X1336701Y771886D1*
X1327195Y767023D1*
X1312825D1*
X1303208Y771886D1*
X1293701Y781393D1*
X2758742Y681070D2*
D67*
Y620782D1*
X2732876D1*
X2724254Y623700D1*
X2721402Y626552D1*
X2718550Y632255D1*
Y640878D1*
X2721402Y646648D1*
X2724254Y649500D1*
X2732876Y652351D1*
X2724254Y655270D1*
X2721402Y658122D1*
X2718550Y663825D1*
Y669596D1*
X2721402Y675299D1*
X2724254Y678218D1*
X2732876Y681070D1*
X2758742D1*
Y652351D2*
X2732876D1*
X2697105Y660974D2*
X2679927Y620782D1*
X2685631Y609308D1*
X2691401Y603537D1*
X2697105Y600686D1*
X2700023D1*
X2662683Y660974D2*
X2679927Y620782D1*
X2539939D2*
Y681070D1*
X2562886Y620782D1*
X2585834Y681070D1*
Y620782D1*
X2486990Y660974D2*
Y620782D1*
Y652351D2*
X2492693Y658122D1*
X2498464Y660974D1*
X2507019D1*
X2512789Y658122D1*
X2518493Y652351D1*
X2521411Y643729D1*
Y638026D1*
X2518493Y629404D1*
X2512789Y623700D1*
X2507019Y620782D1*
X2498464D1*
X2492693Y623700D1*
X2486990Y629404D1*
X2468463Y660974D2*
Y620782D1*
Y643729D2*
X2465544Y652351D1*
X2459840Y658122D1*
X2454070Y660974D1*
X2445448D1*
X2392433Y652351D2*
X2398203Y658122D1*
X2403973Y660974D1*
X2412529D1*
X2418299Y658122D1*
X2424003Y652351D1*
X2426921Y643729D1*
Y638026D1*
X2424003Y629404D1*
X2418299Y623700D1*
X2412529Y620782D1*
X2403973D1*
X2398203Y623700D1*
X2392433Y629404D1*
X2315585Y649500D2*
X2289719D1*
X2281163Y652351D1*
X2278245Y655270D1*
X2275393Y660974D1*
Y669596D1*
X2278245Y675299D1*
X2281163Y678218D1*
X2289719Y681070D1*
X2315585D1*
Y620782D1*
X2256866Y681070D2*
Y620782D1*
Y649500D2*
X2248244Y658122D1*
X2242473Y660974D1*
X2233851D1*
X2228148Y658122D1*
X2225296Y649500D1*
Y620782D1*
X2172347Y660974D2*
Y620782D1*
Y652351D2*
X2178051Y658122D1*
X2183821Y660974D1*
X2192376D1*
X2198147Y658122D1*
X2203850Y652351D1*
X2206769Y643729D1*
Y638026D1*
X2203850Y629404D1*
X2198147Y623700D1*
X2192376Y620782D1*
X2183821D1*
X2178051Y623700D1*
X2172347Y629404D1*
X2153820Y660974D2*
Y620782D1*
Y649500D2*
X2145198Y658122D1*
X2139427Y660974D1*
X2130872D1*
X2125102Y658122D1*
X2122250Y649500D1*
Y620782D1*
Y649500D2*
X2113628Y658122D1*
X2107857Y660974D1*
X2099302D1*
X2093532Y658122D1*
X2090613Y649500D1*
Y620782D1*
X1555048Y1291395D2*
D68*
X1494771D1*
X1524871Y1261296D2*
Y1321573D1*
X1930048Y1291395D2*
X1869771D1*
X1899871Y1261296D2*
Y1321573D1*
X2305048Y1291395D2*
X2244771D1*
X2274871Y1261296D2*
Y1321573D1*
X2614904Y1698946D2*
Y1638669D1*
X2645004Y1668768D2*
X2584727D1*
M02*
