G04 DipTrace 3.0.0.2*
G04 BottomSilk.gbr*
%MOIN*%
G04 #@! TF.FileFunction,Legend,Bot*
G04 #@! TF.Part,Single*
%ADD10C,0.009843*%
%ADD18C,0.035052*%
%ADD21C,0.003937*%
%ADD22C,0.024807*%
%ADD27O,0.085954X0.088974*%
%ADD33C,0.06752*%
%ADD68C,0.00772*%
%ADD69C,0.015439*%
%ADD70C,0.009264*%
%ADD71C,0.010807*%
%FSLAX26Y26*%
G04*
G70*
G90*
G75*
G01*
G04 BotSilk*
%LPD*%
X1360148Y2394017D2*
D10*
X1627858D1*
Y2661700D1*
X1360148D1*
Y2394017D1*
D18*
X1328455Y2693012D3*
X1286520Y1362898D2*
D10*
G02X1286520Y1362898I157480J0D01*
G01*
X1661520D2*
G02X1661520Y1362898I157480J0D01*
G01*
X2036520D2*
G02X2036520Y1362898I157480J0D01*
G01*
X2386520Y1587898D2*
G02X2386520Y1587898I157480J0D01*
G01*
X2194787Y2303844D2*
D21*
X2293213D1*
Y2457384D1*
X2194787D1*
Y2303844D1*
D22*
X2176482Y2453639D3*
X1975250Y3812750D2*
D10*
X2262750D1*
Y3325250D1*
X1975250D1*
Y3812750D1*
X2389110Y1814110D2*
X3098890D1*
Y2523890D1*
X2389110D1*
Y1814110D1*
D27*
X2458988Y1893497D3*
X1792037Y2720575D2*
D10*
Y1917425D1*
X1996751D2*
X1792037D1*
X1996751Y2720575D2*
Y1917425D1*
Y2720575D2*
X1918004D1*
X1792037D2*
X1870784D1*
X1918004D2*
G02X1870784Y2720575I-23610J-3D01*
G01*
X1383984Y4266503D2*
X1204016D1*
Y4121499D1*
X1383984D1*
Y4266503D1*
D33*
X1177744Y4310246D3*
X1256496Y4244008D2*
D10*
Y4143994D1*
X1482456Y2821427D2*
D68*
X1484833Y2826180D1*
X1489641Y2830988D1*
X1494395Y2833365D1*
X1503956D1*
X1508765Y2830988D1*
X1513518Y2826180D1*
X1515950Y2821427D1*
X1518326Y2814242D1*
Y2802248D1*
X1515950Y2795118D1*
X1513518Y2790310D1*
X1508765Y2785557D1*
X1503956Y2783125D1*
X1494395D1*
X1489641Y2785557D1*
X1484833Y2790310D1*
X1482456Y2795118D1*
X1467017Y2833365D2*
X1464641Y2830988D1*
X1462209Y2833365D1*
X1464641Y2835797D1*
X1467017Y2833365D1*
X1464641Y2816618D2*
Y2783125D1*
X1446769Y2816618D2*
Y2783125D1*
Y2807057D2*
X1439584Y2814242D1*
X1434776Y2816618D1*
X1427646D1*
X1422838Y2814242D1*
X1420461Y2807057D1*
Y2783125D1*
X1487498Y1176520D2*
X1489875Y1181274D1*
X1494683Y1186082D1*
X1499436Y1188459D1*
X1508998D1*
X1513806Y1186082D1*
X1518560Y1181274D1*
X1520991Y1176520D1*
X1523368Y1169335D1*
Y1157342D1*
X1520991Y1150212D1*
X1518560Y1145404D1*
X1513806Y1140650D1*
X1508998Y1138219D1*
X1499436D1*
X1494683Y1140650D1*
X1489875Y1145404D1*
X1487498Y1150212D1*
X1460121Y1171712D2*
X1464874Y1169335D1*
X1469682Y1164527D1*
X1472059Y1157342D1*
Y1152589D1*
X1469682Y1145404D1*
X1464874Y1140650D1*
X1460121Y1138219D1*
X1452936D1*
X1448127Y1140650D1*
X1443374Y1145404D1*
X1440942Y1152589D1*
Y1157342D1*
X1443374Y1164527D1*
X1448127Y1169335D1*
X1452936Y1171712D1*
X1460121D1*
X1425503D2*
Y1147780D1*
X1423126Y1140650D1*
X1418318Y1138219D1*
X1411133D1*
X1406380Y1140650D1*
X1399195Y1147780D1*
Y1171712D2*
Y1138219D1*
X1376570Y1188459D2*
Y1147780D1*
X1374194Y1140650D1*
X1369385Y1138219D1*
X1364632D1*
X1383755Y1171712D2*
X1367009D1*
X1876214Y1176520D2*
X1878591Y1181274D1*
X1883399Y1186082D1*
X1888153Y1188459D1*
X1897714D1*
X1902523Y1186082D1*
X1907276Y1181274D1*
X1909708Y1176520D1*
X1912084Y1169335D1*
Y1157342D1*
X1909708Y1150212D1*
X1907276Y1145404D1*
X1902523Y1140650D1*
X1897714Y1138219D1*
X1888153D1*
X1883399Y1140650D1*
X1878591Y1145404D1*
X1876214Y1150212D1*
X1848837Y1171712D2*
X1853590Y1169335D1*
X1858399Y1164527D1*
X1860775Y1157342D1*
Y1152589D1*
X1858399Y1145404D1*
X1853590Y1140650D1*
X1848837Y1138219D1*
X1841652D1*
X1836843Y1140650D1*
X1832090Y1145404D1*
X1829658Y1152589D1*
Y1157342D1*
X1832090Y1164527D1*
X1836843Y1169335D1*
X1841652Y1171712D1*
X1848837D1*
X1814219D2*
Y1147780D1*
X1811843Y1140650D1*
X1807034Y1138219D1*
X1799849D1*
X1795096Y1140650D1*
X1787911Y1147780D1*
Y1171712D2*
Y1138219D1*
X1765287Y1188459D2*
Y1147780D1*
X1762910Y1140650D1*
X1758102Y1138219D1*
X1753348D1*
X1772472Y1171712D2*
X1755725D1*
X1737909Y1178842D2*
X1733101Y1181274D1*
X1725916Y1188403D1*
Y1138219D1*
X2261964Y1176520D2*
X2264341Y1181274D1*
X2269149Y1186082D1*
X2273903Y1188459D1*
X2283464D1*
X2288273Y1186082D1*
X2293026Y1181274D1*
X2295458Y1176520D1*
X2297834Y1169335D1*
Y1157342D1*
X2295458Y1150212D1*
X2293026Y1145404D1*
X2288273Y1140650D1*
X2283464Y1138219D1*
X2273903D1*
X2269149Y1140650D1*
X2264341Y1145404D1*
X2261964Y1150212D1*
X2234587Y1171712D2*
X2239340Y1169335D1*
X2244149Y1164527D1*
X2246525Y1157342D1*
Y1152589D1*
X2244149Y1145404D1*
X2239340Y1140650D1*
X2234587Y1138219D1*
X2227402D1*
X2222593Y1140650D1*
X2217840Y1145404D1*
X2215408Y1152589D1*
Y1157342D1*
X2217840Y1164527D1*
X2222593Y1169335D1*
X2227402Y1171712D1*
X2234587D1*
X2199969D2*
Y1147780D1*
X2197593Y1140650D1*
X2192784Y1138219D1*
X2185599D1*
X2180846Y1140650D1*
X2173661Y1147780D1*
Y1171712D2*
Y1138219D1*
X2151037Y1188459D2*
Y1147780D1*
X2148660Y1140650D1*
X2143851Y1138219D1*
X2139098D1*
X2158222Y1171712D2*
X2141475D1*
X2121227Y1176465D2*
Y1178842D1*
X2118851Y1183650D1*
X2116474Y1186027D1*
X2111666Y1188403D1*
X2102104D1*
X2097351Y1186027D1*
X2094974Y1183650D1*
X2092542Y1178842D1*
Y1174089D1*
X2094974Y1169280D1*
X2099727Y1162150D1*
X2123659Y1138219D1*
X2090166D1*
X2611964Y1401520D2*
X2614341Y1406274D1*
X2619149Y1411082D1*
X2623903Y1413459D1*
X2633464D1*
X2638273Y1411082D1*
X2643026Y1406274D1*
X2645458Y1401520D1*
X2647834Y1394335D1*
Y1382342D1*
X2645458Y1375212D1*
X2643026Y1370404D1*
X2638273Y1365650D1*
X2633464Y1363219D1*
X2623903D1*
X2619149Y1365650D1*
X2614341Y1370404D1*
X2611964Y1375212D1*
X2584587Y1396712D2*
X2589340Y1394335D1*
X2594149Y1389527D1*
X2596525Y1382342D1*
Y1377589D1*
X2594149Y1370404D1*
X2589340Y1365650D1*
X2584587Y1363219D1*
X2577402D1*
X2572593Y1365650D1*
X2567840Y1370404D1*
X2565408Y1377589D1*
Y1382342D1*
X2567840Y1389527D1*
X2572593Y1394335D1*
X2577402Y1396712D1*
X2584587D1*
X2549969D2*
Y1372780D1*
X2547593Y1365650D1*
X2542784Y1363219D1*
X2535599D1*
X2530846Y1365650D1*
X2523661Y1372780D1*
Y1396712D2*
Y1363219D1*
X2501037Y1413459D2*
Y1372780D1*
X2498660Y1365650D1*
X2493851Y1363219D1*
X2489098D1*
X2508222Y1396712D2*
X2491475D1*
X2468851Y1413403D2*
X2442598D1*
X2456912Y1394280D1*
X2449727D1*
X2444974Y1391904D1*
X2442598Y1389527D1*
X2440166Y1382342D1*
Y1377589D1*
X2442598Y1370404D1*
X2447351Y1365595D1*
X2454536Y1363219D1*
X2461721D1*
X2468851Y1365595D1*
X2471227Y1368027D1*
X2473659Y1372780D1*
X2090856Y2411077D2*
X2141096D1*
Y2394331D1*
X2138664Y2387146D1*
X2133911Y2382337D1*
X2129102Y2379961D1*
X2121972Y2377584D1*
X2109979D1*
X2102794Y2379961D1*
X2098041Y2382337D1*
X2093232Y2387146D1*
X2090856Y2394331D1*
Y2411077D1*
X2100473Y2362145D2*
X2098041Y2357336D1*
X2090911Y2350151D1*
X2141096D1*
X2149463Y3885973D2*
Y3835733D1*
X2115970Y3885973D2*
X2149463Y3852480D1*
X2137525Y3864473D2*
X2115970Y3835733D1*
X2100530Y3876356D2*
X2095722Y3878788D1*
X2088537Y3885918D1*
Y3835733D1*
X2772059Y2601278D2*
Y2551038D1*
X2743374D1*
X2727935Y2591661D2*
X2723126Y2594093D1*
X2715941Y2601223D1*
Y2551038D1*
X1924857Y2793798D2*
Y2757928D1*
X1922480Y2750743D1*
X1917672Y2745990D1*
X1910487Y2743558D1*
X1905733D1*
X1898548Y2745990D1*
X1893740Y2750743D1*
X1891363Y2757928D1*
Y2793798D1*
X1875924Y2784181D2*
X1871116Y2786613D1*
X1863931Y2793743D1*
Y2743558D1*
X1335213Y4417222D2*
Y4366982D1*
X1318466D1*
X1311281Y4369414D1*
X1306473Y4374167D1*
X1304096Y4378976D1*
X1301720Y4386106D1*
Y4398099D1*
X1304096Y4405284D1*
X1306473Y4410037D1*
X1311281Y4414846D1*
X1318466Y4417222D1*
X1335213D1*
X1283849Y4405229D2*
Y4407606D1*
X1281472Y4412414D1*
X1279095Y4414791D1*
X1274287Y4417167D1*
X1264725D1*
X1259972Y4414791D1*
X1257595Y4412414D1*
X1255164Y4407606D1*
Y4402852D1*
X1257595Y4398044D1*
X1262349Y4390914D1*
X1286280Y4366982D1*
X1252787D1*
X2719569Y767322D2*
D69*
X2757926Y867802D1*
X2796173Y767322D1*
X2781803Y800815D2*
X2733939D1*
X2688691Y867802D2*
Y767322D1*
X2645580D1*
X2631210Y772185D1*
X2626457Y776939D1*
X2621704Y786445D1*
Y800815D1*
X2626457Y810432D1*
X2631210Y815185D1*
X2645580Y819938D1*
X2631210Y824802D1*
X2626457Y829555D1*
X2621704Y839062D1*
Y848679D1*
X2626457Y858185D1*
X2631210Y863049D1*
X2645580Y867802D1*
X2688691D1*
Y819938D2*
X2645580D1*
X2590825Y867802D2*
Y767322D1*
X2533456D1*
X2435590Y853432D2*
X2445097Y863049D1*
X2459467Y867802D1*
X2478590D1*
X2492960Y863049D1*
X2502577Y853432D1*
Y843925D1*
X2497713Y834308D1*
X2492960Y829555D1*
X2483454Y824802D1*
X2454714Y815185D1*
X2445097Y810432D1*
X2440344Y805568D1*
X2435590Y796062D1*
Y781692D1*
X2445097Y772185D1*
X2459467Y767322D1*
X2478590D1*
X2492960Y772185D1*
X2502577Y781692D1*
X2307510Y815185D2*
X2264400D1*
X2250140Y819938D1*
X2245277Y824802D1*
X2240523Y834308D1*
Y848679D1*
X2245277Y858185D1*
X2250140Y863049D1*
X2264400Y867802D1*
X2307510D1*
Y767322D1*
X2185768Y834308D2*
X2195275Y829555D1*
X2204892Y819938D1*
X2209645Y805568D1*
Y796062D1*
X2204892Y781692D1*
X2195275Y772185D1*
X2185768Y767322D1*
X2171398D1*
X2161781Y772185D1*
X2152275Y781692D1*
X2147411Y796062D1*
Y805568D1*
X2152275Y819938D1*
X2161781Y829555D1*
X2171398Y834308D1*
X2185768D1*
X2116533D2*
X2097410Y767322D1*
X2078286Y834308D1*
X2059163Y767322D1*
X2040040Y834308D1*
X2009161Y805568D2*
X1951792D1*
Y815185D1*
X1956545Y824802D1*
X1961298Y829555D1*
X1970915Y834308D1*
X1985285D1*
X1994791Y829555D1*
X2004408Y819938D1*
X2009161Y805568D1*
Y796062D1*
X2004408Y781692D1*
X1994791Y772185D1*
X1985285Y767322D1*
X1970915D1*
X1961298Y772185D1*
X1951792Y781692D1*
X1920913Y834308D2*
Y767322D1*
Y805568D2*
X1916049Y819938D1*
X1906543Y829555D1*
X1896926Y834308D1*
X1882556D1*
X1677983Y767322D2*
Y867802D1*
X1716229Y767322D1*
X1754476Y867802D1*
Y767322D1*
X1623228Y834308D2*
X1632734Y829555D1*
X1642351Y819938D1*
X1647104Y805568D1*
Y796062D1*
X1642351Y781692D1*
X1632734Y772185D1*
X1623228Y767322D1*
X1608858D1*
X1599241Y772185D1*
X1589734Y781692D1*
X1584871Y796062D1*
Y805568D1*
X1589734Y819938D1*
X1599241Y829555D1*
X1608858Y834308D1*
X1623228D1*
X1496622Y867802D2*
Y767322D1*
Y819938D2*
X1506129Y829555D1*
X1515746Y834308D1*
X1530116D1*
X1539622Y829555D1*
X1549239Y819938D1*
X1553992Y805568D1*
Y796062D1*
X1549239Y781692D1*
X1539622Y772185D1*
X1530116Y767322D1*
X1515746D1*
X1506129Y772185D1*
X1496622Y781692D1*
X1465744Y834308D2*
Y786445D1*
X1460991Y772185D1*
X1451374Y767322D1*
X1437004D1*
X1427497Y772185D1*
X1413127Y786445D1*
Y834308D2*
Y767322D1*
X1382249Y867802D2*
Y767322D1*
X1351370Y805568D2*
X1294000D1*
Y815185D1*
X1298754Y824802D1*
X1303507Y829555D1*
X1313124Y834308D1*
X1327494D1*
X1337000Y829555D1*
X1346617Y819938D1*
X1351370Y805568D1*
Y796062D1*
X1346617Y781692D1*
X1337000Y772185D1*
X1327494Y767322D1*
X1313124D1*
X1303507Y772185D1*
X1294000Y781692D1*
X2759041Y681369D2*
D70*
Y621081D1*
X2733175D1*
X2724553Y623999D1*
X2721701Y626851D1*
X2718849Y632555D1*
Y641177D1*
X2721701Y646947D1*
X2724553Y649799D1*
X2733175Y652651D1*
X2724553Y655569D1*
X2721701Y658421D1*
X2718849Y664125D1*
Y669895D1*
X2721701Y675599D1*
X2724553Y678517D1*
X2733175Y681369D1*
X2759041D1*
Y652651D2*
X2733175D1*
X2697404Y661273D2*
X2680226Y621081D1*
X2685930Y609607D1*
X2691700Y603837D1*
X2697404Y600985D1*
X2700322D1*
X2662982Y661273D2*
X2680226Y621081D1*
X2540238D2*
Y681369D1*
X2563186Y621081D1*
X2586134Y681369D1*
Y621081D1*
X2487289Y661273D2*
Y621081D1*
Y652651D2*
X2492993Y658421D1*
X2498763Y661273D1*
X2507319D1*
X2513089Y658421D1*
X2518792Y652651D1*
X2521711Y644029D1*
Y638325D1*
X2518792Y629703D1*
X2513089Y623999D1*
X2507319Y621081D1*
X2498763D1*
X2492993Y623999D1*
X2487289Y629703D1*
X2468762Y661273D2*
Y621081D1*
Y644029D2*
X2465844Y652651D1*
X2460140Y658421D1*
X2454370Y661273D1*
X2445748D1*
X2392732Y652651D2*
X2398502Y658421D1*
X2404273Y661273D1*
X2412828D1*
X2418598Y658421D1*
X2424302Y652651D1*
X2427220Y644029D1*
Y638325D1*
X2424302Y629703D1*
X2418598Y623999D1*
X2412828Y621081D1*
X2404273D1*
X2398502Y623999D1*
X2392732Y629703D1*
X2315884Y649799D2*
X2290018D1*
X2281462Y652651D1*
X2278544Y655569D1*
X2275692Y661273D1*
Y669895D1*
X2278544Y675599D1*
X2281462Y678517D1*
X2290018Y681369D1*
X2315884D1*
Y621081D1*
X2257165Y681369D2*
Y621081D1*
Y649799D2*
X2248543Y658421D1*
X2242773Y661273D1*
X2234151D1*
X2228447Y658421D1*
X2225595Y649799D1*
Y621081D1*
X2172646Y661273D2*
Y621081D1*
Y652651D2*
X2178350Y658421D1*
X2184120Y661273D1*
X2192676D1*
X2198446Y658421D1*
X2204150Y652651D1*
X2207068Y644029D1*
Y638325D1*
X2204150Y629703D1*
X2198446Y623999D1*
X2192676Y621081D1*
X2184120D1*
X2178350Y623999D1*
X2172646Y629703D1*
X2154119Y661273D2*
Y621081D1*
Y649799D2*
X2145497Y658421D1*
X2139727Y661273D1*
X2131171D1*
X2125401Y658421D1*
X2122549Y649799D1*
Y621081D1*
Y649799D2*
X2113927Y658421D1*
X2108157Y661273D1*
X2099601D1*
X2093831Y658421D1*
X2090913Y649799D1*
Y621081D1*
X1555347Y1291695D2*
D71*
X1495070D1*
X1525170Y1261595D2*
Y1321872D1*
X1930347Y1291695D2*
X1870070D1*
X1900170Y1261595D2*
Y1321872D1*
X2305347Y1291695D2*
X2245070D1*
X2275170Y1261595D2*
Y1321872D1*
X2615203Y1699245D2*
Y1638968D1*
X2645303Y1669068D2*
X2585026D1*
M02*
