M48
INCH
T01C0.0276
T02C0.0315
T03C0.0354
T04C0.0472
T05C0.073
T06C0.0787
T07C0.126
T08C0.182
%
T01
X+014437Y+012937
X+014437Y+014315
X+018187Y+014315
X+018187Y+012937
X+021937Y+012937
X+021937Y+014315
X+024748Y+015876
X+026126Y+015876
T02
X+020187Y+037687
X+022187Y+037687
X+022187Y+035687
X+022187Y+034687
X+022187Y+033687
X+020187Y+033687
X+020187Y+034687
X+020187Y+035687
T03
X+020437Y+026687
X+020437Y+025687
X+020437Y+024687
X+020437Y+023687
X+020437Y+022687
X+020437Y+021687
X+020437Y+020687
X+020437Y+019687
X+017445Y+019687
X+017445Y+020687
X+017445Y+021687
X+017445Y+022687
X+017445Y+023687
X+017445Y+024687
X+017445Y+025687
X+017445Y+026687
T04
X+029437Y+018687
X+025437Y+024687
X+022187Y+044437
X+022187Y+045687
X+020187Y+045687
X+020187Y+044437
T05
X+015746Y+053737
T06
X+007386Y+023412
X+007386Y+031011
X+007386Y+038609
X+007386Y+015814
X+036087Y+015814
X+036087Y+023412
X+036087Y+031011
X+036087Y+038609
T07
X+010789Y+031011
X+010789Y+023412
X+010789Y+015814
X+032683Y+015814
X+032683Y+023412
X+032683Y+031011
X+032683Y+038609
X+010789Y+038609
T08
X+026376Y+050942
T00
M30
