M48
INCH
T01C0.0276
T02C0.0315
T03C0.0354
T04C0.0472
T05C0.073
T06C0.0787
T07C0.126
T08C0.182
%
T01
X+014440Y+012940
X+014440Y+014318
X+018190Y+012940
X+018190Y+014318
X+021940Y+012940
X+021940Y+014318
X+026129Y+015879
X+024751Y+015879
T02
X+020190Y+037690
X+020190Y+035690
X+020190Y+034690
X+020190Y+033690
X+022190Y+037690
X+022190Y+035690
X+022190Y+034690
X+022190Y+033690
T04
X+029440Y+018690
X+025440Y+024690
X+022190Y+045690
X+022190Y+044440
X+020190Y+044440
X+020190Y+045690
T03
X+020440Y+026690
X+020440Y+025690
X+020440Y+024690
X+020440Y+023690
X+020440Y+022690
X+020440Y+021690
X+020440Y+020690
X+020440Y+019690
X+017448Y+019690
X+017448Y+020690
X+017448Y+021690
X+017448Y+022690
X+017448Y+023690
X+017448Y+024690
X+017448Y+025690
X+017448Y+026690
T06
X+007389Y+023415
X+007389Y+015817
X+036090Y+023415
X+036090Y+015817
X+007389Y+031014
X+007389Y+038612
X+036090Y+031014
X+036090Y+038612
T07
X+010792Y+031014
X+010792Y+038612
X+010792Y+023415
X+010792Y+015817
X+032686Y+015817
X+032686Y+023415
X+032686Y+031014
X+032686Y+038612
T08
X+026379Y+050945
T05
X+015749Y+053740
T00
M30
