G04 DipTrace 3.0.0.2*
G04 TopMask.gbr*
%MOIN*%
G04 #@! TF.FileFunction,Soldermask,Top*
G04 #@! TF.Part,Single*
%ADD33C,0.059055*%
%ADD35C,0.182*%
%ADD36C,0.073*%
%ADD37C,0.125984*%
%ADD44C,0.165354*%
%ADD46C,0.066929*%
%ADD47R,0.066929X0.066929*%
%ADD49C,0.086614*%
%ADD53R,0.150394X0.061024*%
%ADD55R,0.075984X0.185433*%
%ADD61C,0.066929*%
%FSLAX26Y26*%
G04*
G70*
G90*
G75*
G01*
G04 TopMask*
%LPD*%
D61*
X1443701Y1293701D3*
Y1431496D3*
X1818701Y1293701D3*
Y1431496D3*
X2193701Y1293701D3*
Y1431496D3*
X2612598Y1587598D3*
X2474803D3*
D35*
X2637598Y5094193D3*
D36*
X1574606Y5373720D3*
D55*
X2393701Y993701D3*
D53*
X2519685Y850394D3*
D55*
X2393701Y589173D3*
D53*
X2519685Y732283D3*
D55*
X1593701Y993701D3*
D53*
X1719685Y850394D3*
D55*
X1593701Y589173D3*
D53*
X1719685Y732283D3*
D55*
X1993701Y993701D3*
D53*
X2119685Y850394D3*
D55*
X1993701Y589173D3*
D53*
X2119685Y732283D3*
D33*
X2018701Y3768701D3*
Y3568701D3*
Y3468701D3*
Y3368701D3*
X2218701Y3768701D3*
Y3568701D3*
Y3468701D3*
Y3368701D3*
D37*
X2943701Y1868701D3*
X2543701Y2468701D3*
D49*
X2218701Y4568701D3*
Y4443661D3*
X2018701Y4443701D3*
Y4568740D3*
D47*
X2043701Y2668701D3*
D46*
Y2568701D3*
Y2468701D3*
Y2368701D3*
Y2268701D3*
Y2168701D3*
Y2068701D3*
Y1968701D3*
X1744488D3*
Y2068701D3*
Y2168701D3*
Y2268701D3*
Y2368701D3*
Y2468701D3*
Y2568701D3*
Y2668701D3*
D44*
X738583Y2341240D3*
Y1581398D3*
X3608661Y2341240D3*
Y1581398D3*
X738583Y3101083D3*
Y3860925D3*
X3608661Y3101083D3*
Y3860925D3*
D37*
X1078937Y3101083D3*
Y3860925D3*
Y2341240D3*
Y1581398D3*
X3268307D3*
Y2341240D3*
Y3101083D3*
Y3860925D3*
M02*
