G04 DipTrace 3.0.0.2*
G04 TopSilk.gbr*
%MOIN*%
G04 #@! TF.FileFunction,Legend,Top*
G04 #@! TF.Part,Single*
%ADD10C,0.009843*%
%ADD16C,0.01378*%
%ADD20C,0.003937*%
%ADD67C,0.00772*%
%ADD71C,0.004632*%
%ADD72C,0.003088*%
%ADD73C,0.060213*%
%FSLAX26Y26*%
G04*
G70*
G90*
G75*
G01*
G04 TopSilk*
%LPD*%
X2283173Y586132D2*
D20*
X2506402D1*
Y995164D1*
X2283173D1*
Y586132D1*
X1483173D2*
X1706402D1*
Y995164D1*
X1483173D1*
Y586132D1*
X1883173D2*
X2106402D1*
Y995164D1*
X1883173D1*
Y586132D1*
X3718910Y5437345D2*
D10*
X3581410D1*
Y5162345D1*
X3718910D1*
Y5437345D1*
X3381410Y5162385D2*
X3518910D1*
Y5437385D1*
X3381410D1*
Y5162385D1*
X3708961Y1169492D2*
X638882D1*
Y4273429D1*
X3708961D1*
Y1169492D1*
X1456638Y5567031D2*
D16*
X3818488D1*
Y4385929D1*
X1456638D1*
Y5567031D1*
X2350616Y1153837D2*
D67*
Y1115591D1*
X2348239Y1108406D1*
X2345807Y1106029D1*
X2341054Y1103597D1*
X2336246D1*
X2331492Y1106029D1*
X2329116Y1108406D1*
X2326684Y1115591D1*
Y1120344D1*
X2366055Y1144220D2*
X2370863Y1146652D1*
X2378048Y1153782D1*
Y1103597D1*
X1539866Y1153837D2*
Y1115591D1*
X1537489Y1108406D1*
X1535057Y1106029D1*
X1530304Y1103597D1*
X1525496D1*
X1520742Y1106029D1*
X1518366Y1108406D1*
X1515934Y1115591D1*
Y1120344D1*
X1560113Y1153782D2*
X1586366D1*
X1572052Y1134659D1*
X1579237D1*
X1583990Y1132282D1*
X1586366Y1129906D1*
X1588798Y1122721D1*
Y1117967D1*
X1586366Y1110782D1*
X1581613Y1105974D1*
X1574428Y1103597D1*
X1567243D1*
X1560113Y1105974D1*
X1557737Y1108406D1*
X1555305Y1113159D1*
X1938677Y1153837D2*
Y1115591D1*
X1936301Y1108406D1*
X1933869Y1106029D1*
X1929116Y1103597D1*
X1924307D1*
X1919554Y1106029D1*
X1917178Y1108406D1*
X1914746Y1115591D1*
Y1120344D1*
X1978048Y1103597D2*
Y1153782D1*
X1954117Y1120344D1*
X1989987D1*
X3595231Y5484260D2*
X3616786D1*
X3623916Y5486637D1*
X3626348Y5489068D1*
X3628724Y5493822D1*
Y5501007D1*
X3626348Y5505760D1*
X3623916Y5508192D1*
X3616786Y5510568D1*
X3595231D1*
Y5460328D1*
X3677657Y5503383D2*
X3672904Y5508192D1*
X3665718Y5510568D1*
X3656157D1*
X3648972Y5508192D1*
X3644163Y5503383D1*
Y5498630D1*
X3646595Y5493822D1*
X3648972Y5491445D1*
X3653725Y5489068D1*
X3668095Y5484260D1*
X3672904Y5481883D1*
X3675280Y5479451D1*
X3677657Y5474698D1*
Y5467513D1*
X3672904Y5462760D1*
X3665718Y5460328D1*
X3656157D1*
X3648972Y5462760D1*
X3644163Y5467513D1*
X3693096Y5500951D2*
X3697904Y5503383D1*
X3705089Y5510513D1*
Y5460328D1*
X3315372Y5302915D2*
X3310564Y5298162D1*
X3308187Y5290977D1*
Y5281415D1*
X3310564Y5274230D1*
X3315372Y5269422D1*
X3320125D1*
X3324934Y5271853D1*
X3327310Y5274230D1*
X3329687Y5278983D1*
X3334495Y5293353D1*
X3336872Y5298162D1*
X3339304Y5300538D1*
X3344057Y5302915D1*
X3351242D1*
X3355995Y5298162D1*
X3358427Y5290977D1*
Y5281415D1*
X3355995Y5274230D1*
X3351242Y5269422D1*
X3317804Y5318354D2*
X3315372Y5323163D1*
X3308242Y5330348D1*
X3358427D1*
X2141082Y4346652D2*
X2160205Y4296412D1*
X2179328Y4346652D1*
X2194767Y4337035D2*
X2199576Y4339467D1*
X2206761Y4346597D1*
Y4296412D1*
X3700307Y5409617D2*
D71*
X3674474D1*
X3687373Y5422517D2*
Y5396684D1*
X3400014Y5190113D2*
X3425847D1*
X3412947Y5177213D2*
Y5203046D1*
X3491071Y5271073D2*
D72*
X3489148Y5269172D1*
X3488197Y5266298D1*
Y5262473D1*
X3489148Y5259599D1*
X3491071Y5257676D1*
X3492973D1*
X3494896Y5258649D1*
X3495847Y5259599D1*
X3496797Y5261501D1*
X3498721Y5267249D1*
X3499671Y5269172D1*
X3500644Y5270123D1*
X3502545Y5271073D1*
X3505419D1*
X3507321Y5269172D1*
X3508293Y5266298D1*
Y5262473D1*
X3507321Y5259599D1*
X3505419Y5257676D1*
X3494896Y5277249D2*
X3508293Y5281074D1*
X3494896Y5284898D1*
X3508293Y5288723D1*
X3494896Y5292548D1*
X3488197Y5298723D2*
X3489148Y5299674D1*
X3488197Y5300647D1*
X3487225Y5299674D1*
X3488197Y5298723D1*
X3494896Y5299674D2*
X3508293D1*
X3488197Y5309696D2*
X3504469D1*
X3507321Y5310647D1*
X3508293Y5312570D1*
Y5314472D1*
X3494896Y5306822D2*
Y5313521D1*
X3497770Y5332143D2*
X3495847Y5330220D1*
X3494896Y5328297D1*
Y5325445D1*
X3495847Y5323521D1*
X3497770Y5321620D1*
X3500644Y5320647D1*
X3502545D1*
X3505419Y5321620D1*
X3507321Y5323521D1*
X3508293Y5325445D1*
Y5328297D1*
X3507321Y5330220D1*
X3505419Y5332143D1*
X3488197Y5338319D2*
X3508293D1*
X3498721D2*
X3495847Y5341193D1*
X3494896Y5343117D1*
Y5345991D1*
X3495847Y5347892D1*
X3498721Y5348842D1*
X3508293D1*
X1393457Y2730236D2*
D73*
X1729286D1*
X1561587Y2562538D2*
Y2898366D1*
X3093034Y2621512D2*
Y2837063D1*
M02*
