G04 DipTrace 3.0.0.2*
G04 TopSilk.gbr*
%MOIN*%
G04 #@! TF.FileFunction,Legend,Top*
G04 #@! TF.Part,Single*
%ADD10C,0.009843*%
%ADD17C,0.01378*%
%ADD21C,0.003937*%
%ADD65C,0.00772*%
%ADD69C,0.004632*%
%ADD70C,0.003088*%
%ADD71C,0.060213*%
%FSLAX26Y26*%
G04*
G70*
G90*
G75*
G01*
G04 TopSilk*
%LPD*%
X2506102Y994876D2*
D21*
X2282874D1*
Y585844D1*
X2506102D1*
Y994876D1*
X1706102D2*
X1482874D1*
Y585844D1*
X1706102D1*
Y994876D1*
X2106102D2*
X1882874D1*
Y585844D1*
X2106102D1*
Y994876D1*
X2287451Y4643681D2*
D10*
X2149951D1*
Y4368681D1*
X2287451D1*
Y4643681D1*
X1949951Y4368720D2*
X2087451D1*
Y4643720D1*
X1949951D1*
Y4368720D1*
X3708661Y1169193D2*
X638583D1*
Y4273130D1*
X3708661D1*
Y1169193D1*
X1456339Y5566732D2*
D17*
X3818189D1*
Y4385630D1*
X1456339D1*
Y5566732D1*
X2435159Y1155703D2*
D65*
Y1117457D1*
X2432782Y1110272D1*
X2430350Y1107895D1*
X2425597Y1105463D1*
X2420789D1*
X2416036Y1107895D1*
X2413659Y1110272D1*
X2411227Y1117457D1*
Y1122210D1*
X2450598Y1146086D2*
X2455407Y1148518D1*
X2462592Y1155648D1*
Y1105463D1*
X1624409Y1155703D2*
Y1117457D1*
X1622032Y1110272D1*
X1619601Y1107895D1*
X1614847Y1105463D1*
X1610039D1*
X1605286Y1107895D1*
X1602909Y1110272D1*
X1600477Y1117457D1*
Y1122210D1*
X1644657Y1155648D2*
X1670910D1*
X1656595Y1136525D1*
X1663780D1*
X1668533Y1134148D1*
X1670910Y1131772D1*
X1673342Y1124587D1*
Y1119833D1*
X1670910Y1112648D1*
X1666157Y1107840D1*
X1658972Y1105463D1*
X1651786D1*
X1644657Y1107840D1*
X1642280Y1110272D1*
X1639848Y1115025D1*
X2023221Y1155703D2*
Y1117457D1*
X2020844Y1110272D1*
X2018412Y1107895D1*
X2013659Y1105463D1*
X2008851D1*
X2004097Y1107895D1*
X2001721Y1110272D1*
X1999289Y1117457D1*
Y1122210D1*
X2062592Y1105463D2*
Y1155648D1*
X2038660Y1122210D1*
X2074530D1*
X2163771Y4690596D2*
X2185327D1*
X2192456Y4692972D1*
X2194888Y4695404D1*
X2197265Y4700158D1*
Y4707343D1*
X2194888Y4712096D1*
X2192456Y4714528D1*
X2185327Y4716904D1*
X2163771D1*
Y4666664D1*
X2246197Y4709719D2*
X2241444Y4714528D1*
X2234259Y4716904D1*
X2224698D1*
X2217512Y4714528D1*
X2212704Y4709719D1*
Y4704966D1*
X2215136Y4700158D1*
X2217512Y4697781D1*
X2222266Y4695404D1*
X2236636Y4690596D1*
X2241444Y4688219D1*
X2243821Y4685787D1*
X2246197Y4681034D1*
Y4673849D1*
X2241444Y4669096D1*
X2234259Y4666664D1*
X2224698D1*
X2217512Y4669096D1*
X2212704Y4673849D1*
X2261637Y4707287D2*
X2266445Y4709719D1*
X2273630Y4716849D1*
Y4666664D1*
X1883913Y4509251D2*
X1879104Y4504498D1*
X1876728Y4497313D1*
Y4487751D1*
X1879104Y4480566D1*
X1883913Y4475758D1*
X1888666D1*
X1893474Y4478189D1*
X1895851Y4480566D1*
X1898228Y4485319D1*
X1903036Y4499689D1*
X1905413Y4504498D1*
X1907845Y4506874D1*
X1912598Y4509251D1*
X1919783D1*
X1924536Y4504498D1*
X1926968Y4497313D1*
Y4487751D1*
X1924536Y4480566D1*
X1919783Y4475758D1*
X1886345Y4524690D2*
X1883913Y4529499D1*
X1876783Y4536684D1*
X1926968D1*
X2140782Y4346353D2*
X2159906Y4296113D1*
X2179029Y4346353D1*
X2194468Y4336736D2*
X2199277Y4339168D1*
X2206462Y4346298D1*
Y4296113D1*
X2268847Y4615953D2*
D69*
X2243014D1*
X2255914Y4628853D2*
Y4603020D1*
X1968554Y4396449D2*
X1994387D1*
X1981487Y4383549D2*
Y4409382D1*
X2059612Y4477409D2*
D70*
X2057689Y4475508D1*
X2056738Y4472634D1*
Y4468809D1*
X2057689Y4465935D1*
X2059612Y4464012D1*
X2061513D1*
X2063437Y4464985D1*
X2064387Y4465935D1*
X2065338Y4467837D1*
X2067261Y4473585D1*
X2068212Y4475508D1*
X2069185Y4476459D1*
X2071086Y4477409D1*
X2073960D1*
X2075861Y4475508D1*
X2076834Y4472634D1*
Y4468809D1*
X2075861Y4465935D1*
X2073960Y4464012D1*
X2063437Y4483585D2*
X2076834Y4487410D1*
X2063437Y4491234D1*
X2076834Y4495059D1*
X2063437Y4498884D1*
X2056738Y4505059D2*
X2057689Y4506010D1*
X2056738Y4506983D1*
X2055765Y4506010D1*
X2056738Y4505059D1*
X2063437Y4506010D2*
X2076834D1*
X2056738Y4516032D2*
X2073009D1*
X2075861Y4516983D1*
X2076834Y4518906D1*
Y4520808D1*
X2063437Y4513158D2*
Y4519857D1*
X2066311Y4538479D2*
X2064387Y4536556D1*
X2063437Y4534633D1*
Y4531781D1*
X2064387Y4529857D1*
X2066311Y4527956D1*
X2069185Y4526983D1*
X2071086D1*
X2073960Y4527956D1*
X2075861Y4529857D1*
X2076834Y4531781D1*
Y4534633D1*
X2075861Y4536556D1*
X2073960Y4538479D1*
X2056738Y4544655D2*
X2076834D1*
X2067261D2*
X2064387Y4547529D1*
X2063437Y4549452D1*
Y4552326D1*
X2064387Y4554228D1*
X2067261Y4555178D1*
X2076834D1*
X1393158Y2729937D2*
D71*
X1728987D1*
X1561288Y2562238D2*
Y2898067D1*
X3092735Y2621213D2*
Y2836764D1*
M02*
