G04 DipTrace 3.0.0.2*
G04 TopSilk.gbr*
%MOIN*%
G04 #@! TF.FileFunction,Legend,Top*
G04 #@! TF.Part,Single*
%ADD10C,0.009843*%
%ADD17C,0.01378*%
%ADD21C,0.003937*%
%ADD68C,0.00772*%
%ADD72C,0.004632*%
%ADD73C,0.003088*%
%ADD74C,0.060213*%
%FSLAX26Y26*%
G04*
G70*
G90*
G75*
G01*
G04 TopSilk*
%LPD*%
X2283173Y586132D2*
D21*
X2506402D1*
Y995164D1*
X2283173D1*
Y586132D1*
X1483173D2*
X1706402D1*
Y995164D1*
X1483173D1*
Y586132D1*
X1883173D2*
X2106402D1*
Y995164D1*
X1883173D1*
Y586132D1*
X2287750Y4643980D2*
D10*
X2150250D1*
Y4368980D1*
X2287750D1*
Y4643980D1*
X1950250Y4369020D2*
X2087750D1*
Y4644020D1*
X1950250D1*
Y4369020D1*
X3708961Y1169492D2*
X638882D1*
Y4273429D1*
X3708961D1*
Y1169492D1*
X1456638Y5567031D2*
D17*
X3818488D1*
Y4385929D1*
X1456638D1*
Y5567031D1*
X2350616Y1153837D2*
D68*
Y1115591D1*
X2348239Y1108406D1*
X2345807Y1106029D1*
X2341054Y1103597D1*
X2336246D1*
X2331492Y1106029D1*
X2329116Y1108406D1*
X2326684Y1115591D1*
Y1120344D1*
X2366055Y1144220D2*
X2370863Y1146652D1*
X2378048Y1153782D1*
Y1103597D1*
X1539866Y1153837D2*
Y1115591D1*
X1537489Y1108406D1*
X1535057Y1106029D1*
X1530304Y1103597D1*
X1525496D1*
X1520742Y1106029D1*
X1518366Y1108406D1*
X1515934Y1115591D1*
Y1120344D1*
X1560113Y1153782D2*
X1586366D1*
X1572052Y1134659D1*
X1579237D1*
X1583990Y1132282D1*
X1586366Y1129906D1*
X1588798Y1122721D1*
Y1117967D1*
X1586366Y1110782D1*
X1581613Y1105974D1*
X1574428Y1103597D1*
X1567243D1*
X1560113Y1105974D1*
X1557737Y1108406D1*
X1555305Y1113159D1*
X1938677Y1153837D2*
Y1115591D1*
X1936301Y1108406D1*
X1933869Y1106029D1*
X1929116Y1103597D1*
X1924307D1*
X1919554Y1106029D1*
X1917178Y1108406D1*
X1914746Y1115591D1*
Y1120344D1*
X1978048Y1103597D2*
Y1153782D1*
X1954117Y1120344D1*
X1989987D1*
X2164071Y4690895D2*
X2185626D1*
X2192756Y4693272D1*
X2195187Y4695704D1*
X2197564Y4700457D1*
Y4707642D1*
X2195187Y4712395D1*
X2192756Y4714827D1*
X2185626Y4717203D1*
X2164071D1*
Y4666963D1*
X2246497Y4710018D2*
X2241743Y4714827D1*
X2234558Y4717203D1*
X2224997D1*
X2217812Y4714827D1*
X2213003Y4710018D1*
Y4705265D1*
X2215435Y4700457D1*
X2217812Y4698080D1*
X2222565Y4695704D1*
X2236935Y4690895D1*
X2241743Y4688519D1*
X2244120Y4686087D1*
X2246497Y4681333D1*
Y4674148D1*
X2241743Y4669395D1*
X2234558Y4666963D1*
X2224997D1*
X2217812Y4669395D1*
X2213003Y4674148D1*
X2261936Y4707586D2*
X2266744Y4710018D1*
X2273929Y4717148D1*
Y4666963D1*
X1884212Y4509550D2*
X1879404Y4504797D1*
X1877027Y4497612D1*
Y4488050D1*
X1879404Y4480865D1*
X1884212Y4476057D1*
X1888965D1*
X1893774Y4478489D1*
X1896150Y4480865D1*
X1898527Y4485618D1*
X1903335Y4499988D1*
X1905712Y4504797D1*
X1908144Y4507173D1*
X1912897Y4509550D1*
X1920082D1*
X1924835Y4504797D1*
X1927267Y4497612D1*
Y4488050D1*
X1924835Y4480865D1*
X1920082Y4476057D1*
X1886644Y4524989D2*
X1884212Y4529798D1*
X1877082Y4536983D1*
X1927267D1*
X2141082Y4346652D2*
X2160205Y4296412D1*
X2179328Y4346652D1*
X2194767Y4337035D2*
X2199576Y4339467D1*
X2206761Y4346597D1*
Y4296412D1*
X2269146Y4616252D2*
D72*
X2243313D1*
X2256213Y4629152D2*
Y4603319D1*
X1968854Y4396748D2*
X1994687D1*
X1981787Y4383848D2*
Y4409681D1*
X2059911Y4477709D2*
D73*
X2057988Y4475807D1*
X2057037Y4472933D1*
Y4469109D1*
X2057988Y4466235D1*
X2059911Y4464311D1*
X2061813D1*
X2063736Y4465284D1*
X2064687Y4466235D1*
X2065637Y4468136D1*
X2067561Y4473884D1*
X2068511Y4475807D1*
X2069484Y4476758D1*
X2071385Y4477709D1*
X2074259Y4477708D1*
X2076161Y4475807D1*
X2077133Y4472933D1*
Y4469109D1*
X2076161Y4466235D1*
X2074259Y4464311D1*
X2063736Y4483884D2*
X2077133Y4487709D1*
X2063736Y4491533D1*
X2077133Y4495358D1*
X2063736Y4499183D1*
X2057037Y4505358D2*
X2057988Y4506309D1*
X2057037Y4507282D1*
X2056065Y4506309D1*
X2057037Y4505358D1*
X2063736Y4506309D2*
X2077133D1*
X2057037Y4516332D2*
X2073309D1*
X2076161Y4517282D1*
X2077133Y4519206D1*
Y4521107D1*
X2063736Y4513458D2*
Y4520156D1*
X2066610Y4538779D2*
X2064687Y4536855D1*
X2063736Y4534932D1*
Y4532080D1*
X2064687Y4530157D1*
X2066610Y4528255D1*
X2069484Y4527283D1*
X2071385D1*
X2074259Y4528255D1*
X2076161Y4530157D1*
X2077133Y4532080D1*
Y4534932D1*
X2076161Y4536855D1*
X2074259Y4538779D1*
X2057037Y4544954D2*
X2077133D1*
X2067561D2*
X2064687Y4547828D1*
X2063736Y4549752D1*
Y4552626D1*
X2064687Y4554527D1*
X2067561Y4555478D1*
X2077133D1*
X1393457Y2730236D2*
D74*
X1729286D1*
X1561587Y2562538D2*
Y2898366D1*
X3093034Y2621512D2*
Y2837063D1*
M02*
